<?xml version="1.0" encoding="UTF-8" standalone="no"?>
<!DOCTYPE svg PUBLIC "-//W3C//DTD SVG 1.1//EN" "http://www.w3.org/Graphics/SVG/1.1/DTD/svg11.dtd">
<svg width="100%" height="100%" viewBox="0 0 1000 1000" version="1.1" xmlns="http://www.w3.org/2000/svg" xmlns:xlink="http://www.w3.org/1999/xlink" xml:space="preserve" xmlns:serif="http://www.serif.com/" style="fill-rule:evenodd;clip-rule:evenodd;stroke-linecap:round;stroke-linejoin:round;stroke-miterlimit:1.5;">
    <g id="If-Tree" serif:id="If Tree" transform="matrix(1,0,0,1,10,25)">
        <g id="else-statement" serif:id="else statement" transform="matrix(1,0,0,1,-100,365)">
            <g transform="matrix(1.38,0,0,1.23214,-330,133.929)">
                <rect x="347.826" y="134.783" width="289.855" height="81.159" style="fill:rgb(231,232,233);stroke:rgb(35,31,32);stroke-width:3.19px;"/>
            </g>
            <g transform="matrix(1,0,0,1,117.5,-343.261)">
                <g transform="matrix(50,0,0,50,247.5,790.261)">
                    <path d="M0.272,0.015C0.205,0.015 0.153,-0.009 0.115,-0.056C0.077,-0.102 0.058,-0.167 0.058,-0.25C0.058,-0.333 0.078,-0.399 0.117,-0.448C0.156,-0.497 0.208,-0.521 0.274,-0.521C0.303,-0.521 0.329,-0.516 0.354,-0.507C0.378,-0.498 0.402,-0.483 0.425,-0.462L0.425,-0.74L0.514,-0.74L0.514,-0L0.435,-0L0.427,-0.048C0.405,-0.028 0.381,-0.013 0.354,-0.002C0.327,0.009 0.3,0.015 0.272,0.015ZM0.298,-0.058C0.337,-0.058 0.38,-0.075 0.425,-0.108L0.425,-0.398C0.402,-0.416 0.381,-0.429 0.36,-0.437C0.339,-0.444 0.317,-0.448 0.292,-0.448C0.245,-0.448 0.209,-0.432 0.185,-0.399C0.161,-0.366 0.149,-0.318 0.149,-0.254C0.149,-0.191 0.162,-0.142 0.188,-0.109C0.213,-0.075 0.25,-0.058 0.298,-0.058Z" style="fill-rule:nonzero;"/>
                </g>
                <g transform="matrix(50,0,0,50,277.5,790.261)">
                    <path d="M0.327,0.015C0.243,0.015 0.179,-0.008 0.136,-0.054C0.092,-0.099 0.07,-0.166 0.07,-0.254C0.07,-0.338 0.091,-0.404 0.134,-0.451C0.177,-0.498 0.236,-0.521 0.312,-0.521C0.377,-0.521 0.428,-0.503 0.465,-0.468C0.501,-0.432 0.519,-0.382 0.519,-0.317C0.519,-0.286 0.517,-0.259 0.512,-0.234L0.156,-0.234C0.159,-0.173 0.175,-0.128 0.204,-0.1C0.234,-0.072 0.278,-0.058 0.338,-0.058C0.399,-0.058 0.456,-0.068 0.509,-0.089L0.509,-0.024C0.486,-0.012 0.459,-0.003 0.427,0.004C0.395,0.011 0.362,0.015 0.327,0.015ZM0.438,-0.296C0.439,-0.303 0.439,-0.313 0.439,-0.324C0.439,-0.365 0.428,-0.397 0.406,-0.419C0.384,-0.441 0.352,-0.452 0.31,-0.452C0.264,-0.452 0.228,-0.439 0.202,-0.412C0.176,-0.386 0.161,-0.347 0.156,-0.296L0.438,-0.296Z" style="fill-rule:nonzero;"/>
                </g>
                <g transform="matrix(50,0,0,50,307.5,790.261)">
                    <path d="M0.207,-0.436L0.057,-0.436L0.057,-0.497L0.207,-0.506L0.207,-0.558C0.207,-0.626 0.223,-0.676 0.254,-0.707C0.284,-0.738 0.334,-0.754 0.401,-0.754C0.426,-0.754 0.453,-0.751 0.482,-0.746C0.51,-0.741 0.533,-0.734 0.551,-0.726L0.551,-0.659C0.5,-0.674 0.453,-0.681 0.411,-0.681C0.368,-0.681 0.338,-0.673 0.321,-0.656C0.304,-0.639 0.296,-0.607 0.296,-0.561L0.296,-0.507L0.517,-0.507L0.517,-0.436L0.296,-0.436L0.296,-0L0.207,-0L0.207,-0.436Z" style="fill-rule:nonzero;"/>
                </g>
                <g transform="matrix(50,0,0,50,337.5,790.261)">
                    <path d="M0.241,0.013C0.193,0.013 0.155,-0.001 0.126,-0.028C0.097,-0.055 0.083,-0.09 0.083,-0.135C0.083,-0.184 0.101,-0.223 0.136,-0.252C0.171,-0.281 0.218,-0.295 0.277,-0.295C0.316,-0.295 0.361,-0.288 0.412,-0.275L0.412,-0.348C0.412,-0.385 0.403,-0.41 0.386,-0.426C0.369,-0.441 0.338,-0.448 0.295,-0.448C0.24,-0.448 0.18,-0.438 0.117,-0.417L0.117,-0.483C0.14,-0.494 0.17,-0.503 0.206,-0.51C0.242,-0.518 0.277,-0.521 0.31,-0.521C0.373,-0.521 0.42,-0.508 0.451,-0.483C0.482,-0.457 0.497,-0.417 0.497,-0.364L0.497,-0L0.423,-0L0.415,-0.053C0.388,-0.032 0.36,-0.015 0.33,-0.004C0.3,0.007 0.27,0.013 0.241,0.013ZM0.261,-0.056C0.307,-0.056 0.357,-0.073 0.412,-0.108L0.412,-0.22C0.371,-0.229 0.332,-0.234 0.295,-0.234C0.212,-0.234 0.171,-0.202 0.171,-0.139C0.171,-0.112 0.179,-0.092 0.195,-0.078C0.21,-0.063 0.232,-0.056 0.261,-0.056Z" style="fill-rule:nonzero;"/>
                </g>
                <g transform="matrix(50,0,0,50,367.5,790.261)">
                    <path d="M0.231,0.015C0.184,0.015 0.149,0.002 0.124,-0.024C0.099,-0.05 0.087,-0.087 0.087,-0.136L0.087,-0.507L0.176,-0.507L0.176,-0.167C0.176,-0.13 0.183,-0.102 0.197,-0.085C0.211,-0.068 0.234,-0.059 0.265,-0.059C0.319,-0.059 0.372,-0.077 0.424,-0.112L0.424,-0.507L0.513,-0.507L0.513,-0L0.438,-0L0.429,-0.057C0.366,-0.009 0.3,0.015 0.231,0.015Z" style="fill-rule:nonzero;"/>
                </g>
                <g transform="matrix(50,0,0,50,397.5,790.261)">
                    <path d="M0.069,-0.071L0.256,-0.071L0.256,-0.669L0.094,-0.669L0.094,-0.74L0.345,-0.74L0.345,-0.071L0.521,-0.071L0.521,-0L0.069,-0L0.069,-0.071Z" style="fill-rule:nonzero;"/>
                </g>
                <g transform="matrix(50,0,0,50,427.5,790.261)">
                    <path d="M0.343,0.01C0.286,0.01 0.245,-0.003 0.22,-0.028C0.195,-0.053 0.182,-0.095 0.182,-0.152L0.182,-0.436L0.056,-0.436L0.056,-0.497L0.184,-0.506L0.198,-0.664L0.271,-0.664L0.271,-0.507L0.503,-0.507L0.503,-0.436L0.271,-0.436L0.271,-0.161C0.271,-0.125 0.278,-0.1 0.292,-0.085C0.305,-0.07 0.329,-0.063 0.363,-0.063C0.386,-0.063 0.41,-0.065 0.436,-0.07C0.462,-0.074 0.486,-0.08 0.508,-0.087L0.508,-0.022C0.489,-0.013 0.465,-0.005 0.435,0.001C0.404,0.007 0.374,0.01 0.343,0.01Z" style="fill-rule:nonzero;"/>
                </g>
            </g>
            <g transform="matrix(1,0,0,1.54386,-57.9348,285.217)">
                <g transform="matrix(1,-0,-0,0.647727,147.935,-437.357)">
                    <path d="M278.75,917.5L260,955L241.25,917.5L260,936.25L278.75,917.5Z"/>
                    <path d="M260,790L260,936.25" style="fill:none;stroke:black;stroke-width:4.17px;"/>
                </g>
            </g>
            <g transform="matrix(1,-2.36873e-32,0,1,-122.5,-421.261)">
                <g transform="matrix(41.6667,0,0,41.6667,372.5,784.094)">
                    <path d="M0.192,0.152C0.173,0.152 0.153,0.15 0.132,0.145C0.11,0.141 0.094,0.136 0.083,0.13L0.083,0.063C0.12,0.074 0.154,0.079 0.184,0.079C0.219,0.079 0.244,0.071 0.259,0.056C0.274,0.041 0.281,0.017 0.281,-0.016L0.281,-0.171C0.281,-0.244 0.305,-0.289 0.353,-0.306C0.305,-0.321 0.281,-0.366 0.281,-0.439L0.281,-0.594C0.281,-0.627 0.274,-0.652 0.259,-0.667C0.244,-0.682 0.219,-0.689 0.184,-0.689C0.154,-0.689 0.12,-0.684 0.083,-0.673L0.083,-0.74C0.094,-0.746 0.11,-0.751 0.132,-0.755C0.153,-0.76 0.173,-0.762 0.192,-0.762C0.254,-0.762 0.3,-0.748 0.329,-0.72C0.358,-0.692 0.373,-0.649 0.373,-0.59L0.373,-0.436C0.373,-0.403 0.379,-0.379 0.391,-0.365C0.403,-0.35 0.424,-0.343 0.455,-0.343L0.492,-0.343L0.492,-0.267L0.455,-0.267C0.424,-0.267 0.403,-0.26 0.391,-0.246C0.379,-0.231 0.373,-0.207 0.373,-0.174L0.373,-0.02C0.373,0.039 0.358,0.082 0.329,0.11C0.3,0.138 0.254,0.152 0.192,0.152Z" style="fill-rule:nonzero;"/>
                </g>
                <g transform="matrix(41.6667,0,0,41.6667,422.5,784.094)">
                    <path d="M0.327,0.015C0.243,0.015 0.179,-0.008 0.136,-0.054C0.092,-0.099 0.07,-0.166 0.07,-0.254C0.07,-0.338 0.091,-0.404 0.134,-0.451C0.177,-0.498 0.236,-0.521 0.312,-0.521C0.377,-0.521 0.428,-0.503 0.465,-0.468C0.501,-0.432 0.519,-0.382 0.519,-0.317C0.519,-0.286 0.517,-0.259 0.512,-0.234L0.156,-0.234C0.159,-0.173 0.175,-0.128 0.204,-0.1C0.234,-0.072 0.278,-0.058 0.338,-0.058C0.399,-0.058 0.456,-0.068 0.509,-0.089L0.509,-0.024C0.486,-0.012 0.459,-0.003 0.427,0.004C0.395,0.011 0.362,0.015 0.327,0.015ZM0.438,-0.296C0.439,-0.303 0.439,-0.313 0.439,-0.324C0.439,-0.365 0.428,-0.397 0.406,-0.419C0.384,-0.441 0.352,-0.452 0.31,-0.452C0.264,-0.452 0.228,-0.439 0.202,-0.412C0.176,-0.386 0.161,-0.347 0.156,-0.296L0.438,-0.296Z" style="fill-rule:nonzero;"/>
                </g>
                <g transform="matrix(41.6667,0,0,41.6667,447.5,784.094)">
                    <path d="M0.069,-0.071L0.256,-0.071L0.256,-0.669L0.094,-0.669L0.094,-0.74L0.345,-0.74L0.345,-0.071L0.521,-0.071L0.521,-0L0.069,-0L0.069,-0.071Z" style="fill-rule:nonzero;"/>
                </g>
                <g transform="matrix(41.6667,0,0,41.6667,472.5,784.094)">
                    <path d="M0.294,0.015C0.255,0.015 0.217,0.011 0.181,0.003C0.144,-0.005 0.113,-0.016 0.086,-0.031L0.086,-0.101C0.116,-0.088 0.149,-0.077 0.186,-0.07C0.223,-0.063 0.259,-0.059 0.295,-0.059C0.337,-0.059 0.37,-0.066 0.393,-0.079C0.416,-0.092 0.427,-0.111 0.427,-0.135C0.427,-0.154 0.42,-0.169 0.406,-0.18C0.391,-0.191 0.366,-0.2 0.331,-0.209L0.243,-0.23C0.191,-0.242 0.153,-0.26 0.128,-0.283C0.102,-0.307 0.09,-0.338 0.09,-0.376C0.09,-0.422 0.108,-0.458 0.145,-0.483C0.182,-0.508 0.233,-0.521 0.298,-0.521C0.331,-0.521 0.366,-0.517 0.402,-0.509C0.437,-0.502 0.466,-0.493 0.488,-0.482L0.488,-0.414C0.46,-0.424 0.429,-0.432 0.394,-0.438C0.359,-0.444 0.327,-0.447 0.298,-0.447C0.259,-0.447 0.229,-0.441 0.207,-0.429C0.187,-0.417 0.176,-0.4 0.176,-0.378C0.176,-0.36 0.183,-0.346 0.197,-0.335C0.211,-0.324 0.237,-0.315 0.274,-0.306L0.363,-0.285C0.416,-0.272 0.455,-0.254 0.479,-0.231C0.503,-0.208 0.515,-0.177 0.515,-0.138C0.515,-0.091 0.495,-0.054 0.456,-0.027C0.416,0.001 0.362,0.015 0.294,0.015Z" style="fill-rule:nonzero;"/>
                </g>
                <g transform="matrix(41.6667,0,0,41.6667,497.5,784.094)">
                    <path d="M0.327,0.015C0.243,0.015 0.179,-0.008 0.136,-0.054C0.092,-0.099 0.07,-0.166 0.07,-0.254C0.07,-0.338 0.091,-0.404 0.134,-0.451C0.177,-0.498 0.236,-0.521 0.312,-0.521C0.377,-0.521 0.428,-0.503 0.465,-0.468C0.501,-0.432 0.519,-0.382 0.519,-0.317C0.519,-0.286 0.517,-0.259 0.512,-0.234L0.156,-0.234C0.159,-0.173 0.175,-0.128 0.204,-0.1C0.234,-0.072 0.278,-0.058 0.338,-0.058C0.399,-0.058 0.456,-0.068 0.509,-0.089L0.509,-0.024C0.486,-0.012 0.459,-0.003 0.427,0.004C0.395,0.011 0.362,0.015 0.327,0.015ZM0.438,-0.296C0.439,-0.303 0.439,-0.313 0.439,-0.324C0.439,-0.365 0.428,-0.397 0.406,-0.419C0.384,-0.441 0.352,-0.452 0.31,-0.452C0.264,-0.452 0.228,-0.439 0.202,-0.412C0.176,-0.386 0.161,-0.347 0.156,-0.296L0.438,-0.296Z" style="fill-rule:nonzero;"/>
                </g>
                <g transform="matrix(41.6667,0,0,41.6667,547.5,784.094)">
                    <path d="M0.408,0.152C0.346,0.152 0.3,0.138 0.271,0.11C0.242,0.082 0.227,0.039 0.227,-0.02L0.227,-0.174C0.227,-0.207 0.221,-0.231 0.209,-0.246C0.197,-0.26 0.176,-0.267 0.145,-0.267L0.108,-0.267L0.108,-0.343L0.145,-0.343C0.176,-0.343 0.197,-0.35 0.209,-0.365C0.221,-0.379 0.227,-0.403 0.227,-0.436L0.227,-0.59C0.227,-0.649 0.242,-0.692 0.271,-0.72C0.3,-0.748 0.346,-0.762 0.408,-0.762C0.427,-0.762 0.447,-0.76 0.469,-0.755C0.49,-0.751 0.506,-0.746 0.517,-0.74L0.517,-0.673C0.48,-0.684 0.446,-0.689 0.416,-0.689C0.381,-0.689 0.357,-0.682 0.342,-0.667C0.327,-0.652 0.319,-0.627 0.319,-0.594L0.319,-0.439C0.319,-0.403 0.313,-0.374 0.301,-0.351C0.288,-0.329 0.27,-0.313 0.246,-0.306C0.295,-0.288 0.319,-0.243 0.319,-0.171L0.319,-0.016C0.319,0.017 0.327,0.041 0.342,0.056C0.357,0.071 0.381,0.079 0.416,0.079C0.446,0.079 0.48,0.074 0.517,0.063L0.517,0.13C0.506,0.136 0.49,0.141 0.469,0.145C0.447,0.15 0.427,0.152 0.408,0.152Z" style="fill-rule:nonzero;"/>
                </g>
            </g>
        </g>
        <g id="Do-Something-Else" serif:id="Do Something Else">
            <g transform="matrix(1,0,0,0.888889,-157.935,-201.087)">
                <g transform="matrix(1,-0,-0,1.125,147.935,198.098)">
                    <path d="M278.75,52.5L260,90L241.25,52.5L260,71.25L278.75,52.5Z"/>
                    <path d="M260,25L260,71.25" style="fill:none;stroke:black;stroke-width:4.17px;"/>
                </g>
            </g>
            <g transform="matrix(1.035,0,0,1.23214,115,368.929)">
                <rect x="347.826" y="134.783" width="289.855" height="81.159" style="fill:rgb(231,232,233);stroke:rgb(35,31,32);stroke-width:3.66px;"/>
            </g>
            <g transform="matrix(1,-5.32963e-32,0,1,227.5,-208.261)">
                <g transform="matrix(41.6667,0,0,41.6667,268.708,784.094)">
                    <path d="M0.043,-0L0.178,-0.693L0.396,-0.693C0.48,-0.693 0.546,-0.669 0.595,-0.621C0.644,-0.573 0.668,-0.508 0.668,-0.425C0.668,-0.347 0.652,-0.276 0.62,-0.212C0.588,-0.147 0.543,-0.096 0.484,-0.058C0.425,-0.019 0.359,-0 0.285,-0L0.043,-0ZM0.262,-0.615L0.158,-0.078L0.282,-0.078C0.335,-0.078 0.383,-0.092 0.426,-0.12C0.469,-0.148 0.502,-0.188 0.528,-0.24C0.553,-0.292 0.565,-0.352 0.565,-0.42C0.565,-0.481 0.55,-0.529 0.519,-0.564C0.488,-0.598 0.446,-0.615 0.391,-0.615L0.262,-0.615Z" style="fill-rule:nonzero;"/>
                </g>
                <g transform="matrix(41.6667,0,0,41.6667,297.833,784.094)">
                    <path d="M0.225,0.015C0.166,0.015 0.119,-0.003 0.085,-0.039C0.05,-0.075 0.033,-0.124 0.033,-0.186C0.033,-0.247 0.045,-0.303 0.069,-0.354C0.092,-0.405 0.126,-0.445 0.169,-0.476C0.212,-0.507 0.26,-0.522 0.314,-0.522C0.373,-0.522 0.42,-0.504 0.455,-0.468C0.489,-0.432 0.506,-0.383 0.506,-0.321C0.506,-0.26 0.494,-0.204 0.47,-0.154C0.447,-0.102 0.413,-0.062 0.371,-0.031C0.328,-0 0.279,0.015 0.225,0.015ZM0.233,-0.063C0.266,-0.063 0.295,-0.074 0.322,-0.095C0.348,-0.116 0.369,-0.145 0.385,-0.184C0.4,-0.223 0.408,-0.267 0.408,-0.316C0.408,-0.357 0.399,-0.388 0.382,-0.41C0.364,-0.433 0.339,-0.444 0.306,-0.444C0.273,-0.444 0.244,-0.434 0.218,-0.412C0.191,-0.392 0.17,-0.362 0.155,-0.323C0.139,-0.284 0.131,-0.24 0.131,-0.191C0.131,-0.15 0.14,-0.119 0.158,-0.097C0.175,-0.074 0.2,-0.063 0.233,-0.063Z" style="fill-rule:nonzero;"/>
                </g>
                <g transform="matrix(41.6667,0,0,41.6667,331.208,784.094)">
                    <path d="M0.165,-0.236C0.134,-0.253 0.111,-0.272 0.096,-0.293C0.081,-0.313 0.074,-0.337 0.074,-0.364C0.074,-0.393 0.082,-0.42 0.098,-0.444C0.113,-0.468 0.136,-0.487 0.165,-0.501C0.194,-0.515 0.227,-0.522 0.265,-0.522C0.32,-0.522 0.367,-0.511 0.408,-0.489L0.395,-0.42C0.376,-0.429 0.355,-0.435 0.332,-0.44C0.309,-0.445 0.287,-0.447 0.266,-0.447C0.235,-0.447 0.21,-0.441 0.193,-0.428C0.176,-0.414 0.167,-0.397 0.167,-0.374C0.167,-0.348 0.186,-0.325 0.223,-0.305L0.283,-0.271C0.315,-0.254 0.338,-0.236 0.352,-0.217C0.365,-0.198 0.372,-0.175 0.372,-0.148C0.372,-0.099 0.354,-0.059 0.318,-0.029C0.282,0 0.234,0.015 0.174,0.015C0.143,0.015 0.113,0.012 0.083,0.005C0.052,-0.002 0.026,-0.011 0.005,-0.023L0.019,-0.093C0.041,-0.083 0.067,-0.075 0.096,-0.069C0.125,-0.063 0.151,-0.06 0.176,-0.06C0.208,-0.06 0.233,-0.067 0.251,-0.081C0.269,-0.094 0.278,-0.113 0.278,-0.138C0.278,-0.152 0.274,-0.164 0.266,-0.174C0.257,-0.184 0.243,-0.194 0.223,-0.205L0.165,-0.236Z" style="fill-rule:nonzero;"/>
                </g>
                <g transform="matrix(41.6667,0,0,41.6667,349.125,784.094)">
                    <path d="M0.225,0.015C0.166,0.015 0.119,-0.003 0.085,-0.039C0.05,-0.075 0.033,-0.124 0.033,-0.186C0.033,-0.247 0.045,-0.303 0.069,-0.354C0.092,-0.405 0.126,-0.445 0.169,-0.476C0.212,-0.507 0.26,-0.522 0.314,-0.522C0.373,-0.522 0.42,-0.504 0.455,-0.468C0.489,-0.432 0.506,-0.383 0.506,-0.321C0.506,-0.26 0.494,-0.204 0.47,-0.154C0.447,-0.102 0.413,-0.062 0.371,-0.031C0.328,-0 0.279,0.015 0.225,0.015ZM0.233,-0.063C0.266,-0.063 0.295,-0.074 0.322,-0.095C0.348,-0.116 0.369,-0.145 0.385,-0.184C0.4,-0.223 0.408,-0.267 0.408,-0.316C0.408,-0.357 0.399,-0.388 0.382,-0.41C0.364,-0.433 0.339,-0.444 0.306,-0.444C0.273,-0.444 0.244,-0.434 0.218,-0.412C0.191,-0.392 0.17,-0.362 0.155,-0.323C0.139,-0.284 0.131,-0.24 0.131,-0.191C0.131,-0.15 0.14,-0.119 0.158,-0.097C0.175,-0.074 0.2,-0.063 0.233,-0.063Z" style="fill-rule:nonzero;"/>
                </g>
                <g transform="matrix(41.6667,0,0,41.6667,371.583,784.094)">
                    <path d="M0.671,-0L0.722,-0.262C0.733,-0.315 0.738,-0.353 0.738,-0.376C0.738,-0.421 0.717,-0.444 0.674,-0.444C0.651,-0.444 0.625,-0.435 0.596,-0.418C0.567,-0.4 0.538,-0.375 0.51,-0.344L0.496,-0.264L0.445,-0L0.349,-0L0.4,-0.262C0.411,-0.315 0.416,-0.353 0.416,-0.376C0.416,-0.421 0.395,-0.444 0.352,-0.444C0.329,-0.444 0.303,-0.434 0.274,-0.415C0.245,-0.396 0.217,-0.369 0.189,-0.335L0.123,-0L0.027,-0L0.126,-0.507L0.205,-0.507L0.2,-0.414C0.229,-0.449 0.259,-0.475 0.292,-0.494C0.324,-0.513 0.356,-0.522 0.388,-0.522C0.425,-0.522 0.454,-0.513 0.475,-0.494C0.496,-0.474 0.509,-0.447 0.512,-0.411C0.541,-0.447 0.573,-0.474 0.607,-0.494C0.64,-0.513 0.675,-0.522 0.71,-0.522C0.75,-0.522 0.781,-0.511 0.803,-0.488C0.824,-0.465 0.835,-0.433 0.835,-0.39C0.835,-0.375 0.834,-0.36 0.832,-0.344C0.829,-0.327 0.825,-0.301 0.818,-0.264L0.767,-0L0.671,-0Z" style="fill-rule:nonzero;"/>
                </g>
                <g transform="matrix(41.6667,0,0,41.6667,408.5,784.094)">
                    <path d="M0.415,-0.049C0.352,-0.005 0.28,0.017 0.201,0.017C0.148,0.017 0.106,0.001 0.077,-0.031C0.048,-0.063 0.033,-0.108 0.033,-0.167C0.033,-0.212 0.04,-0.256 0.055,-0.299C0.069,-0.341 0.089,-0.379 0.116,-0.412C0.143,-0.446 0.175,-0.473 0.213,-0.494C0.251,-0.514 0.292,-0.524 0.335,-0.524C0.376,-0.524 0.408,-0.514 0.432,-0.493C0.455,-0.472 0.467,-0.444 0.467,-0.409C0.467,-0.357 0.443,-0.312 0.394,-0.274C0.345,-0.236 0.277,-0.209 0.189,-0.192L0.127,-0.18C0.127,-0.137 0.135,-0.106 0.15,-0.086C0.165,-0.068 0.191,-0.058 0.226,-0.058C0.273,-0.058 0.328,-0.075 0.389,-0.108L0.415,-0.049ZM0.318,-0.45C0.289,-0.45 0.262,-0.442 0.236,-0.425C0.211,-0.408 0.189,-0.384 0.17,-0.353C0.151,-0.322 0.139,-0.286 0.132,-0.245L0.193,-0.259C0.251,-0.272 0.296,-0.291 0.329,-0.316C0.361,-0.341 0.377,-0.369 0.377,-0.4C0.377,-0.415 0.372,-0.428 0.362,-0.437C0.351,-0.446 0.337,-0.45 0.318,-0.45Z" style="fill-rule:nonzero;"/>
                </g>
                <g transform="matrix(41.6667,0,0,41.6667,428.583,784.094)">
                    <path d="M0.34,-0.036C0.322,-0.023 0.301,-0.012 0.277,-0.005C0.253,0.003 0.229,0.007 0.205,0.007C0.12,0.007 0.077,-0.029 0.077,-0.102C0.077,-0.12 0.082,-0.154 0.092,-0.205L0.137,-0.431L0.045,-0.431L0.057,-0.493L0.154,-0.505L0.197,-0.649L0.275,-0.649L0.247,-0.507L0.394,-0.507L0.38,-0.431L0.233,-0.431L0.19,-0.211C0.181,-0.164 0.176,-0.133 0.176,-0.118C0.176,-0.101 0.18,-0.089 0.189,-0.082C0.198,-0.075 0.212,-0.071 0.232,-0.071C0.259,-0.071 0.288,-0.078 0.318,-0.092L0.34,-0.036Z" style="fill-rule:nonzero;"/>
                </g>
                <g transform="matrix(41.6667,0,0,41.6667,444.667,784.094)">
                    <path d="M0.204,-0.416C0.235,-0.451 0.267,-0.477 0.3,-0.495C0.333,-0.513 0.365,-0.522 0.398,-0.522C0.439,-0.522 0.471,-0.511 0.494,-0.488C0.517,-0.465 0.528,-0.433 0.528,-0.39C0.528,-0.375 0.527,-0.36 0.525,-0.344C0.522,-0.327 0.518,-0.301 0.511,-0.264L0.46,-0L0.364,-0L0.415,-0.262C0.426,-0.315 0.431,-0.353 0.431,-0.376C0.431,-0.421 0.408,-0.444 0.362,-0.444C0.337,-0.444 0.31,-0.434 0.279,-0.414C0.248,-0.394 0.217,-0.367 0.187,-0.332L0.123,-0L0.027,-0L0.171,-0.74L0.267,-0.74L0.204,-0.416Z" style="fill-rule:nonzero;"/>
                </g>
                <g transform="matrix(41.6667,0,0,41.6667,468.792,784.094)">
                    <path d="M0.198,-0.597C0.181,-0.597 0.167,-0.601 0.158,-0.61C0.148,-0.619 0.143,-0.631 0.143,-0.648C0.143,-0.667 0.15,-0.684 0.164,-0.697C0.177,-0.71 0.194,-0.717 0.214,-0.717C0.231,-0.717 0.245,-0.713 0.255,-0.704C0.264,-0.695 0.269,-0.683 0.269,-0.666C0.269,-0.647 0.262,-0.63 0.249,-0.617C0.235,-0.604 0.218,-0.597 0.198,-0.597ZM0.031,-0L0.13,-0.507L0.226,-0.507L0.127,-0L0.031,-0Z" style="fill-rule:nonzero;"/>
                </g>
                <g transform="matrix(41.6667,0,0,41.6667,479.333,784.094)">
                    <path d="M0.364,-0L0.415,-0.262C0.426,-0.315 0.431,-0.353 0.431,-0.376C0.431,-0.421 0.408,-0.444 0.362,-0.444C0.337,-0.444 0.31,-0.434 0.279,-0.414C0.248,-0.395 0.218,-0.368 0.189,-0.333L0.123,-0L0.027,-0L0.126,-0.507L0.205,-0.507L0.2,-0.412C0.23,-0.447 0.262,-0.474 0.297,-0.494C0.331,-0.513 0.365,-0.522 0.398,-0.522C0.439,-0.522 0.471,-0.511 0.494,-0.488C0.517,-0.465 0.528,-0.433 0.528,-0.39C0.528,-0.375 0.527,-0.36 0.525,-0.344C0.522,-0.327 0.518,-0.301 0.511,-0.264L0.46,-0L0.364,-0Z" style="fill-rule:nonzero;"/>
                </g>
                <g transform="matrix(41.6667,0,0,41.6667,503.458,784.094)">
                    <path d="M0.35,-0.112C0.323,-0.079 0.294,-0.053 0.263,-0.035C0.231,-0.016 0.199,-0.007 0.168,-0.007C0.125,-0.007 0.091,-0.021 0.068,-0.05C0.045,-0.078 0.033,-0.118 0.033,-0.17C0.033,-0.229 0.046,-0.285 0.073,-0.338C0.1,-0.391 0.137,-0.435 0.184,-0.47C0.231,-0.505 0.282,-0.522 0.339,-0.522C0.366,-0.522 0.395,-0.518 0.428,-0.511C0.46,-0.504 0.49,-0.494 0.518,-0.482L0.436,-0.061C0.418,0.031 0.384,0.1 0.334,0.147C0.283,0.194 0.218,0.218 0.137,0.218C0.083,0.218 0.034,0.206 -0.01,0.181L0.005,0.109C0.051,0.129 0.095,0.139 0.138,0.139C0.196,0.139 0.241,0.122 0.273,0.089C0.305,0.056 0.328,0.003 0.342,-0.07L0.35,-0.112ZM0.203,-0.085C0.227,-0.085 0.253,-0.095 0.281,-0.116C0.31,-0.136 0.339,-0.165 0.368,-0.203L0.414,-0.434C0.383,-0.441 0.358,-0.445 0.338,-0.445C0.302,-0.445 0.268,-0.433 0.237,-0.41C0.206,-0.387 0.18,-0.355 0.16,-0.314C0.14,-0.273 0.13,-0.228 0.13,-0.18C0.13,-0.117 0.154,-0.085 0.203,-0.085Z" style="fill-rule:nonzero;"/>
                </g>
                <g transform="matrix(41.6667,0,0,41.6667,362.562,825.761)">
                    <path d="M0.415,-0.049C0.352,-0.005 0.28,0.017 0.201,0.017C0.148,0.017 0.106,0.001 0.077,-0.031C0.048,-0.063 0.033,-0.108 0.033,-0.167C0.033,-0.212 0.04,-0.256 0.055,-0.299C0.069,-0.341 0.089,-0.379 0.116,-0.412C0.143,-0.446 0.175,-0.473 0.213,-0.494C0.251,-0.514 0.292,-0.524 0.335,-0.524C0.376,-0.524 0.408,-0.514 0.432,-0.493C0.455,-0.472 0.467,-0.444 0.467,-0.409C0.467,-0.357 0.443,-0.312 0.394,-0.274C0.345,-0.236 0.277,-0.209 0.189,-0.192L0.127,-0.18C0.127,-0.137 0.135,-0.106 0.15,-0.086C0.165,-0.068 0.191,-0.058 0.226,-0.058C0.273,-0.058 0.328,-0.075 0.389,-0.108L0.415,-0.049ZM0.318,-0.45C0.289,-0.45 0.262,-0.442 0.236,-0.425C0.211,-0.408 0.189,-0.384 0.17,-0.353C0.151,-0.322 0.139,-0.286 0.132,-0.245L0.193,-0.259C0.251,-0.272 0.296,-0.291 0.329,-0.316C0.361,-0.341 0.377,-0.369 0.377,-0.4C0.377,-0.415 0.372,-0.428 0.362,-0.437C0.351,-0.446 0.337,-0.45 0.318,-0.45Z" style="fill-rule:nonzero;"/>
                </g>
                <g transform="matrix(41.6667,0,0,41.6667,382.646,825.761)">
                    <path d="M0.242,-0.02C0.213,-0.003 0.181,0.005 0.146,0.005C0.115,0.005 0.092,-0.003 0.075,-0.02C0.058,-0.036 0.05,-0.059 0.05,-0.09C0.05,-0.111 0.054,-0.138 0.061,-0.173L0.171,-0.74L0.267,-0.74L0.157,-0.173C0.15,-0.139 0.147,-0.116 0.147,-0.103C0.147,-0.093 0.15,-0.085 0.157,-0.08C0.163,-0.074 0.172,-0.071 0.183,-0.071C0.197,-0.071 0.21,-0.073 0.222,-0.077L0.242,-0.02Z" style="fill-rule:nonzero;"/>
                </g>
                <g transform="matrix(41.6667,0,0,41.6667,394.437,825.761)">
                    <path d="M0.165,-0.236C0.134,-0.253 0.111,-0.272 0.096,-0.293C0.081,-0.313 0.074,-0.337 0.074,-0.364C0.074,-0.393 0.082,-0.42 0.098,-0.444C0.113,-0.468 0.136,-0.487 0.165,-0.501C0.194,-0.515 0.227,-0.522 0.265,-0.522C0.32,-0.522 0.367,-0.511 0.408,-0.489L0.395,-0.42C0.376,-0.429 0.355,-0.435 0.332,-0.44C0.309,-0.445 0.287,-0.447 0.266,-0.447C0.235,-0.447 0.21,-0.441 0.193,-0.428C0.176,-0.414 0.167,-0.397 0.167,-0.374C0.167,-0.348 0.186,-0.325 0.223,-0.305L0.283,-0.271C0.315,-0.254 0.338,-0.236 0.352,-0.217C0.365,-0.198 0.372,-0.175 0.372,-0.148C0.372,-0.099 0.354,-0.059 0.318,-0.029C0.282,0 0.234,0.015 0.174,0.015C0.143,0.015 0.113,0.012 0.083,0.005C0.052,-0.002 0.026,-0.011 0.005,-0.023L0.019,-0.093C0.041,-0.083 0.067,-0.075 0.096,-0.069C0.125,-0.063 0.151,-0.06 0.176,-0.06C0.208,-0.06 0.233,-0.067 0.251,-0.081C0.269,-0.094 0.278,-0.113 0.278,-0.138C0.278,-0.152 0.274,-0.164 0.266,-0.174C0.257,-0.184 0.243,-0.194 0.223,-0.205L0.165,-0.236Z" style="fill-rule:nonzero;"/>
                </g>
                <g transform="matrix(41.6667,0,0,41.6667,412.354,825.761)">
                    <path d="M0.415,-0.049C0.352,-0.005 0.28,0.017 0.201,0.017C0.148,0.017 0.106,0.001 0.077,-0.031C0.048,-0.063 0.033,-0.108 0.033,-0.167C0.033,-0.212 0.04,-0.256 0.055,-0.299C0.069,-0.341 0.089,-0.379 0.116,-0.412C0.143,-0.446 0.175,-0.473 0.213,-0.494C0.251,-0.514 0.292,-0.524 0.335,-0.524C0.376,-0.524 0.408,-0.514 0.432,-0.493C0.455,-0.472 0.467,-0.444 0.467,-0.409C0.467,-0.357 0.443,-0.312 0.394,-0.274C0.345,-0.236 0.277,-0.209 0.189,-0.192L0.127,-0.18C0.127,-0.137 0.135,-0.106 0.15,-0.086C0.165,-0.068 0.191,-0.058 0.226,-0.058C0.273,-0.058 0.328,-0.075 0.389,-0.108L0.415,-0.049ZM0.318,-0.45C0.289,-0.45 0.262,-0.442 0.236,-0.425C0.211,-0.408 0.189,-0.384 0.17,-0.353C0.151,-0.322 0.139,-0.286 0.132,-0.245L0.193,-0.259C0.251,-0.272 0.296,-0.291 0.329,-0.316C0.361,-0.341 0.377,-0.369 0.377,-0.4C0.377,-0.415 0.372,-0.428 0.362,-0.437C0.351,-0.446 0.337,-0.45 0.318,-0.45Z" style="fill-rule:nonzero;"/>
                </g>
            </g>
            <g transform="matrix(1,0,0,1.54386,217.065,520.217)">
                <g transform="matrix(1,-0,-0,0.647727,-227.065,-353.152)">
                    <path d="M653.75,862.5L635,900L616.25,862.5L635,881.25L653.75,862.5Z"/>
                    <path d="M635,660L635,881.25" style="fill:none;stroke:black;stroke-width:4.17px;"/>
                </g>
            </g>
        </g>
        <g id="else-if-statement" serif:id="else if statement" transform="matrix(1,0,0,1,-100,65)">
            <g transform="matrix(1.04308,0,0,0.94359,-61.2245,-15.6924)">
                <path d="M394.239,334.565L585.978,461.739L394.239,588.913L202.5,461.739L394.239,334.565Z" style="fill:rgb(235,235,235);stroke:black;stroke-width:4.19px;"/>
            </g>
            <g transform="matrix(1,-6.00063e-18,-5.76984e-18,1,-37.5,-365.261)">
                <g transform="matrix(37.5,0,0,37.5,247.5,781.011)">
                    <path d="M0.192,0.152C0.173,0.152 0.153,0.15 0.132,0.145C0.11,0.141 0.094,0.136 0.083,0.13L0.083,0.063C0.12,0.074 0.154,0.079 0.184,0.079C0.219,0.079 0.244,0.071 0.259,0.056C0.274,0.041 0.281,0.017 0.281,-0.016L0.281,-0.171C0.281,-0.244 0.305,-0.289 0.353,-0.306C0.305,-0.321 0.281,-0.366 0.281,-0.439L0.281,-0.594C0.281,-0.627 0.274,-0.652 0.259,-0.667C0.244,-0.682 0.219,-0.689 0.184,-0.689C0.154,-0.689 0.12,-0.684 0.083,-0.673L0.083,-0.74C0.094,-0.746 0.11,-0.751 0.132,-0.755C0.153,-0.76 0.173,-0.762 0.192,-0.762C0.254,-0.762 0.3,-0.748 0.329,-0.72C0.358,-0.692 0.373,-0.649 0.373,-0.59L0.373,-0.436C0.373,-0.403 0.379,-0.379 0.391,-0.365C0.403,-0.35 0.424,-0.343 0.455,-0.343L0.492,-0.343L0.492,-0.267L0.455,-0.267C0.424,-0.267 0.403,-0.26 0.391,-0.246C0.379,-0.231 0.373,-0.207 0.373,-0.174L0.373,-0.02C0.373,0.039 0.358,0.082 0.329,0.11C0.3,0.138 0.254,0.152 0.192,0.152Z" style="fill-rule:nonzero;"/>
                </g>
                <g transform="matrix(37.5,0,0,37.5,292.5,781.011)">
                    <path d="M0.327,0.015C0.243,0.015 0.179,-0.008 0.136,-0.054C0.092,-0.099 0.07,-0.166 0.07,-0.254C0.07,-0.338 0.091,-0.404 0.134,-0.451C0.177,-0.498 0.236,-0.521 0.312,-0.521C0.377,-0.521 0.428,-0.503 0.465,-0.468C0.501,-0.432 0.519,-0.382 0.519,-0.317C0.519,-0.286 0.517,-0.259 0.512,-0.234L0.156,-0.234C0.159,-0.173 0.175,-0.128 0.204,-0.1C0.234,-0.072 0.278,-0.058 0.338,-0.058C0.399,-0.058 0.456,-0.068 0.509,-0.089L0.509,-0.024C0.486,-0.012 0.459,-0.003 0.427,0.004C0.395,0.011 0.362,0.015 0.327,0.015ZM0.438,-0.296C0.439,-0.303 0.439,-0.313 0.439,-0.324C0.439,-0.365 0.428,-0.397 0.406,-0.419C0.384,-0.441 0.352,-0.452 0.31,-0.452C0.264,-0.452 0.228,-0.439 0.202,-0.412C0.176,-0.386 0.161,-0.347 0.156,-0.296L0.438,-0.296Z" style="fill-rule:nonzero;"/>
                </g>
                <g transform="matrix(37.5,0,0,37.5,315,781.011)">
                    <path d="M0.069,-0.071L0.256,-0.071L0.256,-0.669L0.094,-0.669L0.094,-0.74L0.345,-0.74L0.345,-0.071L0.521,-0.071L0.521,-0L0.069,-0L0.069,-0.071Z" style="fill-rule:nonzero;"/>
                </g>
                <g transform="matrix(37.5,0,0,37.5,337.5,781.011)">
                    <path d="M0.294,0.015C0.255,0.015 0.217,0.011 0.181,0.003C0.144,-0.005 0.113,-0.016 0.086,-0.031L0.086,-0.101C0.116,-0.088 0.149,-0.077 0.186,-0.07C0.223,-0.063 0.259,-0.059 0.295,-0.059C0.337,-0.059 0.37,-0.066 0.393,-0.079C0.416,-0.092 0.427,-0.111 0.427,-0.135C0.427,-0.154 0.42,-0.169 0.406,-0.18C0.391,-0.191 0.366,-0.2 0.331,-0.209L0.243,-0.23C0.191,-0.242 0.153,-0.26 0.128,-0.283C0.102,-0.307 0.09,-0.338 0.09,-0.376C0.09,-0.422 0.108,-0.458 0.145,-0.483C0.182,-0.508 0.233,-0.521 0.298,-0.521C0.331,-0.521 0.366,-0.517 0.402,-0.509C0.437,-0.502 0.466,-0.493 0.488,-0.482L0.488,-0.414C0.46,-0.424 0.429,-0.432 0.394,-0.438C0.359,-0.444 0.327,-0.447 0.298,-0.447C0.259,-0.447 0.229,-0.441 0.207,-0.429C0.187,-0.417 0.176,-0.4 0.176,-0.378C0.176,-0.36 0.183,-0.346 0.197,-0.335C0.211,-0.324 0.237,-0.315 0.274,-0.306L0.363,-0.285C0.416,-0.272 0.455,-0.254 0.479,-0.231C0.503,-0.208 0.515,-0.177 0.515,-0.138C0.515,-0.091 0.495,-0.054 0.456,-0.027C0.416,0.001 0.362,0.015 0.294,0.015Z" style="fill-rule:nonzero;"/>
                </g>
                <g transform="matrix(37.5,0,0,37.5,360,781.011)">
                    <path d="M0.327,0.015C0.243,0.015 0.179,-0.008 0.136,-0.054C0.092,-0.099 0.07,-0.166 0.07,-0.254C0.07,-0.338 0.091,-0.404 0.134,-0.451C0.177,-0.498 0.236,-0.521 0.312,-0.521C0.377,-0.521 0.428,-0.503 0.465,-0.468C0.501,-0.432 0.519,-0.382 0.519,-0.317C0.519,-0.286 0.517,-0.259 0.512,-0.234L0.156,-0.234C0.159,-0.173 0.175,-0.128 0.204,-0.1C0.234,-0.072 0.278,-0.058 0.338,-0.058C0.399,-0.058 0.456,-0.068 0.509,-0.089L0.509,-0.024C0.486,-0.012 0.459,-0.003 0.427,0.004C0.395,0.011 0.362,0.015 0.327,0.015ZM0.438,-0.296C0.439,-0.303 0.439,-0.313 0.439,-0.324C0.439,-0.365 0.428,-0.397 0.406,-0.419C0.384,-0.441 0.352,-0.452 0.31,-0.452C0.264,-0.452 0.228,-0.439 0.202,-0.412C0.176,-0.386 0.161,-0.347 0.156,-0.296L0.438,-0.296Z" style="fill-rule:nonzero;"/>
                </g>
                <g transform="matrix(37.5,0,0,37.5,405,781.011)">
                    <path d="M0.077,-0.071L0.264,-0.071L0.264,-0.436L0.111,-0.436L0.111,-0.507L0.353,-0.507L0.353,-0.071L0.529,-0.071L0.529,-0L0.077,-0L0.077,-0.071ZM0.292,-0.596C0.273,-0.596 0.257,-0.602 0.245,-0.614C0.233,-0.625 0.227,-0.641 0.227,-0.66C0.227,-0.68 0.233,-0.696 0.245,-0.708C0.257,-0.719 0.273,-0.725 0.292,-0.725C0.312,-0.725 0.328,-0.719 0.34,-0.708C0.352,-0.696 0.358,-0.68 0.358,-0.66C0.358,-0.641 0.352,-0.625 0.34,-0.614C0.328,-0.602 0.312,-0.596 0.292,-0.596Z" style="fill-rule:nonzero;"/>
                </g>
                <g transform="matrix(37.5,0,0,37.5,427.5,781.011)">
                    <path d="M0.207,-0.436L0.057,-0.436L0.057,-0.497L0.207,-0.506L0.207,-0.558C0.207,-0.626 0.223,-0.676 0.254,-0.707C0.284,-0.738 0.334,-0.754 0.401,-0.754C0.426,-0.754 0.453,-0.751 0.482,-0.746C0.51,-0.741 0.533,-0.734 0.551,-0.726L0.551,-0.659C0.5,-0.674 0.453,-0.681 0.411,-0.681C0.368,-0.681 0.338,-0.673 0.321,-0.656C0.304,-0.639 0.296,-0.607 0.296,-0.561L0.296,-0.507L0.517,-0.507L0.517,-0.436L0.296,-0.436L0.296,-0L0.207,-0L0.207,-0.436Z" style="fill-rule:nonzero;"/>
                </g>
            </g>
            <g transform="matrix(1,0,0,1,-77.5,-330.261)">
                <g transform="matrix(37.5,0,0,37.5,292.5,781.011)">
                    <path d="M0.352,0.144C0.285,0.093 0.233,0.028 0.195,-0.052C0.157,-0.132 0.138,-0.216 0.138,-0.305C0.138,-0.394 0.157,-0.478 0.195,-0.558C0.233,-0.638 0.285,-0.703 0.352,-0.754L0.452,-0.754C0.383,-0.699 0.329,-0.632 0.29,-0.553C0.251,-0.474 0.232,-0.391 0.232,-0.305C0.232,-0.219 0.251,-0.136 0.29,-0.057C0.329,0.022 0.383,0.089 0.452,0.144L0.352,0.144Z" style="fill-rule:nonzero;"/>
                </g>
                <g transform="matrix(37.5,0,0,37.5,315,781.011)">
                    <path d="M0.348,0.011C0.171,0.011 0.083,-0.076 0.083,-0.25C0.083,-0.336 0.106,-0.402 0.151,-0.448C0.196,-0.494 0.262,-0.517 0.347,-0.517C0.377,-0.517 0.407,-0.513 0.437,-0.506C0.466,-0.499 0.49,-0.489 0.509,-0.477L0.509,-0.411C0.458,-0.433 0.407,-0.444 0.356,-0.444C0.294,-0.444 0.248,-0.429 0.219,-0.399C0.189,-0.368 0.174,-0.321 0.174,-0.258L0.174,-0.248C0.174,-0.183 0.189,-0.136 0.22,-0.107C0.25,-0.077 0.298,-0.062 0.364,-0.062C0.414,-0.062 0.464,-0.074 0.514,-0.098L0.514,-0.031C0.492,-0.018 0.467,-0.007 0.438,-0C0.409,0.007 0.379,0.011 0.348,0.011Z" style="fill-rule:nonzero;"/>
                </g>
                <g transform="matrix(37.5,0,0,37.5,337.5,781.011)">
                    <path d="M0.3,0.015C0.223,0.015 0.164,-0.009 0.121,-0.056C0.078,-0.103 0.057,-0.169 0.057,-0.253C0.057,-0.337 0.078,-0.403 0.121,-0.45C0.164,-0.497 0.223,-0.521 0.3,-0.521C0.377,-0.521 0.436,-0.497 0.479,-0.45C0.522,-0.403 0.543,-0.337 0.543,-0.253C0.543,-0.169 0.522,-0.103 0.479,-0.056C0.436,-0.009 0.377,0.015 0.3,0.015ZM0.3,-0.058C0.35,-0.058 0.388,-0.074 0.413,-0.107C0.439,-0.14 0.452,-0.188 0.452,-0.253C0.452,-0.383 0.401,-0.448 0.3,-0.448C0.199,-0.448 0.148,-0.383 0.148,-0.253C0.148,-0.188 0.161,-0.14 0.187,-0.107C0.212,-0.074 0.25,-0.058 0.3,-0.058Z" style="fill-rule:nonzero;"/>
                </g>
                <g transform="matrix(37.5,0,0,37.5,360,781.011)">
                    <path d="M0.085,-0.507L0.16,-0.507L0.169,-0.449C0.234,-0.497 0.302,-0.521 0.372,-0.521C0.42,-0.521 0.457,-0.508 0.483,-0.482C0.508,-0.455 0.521,-0.418 0.521,-0.369L0.521,-0L0.432,-0L0.432,-0.338C0.432,-0.376 0.425,-0.404 0.409,-0.422C0.395,-0.44 0.371,-0.449 0.338,-0.449C0.285,-0.449 0.23,-0.431 0.174,-0.394L0.174,-0L0.085,-0L0.085,-0.507Z" style="fill-rule:nonzero;"/>
                </g>
                <g transform="matrix(37.5,0,0,37.5,382.5,781.011)">
                    <path d="M0.272,0.015C0.205,0.015 0.153,-0.009 0.115,-0.056C0.077,-0.102 0.058,-0.167 0.058,-0.25C0.058,-0.333 0.078,-0.399 0.117,-0.448C0.156,-0.497 0.208,-0.521 0.274,-0.521C0.303,-0.521 0.329,-0.516 0.354,-0.507C0.378,-0.498 0.402,-0.483 0.425,-0.462L0.425,-0.74L0.514,-0.74L0.514,-0L0.435,-0L0.427,-0.048C0.405,-0.028 0.381,-0.013 0.354,-0.002C0.327,0.009 0.3,0.015 0.272,0.015ZM0.298,-0.058C0.337,-0.058 0.38,-0.075 0.425,-0.108L0.425,-0.398C0.402,-0.416 0.381,-0.429 0.36,-0.437C0.339,-0.444 0.317,-0.448 0.292,-0.448C0.245,-0.448 0.209,-0.432 0.185,-0.399C0.161,-0.366 0.149,-0.318 0.149,-0.254C0.149,-0.191 0.162,-0.142 0.188,-0.109C0.213,-0.075 0.25,-0.058 0.298,-0.058Z" style="fill-rule:nonzero;"/>
                </g>
                <g transform="matrix(37.5,0,0,37.5,405,781.011)">
                    <path d="M0.077,-0.071L0.264,-0.071L0.264,-0.436L0.111,-0.436L0.111,-0.507L0.353,-0.507L0.353,-0.071L0.529,-0.071L0.529,-0L0.077,-0L0.077,-0.071ZM0.292,-0.596C0.273,-0.596 0.257,-0.602 0.245,-0.614C0.233,-0.625 0.227,-0.641 0.227,-0.66C0.227,-0.68 0.233,-0.696 0.245,-0.708C0.257,-0.719 0.273,-0.725 0.292,-0.725C0.312,-0.725 0.328,-0.719 0.34,-0.708C0.352,-0.696 0.358,-0.68 0.358,-0.66C0.358,-0.641 0.352,-0.625 0.34,-0.614C0.328,-0.602 0.312,-0.596 0.292,-0.596Z" style="fill-rule:nonzero;"/>
                </g>
                <g transform="matrix(37.5,0,0,37.5,427.5,781.011)">
                    <path d="M0.343,0.01C0.286,0.01 0.245,-0.003 0.22,-0.028C0.195,-0.053 0.182,-0.095 0.182,-0.152L0.182,-0.436L0.056,-0.436L0.056,-0.497L0.184,-0.506L0.198,-0.664L0.271,-0.664L0.271,-0.507L0.503,-0.507L0.503,-0.436L0.271,-0.436L0.271,-0.161C0.271,-0.125 0.278,-0.1 0.292,-0.085C0.305,-0.07 0.329,-0.063 0.363,-0.063C0.386,-0.063 0.41,-0.065 0.436,-0.07C0.462,-0.074 0.486,-0.08 0.508,-0.087L0.508,-0.022C0.489,-0.013 0.465,-0.005 0.435,0.001C0.404,0.007 0.374,0.01 0.343,0.01Z" style="fill-rule:nonzero;"/>
                </g>
                <g transform="matrix(37.5,0,0,37.5,450,781.011)">
                    <path d="M0.077,-0.071L0.264,-0.071L0.264,-0.436L0.111,-0.436L0.111,-0.507L0.353,-0.507L0.353,-0.071L0.529,-0.071L0.529,-0L0.077,-0L0.077,-0.071ZM0.292,-0.596C0.273,-0.596 0.257,-0.602 0.245,-0.614C0.233,-0.625 0.227,-0.641 0.227,-0.66C0.227,-0.68 0.233,-0.696 0.245,-0.708C0.257,-0.719 0.273,-0.725 0.292,-0.725C0.312,-0.725 0.328,-0.719 0.34,-0.708C0.352,-0.696 0.358,-0.68 0.358,-0.66C0.358,-0.641 0.352,-0.625 0.34,-0.614C0.328,-0.602 0.312,-0.596 0.292,-0.596Z" style="fill-rule:nonzero;"/>
                </g>
                <g transform="matrix(37.5,0,0,37.5,472.5,781.011)">
                    <path d="M0.3,0.015C0.223,0.015 0.164,-0.009 0.121,-0.056C0.078,-0.103 0.057,-0.169 0.057,-0.253C0.057,-0.337 0.078,-0.403 0.121,-0.45C0.164,-0.497 0.223,-0.521 0.3,-0.521C0.377,-0.521 0.436,-0.497 0.479,-0.45C0.522,-0.403 0.543,-0.337 0.543,-0.253C0.543,-0.169 0.522,-0.103 0.479,-0.056C0.436,-0.009 0.377,0.015 0.3,0.015ZM0.3,-0.058C0.35,-0.058 0.388,-0.074 0.413,-0.107C0.439,-0.14 0.452,-0.188 0.452,-0.253C0.452,-0.383 0.401,-0.448 0.3,-0.448C0.199,-0.448 0.148,-0.383 0.148,-0.253C0.148,-0.188 0.161,-0.14 0.187,-0.107C0.212,-0.074 0.25,-0.058 0.3,-0.058Z" style="fill-rule:nonzero;"/>
                </g>
                <g transform="matrix(37.5,0,0,37.5,495,781.011)">
                    <path d="M0.085,-0.507L0.16,-0.507L0.169,-0.449C0.234,-0.497 0.302,-0.521 0.372,-0.521C0.42,-0.521 0.457,-0.508 0.483,-0.482C0.508,-0.455 0.521,-0.418 0.521,-0.369L0.521,-0L0.432,-0L0.432,-0.338C0.432,-0.376 0.425,-0.404 0.409,-0.422C0.395,-0.44 0.371,-0.449 0.338,-0.449C0.285,-0.449 0.23,-0.431 0.174,-0.394L0.174,-0L0.085,-0L0.085,-0.507Z" style="fill-rule:nonzero;"/>
                </g>
                <g transform="matrix(37.5,0,0,37.5,517.5,781.011)">
                    <path d="M0.148,0.144C0.217,0.089 0.271,0.022 0.31,-0.057C0.349,-0.136 0.368,-0.219 0.368,-0.305C0.368,-0.391 0.349,-0.474 0.31,-0.553C0.271,-0.632 0.217,-0.699 0.148,-0.754L0.248,-0.754C0.315,-0.703 0.367,-0.638 0.405,-0.558C0.443,-0.478 0.462,-0.394 0.462,-0.305C0.462,-0.216 0.443,-0.132 0.405,-0.052C0.367,0.028 0.315,0.093 0.248,0.144L0.148,0.144Z" style="fill-rule:nonzero;"/>
                </g>
                <g transform="matrix(37.5,0,0,37.5,540,781.011)">
                    <path d="M0.408,0.152C0.346,0.152 0.3,0.138 0.271,0.11C0.242,0.082 0.227,0.039 0.227,-0.02L0.227,-0.174C0.227,-0.207 0.221,-0.231 0.209,-0.246C0.197,-0.26 0.176,-0.267 0.145,-0.267L0.108,-0.267L0.108,-0.343L0.145,-0.343C0.176,-0.343 0.197,-0.35 0.209,-0.365C0.221,-0.379 0.227,-0.403 0.227,-0.436L0.227,-0.59C0.227,-0.649 0.242,-0.692 0.271,-0.72C0.3,-0.748 0.346,-0.762 0.408,-0.762C0.427,-0.762 0.447,-0.76 0.469,-0.755C0.49,-0.751 0.506,-0.746 0.517,-0.74L0.517,-0.673C0.48,-0.684 0.446,-0.689 0.416,-0.689C0.381,-0.689 0.357,-0.682 0.342,-0.667C0.327,-0.652 0.319,-0.627 0.319,-0.594L0.319,-0.439C0.319,-0.403 0.313,-0.374 0.301,-0.351C0.288,-0.329 0.27,-0.313 0.246,-0.306C0.295,-0.288 0.319,-0.243 0.319,-0.171L0.319,-0.016C0.319,0.017 0.327,0.041 0.342,0.056C0.357,0.071 0.381,0.079 0.416,0.079C0.446,0.079 0.48,0.074 0.517,0.063L0.517,0.13C0.506,0.136 0.49,0.141 0.469,0.145C0.447,0.15 0.427,0.152 0.408,0.152Z" style="fill-rule:nonzero;"/>
                </g>
            </g>
            <g transform="matrix(1,0,0,1,312.5,-387.754)">
                <g transform="matrix(50,0,0,50,247.5,790.261)">
                    <path d="M0.343,0.01C0.286,0.01 0.245,-0.003 0.22,-0.028C0.195,-0.053 0.182,-0.095 0.182,-0.152L0.182,-0.436L0.056,-0.436L0.056,-0.497L0.184,-0.506L0.198,-0.664L0.271,-0.664L0.271,-0.507L0.503,-0.507L0.503,-0.436L0.271,-0.436L0.271,-0.161C0.271,-0.125 0.278,-0.1 0.292,-0.085C0.305,-0.07 0.329,-0.063 0.363,-0.063C0.386,-0.063 0.41,-0.065 0.436,-0.07C0.462,-0.074 0.486,-0.08 0.508,-0.087L0.508,-0.022C0.489,-0.013 0.465,-0.005 0.435,0.001C0.404,0.007 0.374,0.01 0.343,0.01Z" style="fill-rule:nonzero;"/>
                </g>
                <g transform="matrix(50,0,0,50,277.5,790.261)">
                    <path d="M0.081,-0L0.081,-0.071L0.208,-0.071L0.208,-0.436L0.082,-0.436L0.082,-0.507L0.283,-0.507L0.294,-0.433C0.318,-0.461 0.343,-0.481 0.369,-0.493C0.395,-0.505 0.425,-0.511 0.46,-0.511C0.473,-0.511 0.486,-0.51 0.5,-0.508C0.514,-0.506 0.525,-0.503 0.533,-0.5L0.533,-0.42C0.51,-0.427 0.483,-0.43 0.452,-0.43C0.417,-0.43 0.388,-0.426 0.365,-0.417C0.341,-0.407 0.318,-0.393 0.297,-0.373L0.297,-0.071L0.463,-0.071L0.463,-0L0.081,-0Z" style="fill-rule:nonzero;"/>
                </g>
                <g transform="matrix(50,0,0,50,307.5,790.261)">
                    <path d="M0.231,0.015C0.184,0.015 0.149,0.002 0.124,-0.024C0.099,-0.05 0.087,-0.087 0.087,-0.136L0.087,-0.507L0.176,-0.507L0.176,-0.167C0.176,-0.13 0.183,-0.102 0.197,-0.085C0.211,-0.068 0.234,-0.059 0.265,-0.059C0.319,-0.059 0.372,-0.077 0.424,-0.112L0.424,-0.507L0.513,-0.507L0.513,-0L0.438,-0L0.429,-0.057C0.366,-0.009 0.3,0.015 0.231,0.015Z" style="fill-rule:nonzero;"/>
                </g>
                <g transform="matrix(50,0,0,50,337.5,790.261)">
                    <path d="M0.327,0.015C0.243,0.015 0.179,-0.008 0.136,-0.054C0.092,-0.099 0.07,-0.166 0.07,-0.254C0.07,-0.338 0.091,-0.404 0.134,-0.451C0.177,-0.498 0.236,-0.521 0.312,-0.521C0.377,-0.521 0.428,-0.503 0.465,-0.468C0.501,-0.432 0.519,-0.382 0.519,-0.317C0.519,-0.286 0.517,-0.259 0.512,-0.234L0.156,-0.234C0.159,-0.173 0.175,-0.128 0.204,-0.1C0.234,-0.072 0.278,-0.058 0.338,-0.058C0.399,-0.058 0.456,-0.068 0.509,-0.089L0.509,-0.024C0.486,-0.012 0.459,-0.003 0.427,0.004C0.395,0.011 0.362,0.015 0.327,0.015ZM0.438,-0.296C0.439,-0.303 0.439,-0.313 0.439,-0.324C0.439,-0.365 0.428,-0.397 0.406,-0.419C0.384,-0.441 0.352,-0.452 0.31,-0.452C0.264,-0.452 0.228,-0.439 0.202,-0.412C0.176,-0.386 0.161,-0.347 0.156,-0.296L0.438,-0.296Z" style="fill-rule:nonzero;"/>
                </g>
            </g>
            <g transform="matrix(1,0,0,1,122.5,-218.261)">
                <g transform="matrix(50,0,0,50,247.5,790.261)">
                    <path d="M0.207,-0.436L0.057,-0.436L0.057,-0.497L0.207,-0.506L0.207,-0.558C0.207,-0.626 0.223,-0.676 0.254,-0.707C0.284,-0.738 0.334,-0.754 0.401,-0.754C0.426,-0.754 0.453,-0.751 0.482,-0.746C0.51,-0.741 0.533,-0.734 0.551,-0.726L0.551,-0.659C0.5,-0.674 0.453,-0.681 0.411,-0.681C0.368,-0.681 0.338,-0.673 0.321,-0.656C0.304,-0.639 0.296,-0.607 0.296,-0.561L0.296,-0.507L0.517,-0.507L0.517,-0.436L0.296,-0.436L0.296,-0L0.207,-0L0.207,-0.436Z" style="fill-rule:nonzero;"/>
                </g>
                <g transform="matrix(50,0,0,50,277.5,790.261)">
                    <path d="M0.241,0.013C0.193,0.013 0.155,-0.001 0.126,-0.028C0.097,-0.055 0.083,-0.09 0.083,-0.135C0.083,-0.184 0.101,-0.223 0.136,-0.252C0.171,-0.281 0.218,-0.295 0.277,-0.295C0.316,-0.295 0.361,-0.288 0.412,-0.275L0.412,-0.348C0.412,-0.385 0.403,-0.41 0.386,-0.426C0.369,-0.441 0.338,-0.448 0.295,-0.448C0.24,-0.448 0.18,-0.438 0.117,-0.417L0.117,-0.483C0.14,-0.494 0.17,-0.503 0.206,-0.51C0.242,-0.518 0.277,-0.521 0.31,-0.521C0.373,-0.521 0.42,-0.508 0.451,-0.483C0.482,-0.457 0.497,-0.417 0.497,-0.364L0.497,-0L0.423,-0L0.415,-0.053C0.388,-0.032 0.36,-0.015 0.33,-0.004C0.3,0.007 0.27,0.013 0.241,0.013ZM0.261,-0.056C0.307,-0.056 0.357,-0.073 0.412,-0.108L0.412,-0.22C0.371,-0.229 0.332,-0.234 0.295,-0.234C0.212,-0.234 0.171,-0.202 0.171,-0.139C0.171,-0.112 0.179,-0.092 0.195,-0.078C0.21,-0.063 0.232,-0.056 0.261,-0.056Z" style="fill-rule:nonzero;"/>
                </g>
                <g transform="matrix(50,0,0,50,307.5,790.261)">
                    <path d="M0.069,-0.071L0.256,-0.071L0.256,-0.669L0.094,-0.669L0.094,-0.74L0.345,-0.74L0.345,-0.071L0.521,-0.071L0.521,-0L0.069,-0L0.069,-0.071Z" style="fill-rule:nonzero;"/>
                </g>
                <g transform="matrix(50,0,0,50,337.5,790.261)">
                    <path d="M0.294,0.015C0.255,0.015 0.217,0.011 0.181,0.003C0.144,-0.005 0.113,-0.016 0.086,-0.031L0.086,-0.101C0.116,-0.088 0.149,-0.077 0.186,-0.07C0.223,-0.063 0.259,-0.059 0.295,-0.059C0.337,-0.059 0.37,-0.066 0.393,-0.079C0.416,-0.092 0.427,-0.111 0.427,-0.135C0.427,-0.154 0.42,-0.169 0.406,-0.18C0.391,-0.191 0.366,-0.2 0.331,-0.209L0.243,-0.23C0.191,-0.242 0.153,-0.26 0.128,-0.283C0.102,-0.307 0.09,-0.338 0.09,-0.376C0.09,-0.422 0.108,-0.458 0.145,-0.483C0.182,-0.508 0.233,-0.521 0.298,-0.521C0.331,-0.521 0.366,-0.517 0.402,-0.509C0.437,-0.502 0.466,-0.493 0.488,-0.482L0.488,-0.414C0.46,-0.424 0.429,-0.432 0.394,-0.438C0.359,-0.444 0.327,-0.447 0.298,-0.447C0.259,-0.447 0.229,-0.441 0.207,-0.429C0.187,-0.417 0.176,-0.4 0.176,-0.378C0.176,-0.36 0.183,-0.346 0.197,-0.335C0.211,-0.324 0.237,-0.315 0.274,-0.306L0.363,-0.285C0.416,-0.272 0.455,-0.254 0.479,-0.231C0.503,-0.208 0.515,-0.177 0.515,-0.138C0.515,-0.091 0.495,-0.054 0.456,-0.027C0.416,0.001 0.362,0.015 0.294,0.015Z" style="fill-rule:nonzero;"/>
                </g>
                <g transform="matrix(50,0,0,50,367.5,790.261)">
                    <path d="M0.327,0.015C0.243,0.015 0.179,-0.008 0.136,-0.054C0.092,-0.099 0.07,-0.166 0.07,-0.254C0.07,-0.338 0.091,-0.404 0.134,-0.451C0.177,-0.498 0.236,-0.521 0.312,-0.521C0.377,-0.521 0.428,-0.503 0.465,-0.468C0.501,-0.432 0.519,-0.382 0.519,-0.317C0.519,-0.286 0.517,-0.259 0.512,-0.234L0.156,-0.234C0.159,-0.173 0.175,-0.128 0.204,-0.1C0.234,-0.072 0.278,-0.058 0.338,-0.058C0.399,-0.058 0.456,-0.068 0.509,-0.089L0.509,-0.024C0.486,-0.012 0.459,-0.003 0.427,0.004C0.395,0.011 0.362,0.015 0.327,0.015ZM0.438,-0.296C0.439,-0.303 0.439,-0.313 0.439,-0.324C0.439,-0.365 0.428,-0.397 0.406,-0.419C0.384,-0.441 0.352,-0.452 0.31,-0.452C0.264,-0.452 0.228,-0.439 0.202,-0.412C0.176,-0.386 0.161,-0.347 0.156,-0.296L0.438,-0.296Z" style="fill-rule:nonzero;"/>
                </g>
            </g>
            <g transform="matrix(1,0,0,0.561404,-57.9348,498.768)">
                <g transform="matrix(1,-0,-0,1.78125,147.935,-1048.74)">
                    <path d="M278.75,653.007L260,690.507L241.25,653.007L260,671.757L278.75,653.007Z"/>
                    <path d="M260,630.507L260,671.757" style="fill:none;stroke:black;stroke-width:4.17px;"/>
                </g>
            </g>
            <g transform="matrix(8.61335e-17,-1,1.25037,5.44288e-17,457.038,827.442)">
                <g transform="matrix(4.35301e-17,0.799763,-1,6.88864e-17,917.442,-293.543)">
                    <path d="M653.75,522.5L635,560L616.25,522.5L635,541.25L653.75,522.5Z"/>
                    <path d="M460,509.507L635,510L635,541.25" style="fill:none;stroke:black;stroke-width:4.17px;"/>
                </g>
            </g>
        </g>
        <g id="Do-Something" serif:id="Do Something">
            <g transform="matrix(1.035,0,0,1.23214,290,68.9286)">
                <rect x="347.826" y="134.783" width="289.855" height="81.159" style="fill:rgb(231,232,233);stroke:rgb(35,31,32);stroke-width:3.66px;"/>
            </g>
            <g transform="matrix(1,-3.55309e-32,0,1,402.5,-488.261)">
                <g transform="matrix(41.6667,0,0,41.6667,268.708,784.094)">
                    <path d="M0.043,-0L0.178,-0.693L0.396,-0.693C0.48,-0.693 0.546,-0.669 0.595,-0.621C0.644,-0.573 0.668,-0.508 0.668,-0.425C0.668,-0.347 0.652,-0.276 0.62,-0.212C0.588,-0.147 0.543,-0.096 0.484,-0.058C0.425,-0.019 0.359,-0 0.285,-0L0.043,-0ZM0.262,-0.615L0.158,-0.078L0.282,-0.078C0.335,-0.078 0.383,-0.092 0.426,-0.12C0.469,-0.148 0.502,-0.188 0.528,-0.24C0.553,-0.292 0.565,-0.352 0.565,-0.42C0.565,-0.481 0.55,-0.529 0.519,-0.564C0.488,-0.598 0.446,-0.615 0.391,-0.615L0.262,-0.615Z" style="fill-rule:nonzero;"/>
                </g>
                <g transform="matrix(41.6667,0,0,41.6667,297.833,784.094)">
                    <path d="M0.225,0.015C0.166,0.015 0.119,-0.003 0.085,-0.039C0.05,-0.075 0.033,-0.124 0.033,-0.186C0.033,-0.247 0.045,-0.303 0.069,-0.354C0.092,-0.405 0.126,-0.445 0.169,-0.476C0.212,-0.507 0.26,-0.522 0.314,-0.522C0.373,-0.522 0.42,-0.504 0.455,-0.468C0.489,-0.432 0.506,-0.383 0.506,-0.321C0.506,-0.26 0.494,-0.204 0.47,-0.154C0.447,-0.102 0.413,-0.062 0.371,-0.031C0.328,-0 0.279,0.015 0.225,0.015ZM0.233,-0.063C0.266,-0.063 0.295,-0.074 0.322,-0.095C0.348,-0.116 0.369,-0.145 0.385,-0.184C0.4,-0.223 0.408,-0.267 0.408,-0.316C0.408,-0.357 0.399,-0.388 0.382,-0.41C0.364,-0.433 0.339,-0.444 0.306,-0.444C0.273,-0.444 0.244,-0.434 0.218,-0.412C0.191,-0.392 0.17,-0.362 0.155,-0.323C0.139,-0.284 0.131,-0.24 0.131,-0.191C0.131,-0.15 0.14,-0.119 0.158,-0.097C0.175,-0.074 0.2,-0.063 0.233,-0.063Z" style="fill-rule:nonzero;"/>
                </g>
                <g transform="matrix(41.6667,0,0,41.6667,331.208,784.094)">
                    <path d="M0.165,-0.236C0.134,-0.253 0.111,-0.272 0.096,-0.293C0.081,-0.313 0.074,-0.337 0.074,-0.364C0.074,-0.393 0.082,-0.42 0.098,-0.444C0.113,-0.468 0.136,-0.487 0.165,-0.501C0.194,-0.515 0.227,-0.522 0.265,-0.522C0.32,-0.522 0.367,-0.511 0.408,-0.489L0.395,-0.42C0.376,-0.429 0.355,-0.435 0.332,-0.44C0.309,-0.445 0.287,-0.447 0.266,-0.447C0.235,-0.447 0.21,-0.441 0.193,-0.428C0.176,-0.414 0.167,-0.397 0.167,-0.374C0.167,-0.348 0.186,-0.325 0.223,-0.305L0.283,-0.271C0.315,-0.254 0.338,-0.236 0.352,-0.217C0.365,-0.198 0.372,-0.175 0.372,-0.148C0.372,-0.099 0.354,-0.059 0.318,-0.029C0.282,0 0.234,0.015 0.174,0.015C0.143,0.015 0.113,0.012 0.083,0.005C0.052,-0.002 0.026,-0.011 0.005,-0.023L0.019,-0.093C0.041,-0.083 0.067,-0.075 0.096,-0.069C0.125,-0.063 0.151,-0.06 0.176,-0.06C0.208,-0.06 0.233,-0.067 0.251,-0.081C0.269,-0.094 0.278,-0.113 0.278,-0.138C0.278,-0.152 0.274,-0.164 0.266,-0.174C0.257,-0.184 0.243,-0.194 0.223,-0.205L0.165,-0.236Z" style="fill-rule:nonzero;"/>
                </g>
                <g transform="matrix(41.6667,0,0,41.6667,349.125,784.094)">
                    <path d="M0.225,0.015C0.166,0.015 0.119,-0.003 0.085,-0.039C0.05,-0.075 0.033,-0.124 0.033,-0.186C0.033,-0.247 0.045,-0.303 0.069,-0.354C0.092,-0.405 0.126,-0.445 0.169,-0.476C0.212,-0.507 0.26,-0.522 0.314,-0.522C0.373,-0.522 0.42,-0.504 0.455,-0.468C0.489,-0.432 0.506,-0.383 0.506,-0.321C0.506,-0.26 0.494,-0.204 0.47,-0.154C0.447,-0.102 0.413,-0.062 0.371,-0.031C0.328,-0 0.279,0.015 0.225,0.015ZM0.233,-0.063C0.266,-0.063 0.295,-0.074 0.322,-0.095C0.348,-0.116 0.369,-0.145 0.385,-0.184C0.4,-0.223 0.408,-0.267 0.408,-0.316C0.408,-0.357 0.399,-0.388 0.382,-0.41C0.364,-0.433 0.339,-0.444 0.306,-0.444C0.273,-0.444 0.244,-0.434 0.218,-0.412C0.191,-0.392 0.17,-0.362 0.155,-0.323C0.139,-0.284 0.131,-0.24 0.131,-0.191C0.131,-0.15 0.14,-0.119 0.158,-0.097C0.175,-0.074 0.2,-0.063 0.233,-0.063Z" style="fill-rule:nonzero;"/>
                </g>
                <g transform="matrix(41.6667,0,0,41.6667,371.583,784.094)">
                    <path d="M0.671,-0L0.722,-0.262C0.733,-0.315 0.738,-0.353 0.738,-0.376C0.738,-0.421 0.717,-0.444 0.674,-0.444C0.651,-0.444 0.625,-0.435 0.596,-0.418C0.567,-0.4 0.538,-0.375 0.51,-0.344L0.496,-0.264L0.445,-0L0.349,-0L0.4,-0.262C0.411,-0.315 0.416,-0.353 0.416,-0.376C0.416,-0.421 0.395,-0.444 0.352,-0.444C0.329,-0.444 0.303,-0.434 0.274,-0.415C0.245,-0.396 0.217,-0.369 0.189,-0.335L0.123,-0L0.027,-0L0.126,-0.507L0.205,-0.507L0.2,-0.414C0.229,-0.449 0.259,-0.475 0.292,-0.494C0.324,-0.513 0.356,-0.522 0.388,-0.522C0.425,-0.522 0.454,-0.513 0.475,-0.494C0.496,-0.474 0.509,-0.447 0.512,-0.411C0.541,-0.447 0.573,-0.474 0.607,-0.494C0.64,-0.513 0.675,-0.522 0.71,-0.522C0.75,-0.522 0.781,-0.511 0.803,-0.488C0.824,-0.465 0.835,-0.433 0.835,-0.39C0.835,-0.375 0.834,-0.36 0.832,-0.344C0.829,-0.327 0.825,-0.301 0.818,-0.264L0.767,-0L0.671,-0Z" style="fill-rule:nonzero;"/>
                </g>
                <g transform="matrix(41.6667,0,0,41.6667,408.5,784.094)">
                    <path d="M0.415,-0.049C0.352,-0.005 0.28,0.017 0.201,0.017C0.148,0.017 0.106,0.001 0.077,-0.031C0.048,-0.063 0.033,-0.108 0.033,-0.167C0.033,-0.212 0.04,-0.256 0.055,-0.299C0.069,-0.341 0.089,-0.379 0.116,-0.412C0.143,-0.446 0.175,-0.473 0.213,-0.494C0.251,-0.514 0.292,-0.524 0.335,-0.524C0.376,-0.524 0.408,-0.514 0.432,-0.493C0.455,-0.472 0.467,-0.444 0.467,-0.409C0.467,-0.357 0.443,-0.312 0.394,-0.274C0.345,-0.236 0.277,-0.209 0.189,-0.192L0.127,-0.18C0.127,-0.137 0.135,-0.106 0.15,-0.086C0.165,-0.068 0.191,-0.058 0.226,-0.058C0.273,-0.058 0.328,-0.075 0.389,-0.108L0.415,-0.049ZM0.318,-0.45C0.289,-0.45 0.262,-0.442 0.236,-0.425C0.211,-0.408 0.189,-0.384 0.17,-0.353C0.151,-0.322 0.139,-0.286 0.132,-0.245L0.193,-0.259C0.251,-0.272 0.296,-0.291 0.329,-0.316C0.361,-0.341 0.377,-0.369 0.377,-0.4C0.377,-0.415 0.372,-0.428 0.362,-0.437C0.351,-0.446 0.337,-0.45 0.318,-0.45Z" style="fill-rule:nonzero;"/>
                </g>
                <g transform="matrix(41.6667,0,0,41.6667,428.583,784.094)">
                    <path d="M0.34,-0.036C0.322,-0.023 0.301,-0.012 0.277,-0.005C0.253,0.003 0.229,0.007 0.205,0.007C0.12,0.007 0.077,-0.029 0.077,-0.102C0.077,-0.12 0.082,-0.154 0.092,-0.205L0.137,-0.431L0.045,-0.431L0.057,-0.493L0.154,-0.505L0.197,-0.649L0.275,-0.649L0.247,-0.507L0.394,-0.507L0.38,-0.431L0.233,-0.431L0.19,-0.211C0.181,-0.164 0.176,-0.133 0.176,-0.118C0.176,-0.101 0.18,-0.089 0.189,-0.082C0.198,-0.075 0.212,-0.071 0.232,-0.071C0.259,-0.071 0.288,-0.078 0.318,-0.092L0.34,-0.036Z" style="fill-rule:nonzero;"/>
                </g>
                <g transform="matrix(41.6667,0,0,41.6667,444.667,784.094)">
                    <path d="M0.204,-0.416C0.235,-0.451 0.267,-0.477 0.3,-0.495C0.333,-0.513 0.365,-0.522 0.398,-0.522C0.439,-0.522 0.471,-0.511 0.494,-0.488C0.517,-0.465 0.528,-0.433 0.528,-0.39C0.528,-0.375 0.527,-0.36 0.525,-0.344C0.522,-0.327 0.518,-0.301 0.511,-0.264L0.46,-0L0.364,-0L0.415,-0.262C0.426,-0.315 0.431,-0.353 0.431,-0.376C0.431,-0.421 0.408,-0.444 0.362,-0.444C0.337,-0.444 0.31,-0.434 0.279,-0.414C0.248,-0.394 0.217,-0.367 0.187,-0.332L0.123,-0L0.027,-0L0.171,-0.74L0.267,-0.74L0.204,-0.416Z" style="fill-rule:nonzero;"/>
                </g>
                <g transform="matrix(41.6667,0,0,41.6667,468.792,784.094)">
                    <path d="M0.198,-0.597C0.181,-0.597 0.167,-0.601 0.158,-0.61C0.148,-0.619 0.143,-0.631 0.143,-0.648C0.143,-0.667 0.15,-0.684 0.164,-0.697C0.177,-0.71 0.194,-0.717 0.214,-0.717C0.231,-0.717 0.245,-0.713 0.255,-0.704C0.264,-0.695 0.269,-0.683 0.269,-0.666C0.269,-0.647 0.262,-0.63 0.249,-0.617C0.235,-0.604 0.218,-0.597 0.198,-0.597ZM0.031,-0L0.13,-0.507L0.226,-0.507L0.127,-0L0.031,-0Z" style="fill-rule:nonzero;"/>
                </g>
                <g transform="matrix(41.6667,0,0,41.6667,479.333,784.094)">
                    <path d="M0.364,-0L0.415,-0.262C0.426,-0.315 0.431,-0.353 0.431,-0.376C0.431,-0.421 0.408,-0.444 0.362,-0.444C0.337,-0.444 0.31,-0.434 0.279,-0.414C0.248,-0.395 0.218,-0.368 0.189,-0.333L0.123,-0L0.027,-0L0.126,-0.507L0.205,-0.507L0.2,-0.412C0.23,-0.447 0.262,-0.474 0.297,-0.494C0.331,-0.513 0.365,-0.522 0.398,-0.522C0.439,-0.522 0.471,-0.511 0.494,-0.488C0.517,-0.465 0.528,-0.433 0.528,-0.39C0.528,-0.375 0.527,-0.36 0.525,-0.344C0.522,-0.327 0.518,-0.301 0.511,-0.264L0.46,-0L0.364,-0Z" style="fill-rule:nonzero;"/>
                </g>
                <g transform="matrix(41.6667,0,0,41.6667,503.458,784.094)">
                    <path d="M0.35,-0.112C0.323,-0.079 0.294,-0.053 0.263,-0.035C0.231,-0.016 0.199,-0.007 0.168,-0.007C0.125,-0.007 0.091,-0.021 0.068,-0.05C0.045,-0.078 0.033,-0.118 0.033,-0.17C0.033,-0.229 0.046,-0.285 0.073,-0.338C0.1,-0.391 0.137,-0.435 0.184,-0.47C0.231,-0.505 0.282,-0.522 0.339,-0.522C0.366,-0.522 0.395,-0.518 0.428,-0.511C0.46,-0.504 0.49,-0.494 0.518,-0.482L0.436,-0.061C0.418,0.031 0.384,0.1 0.334,0.147C0.283,0.194 0.218,0.218 0.137,0.218C0.083,0.218 0.034,0.206 -0.01,0.181L0.005,0.109C0.051,0.129 0.095,0.139 0.138,0.139C0.196,0.139 0.241,0.122 0.273,0.089C0.305,0.056 0.328,0.003 0.342,-0.07L0.35,-0.112ZM0.203,-0.085C0.227,-0.085 0.253,-0.095 0.281,-0.116C0.31,-0.136 0.339,-0.165 0.368,-0.203L0.414,-0.434C0.383,-0.441 0.358,-0.445 0.338,-0.445C0.302,-0.445 0.268,-0.433 0.237,-0.41C0.206,-0.387 0.18,-0.355 0.16,-0.314C0.14,-0.273 0.13,-0.228 0.13,-0.18C0.13,-0.117 0.154,-0.085 0.203,-0.085Z" style="fill-rule:nonzero;"/>
                </g>
            </g>
            <g transform="matrix(1,0,0,5.1462,467.065,-47.6087)">
                <g transform="matrix(1,-0,-0,0.194318,-477.065,4.39329)">
                    <path d="M297.5,918.75L260,900L297.5,881.25L278.75,900L297.5,918.75Z"/>
                    <path d="M810,360L810,900L278.75,900" style="fill:none;stroke:black;stroke-width:4.17px;"/>
                </g>
            </g>
        </g>
        <g id="if-statement" serif:id="if statement" transform="matrix(1,0,0,1,-100,-235.507)">
            <g transform="matrix(1.04308,0,0,0.94359,-61.2245,-15.6924)">
                <path d="M394.239,334.565L585.978,461.739L394.239,588.913L202.5,461.739L394.239,334.565Z" style="fill:rgb(235,235,235);stroke:black;stroke-width:4.19px;"/>
            </g>
            <g transform="matrix(1,0,0,1,-97.5,-353.754)">
                <g transform="matrix(37.5,0,0,37.5,290,781.011)">
                    <path d="M0.077,-0.071L0.264,-0.071L0.264,-0.436L0.111,-0.436L0.111,-0.507L0.353,-0.507L0.353,-0.071L0.529,-0.071L0.529,-0L0.077,-0L0.077,-0.071ZM0.292,-0.596C0.273,-0.596 0.257,-0.602 0.245,-0.614C0.233,-0.625 0.227,-0.641 0.227,-0.66C0.227,-0.68 0.233,-0.696 0.245,-0.708C0.257,-0.719 0.273,-0.725 0.292,-0.725C0.312,-0.725 0.328,-0.719 0.34,-0.708C0.352,-0.696 0.358,-0.68 0.358,-0.66C0.358,-0.641 0.352,-0.625 0.34,-0.614C0.328,-0.602 0.312,-0.596 0.292,-0.596Z" style="fill-rule:nonzero;"/>
                </g>
                <g transform="matrix(37.5,0,0,37.5,312.5,781.011)">
                    <path d="M0.207,-0.436L0.057,-0.436L0.057,-0.497L0.207,-0.506L0.207,-0.558C0.207,-0.626 0.223,-0.676 0.254,-0.707C0.284,-0.738 0.334,-0.754 0.401,-0.754C0.426,-0.754 0.453,-0.751 0.482,-0.746C0.51,-0.741 0.533,-0.734 0.551,-0.726L0.551,-0.659C0.5,-0.674 0.453,-0.681 0.411,-0.681C0.368,-0.681 0.338,-0.673 0.321,-0.656C0.304,-0.639 0.296,-0.607 0.296,-0.561L0.296,-0.507L0.517,-0.507L0.517,-0.436L0.296,-0.436L0.296,-0L0.207,-0L0.207,-0.436Z" style="fill-rule:nonzero;"/>
                </g>
                <g transform="matrix(37.5,0,0,37.5,335,781.011)">
                    <path d="M0.352,0.144C0.285,0.093 0.233,0.028 0.195,-0.052C0.157,-0.132 0.138,-0.216 0.138,-0.305C0.138,-0.394 0.157,-0.478 0.195,-0.558C0.233,-0.638 0.285,-0.703 0.352,-0.754L0.452,-0.754C0.383,-0.699 0.329,-0.632 0.29,-0.553C0.251,-0.474 0.232,-0.391 0.232,-0.305C0.232,-0.219 0.251,-0.136 0.29,-0.057C0.329,0.022 0.383,0.089 0.452,0.144L0.352,0.144Z" style="fill-rule:nonzero;"/>
                </g>
                <g transform="matrix(37.5,0,0,37.5,357.5,781.011)">
                    <path d="M0.348,0.011C0.171,0.011 0.083,-0.076 0.083,-0.25C0.083,-0.336 0.106,-0.402 0.151,-0.448C0.196,-0.494 0.262,-0.517 0.347,-0.517C0.377,-0.517 0.407,-0.513 0.437,-0.506C0.466,-0.499 0.49,-0.489 0.509,-0.477L0.509,-0.411C0.458,-0.433 0.407,-0.444 0.356,-0.444C0.294,-0.444 0.248,-0.429 0.219,-0.399C0.189,-0.368 0.174,-0.321 0.174,-0.258L0.174,-0.248C0.174,-0.183 0.189,-0.136 0.22,-0.107C0.25,-0.077 0.298,-0.062 0.364,-0.062C0.414,-0.062 0.464,-0.074 0.514,-0.098L0.514,-0.031C0.492,-0.018 0.467,-0.007 0.438,-0C0.409,0.007 0.379,0.011 0.348,0.011Z" style="fill-rule:nonzero;"/>
                </g>
                <g transform="matrix(37.5,0,0,37.5,380,781.011)">
                    <path d="M0.3,0.015C0.223,0.015 0.164,-0.009 0.121,-0.056C0.078,-0.103 0.057,-0.169 0.057,-0.253C0.057,-0.337 0.078,-0.403 0.121,-0.45C0.164,-0.497 0.223,-0.521 0.3,-0.521C0.377,-0.521 0.436,-0.497 0.479,-0.45C0.522,-0.403 0.543,-0.337 0.543,-0.253C0.543,-0.169 0.522,-0.103 0.479,-0.056C0.436,-0.009 0.377,0.015 0.3,0.015ZM0.3,-0.058C0.35,-0.058 0.388,-0.074 0.413,-0.107C0.439,-0.14 0.452,-0.188 0.452,-0.253C0.452,-0.383 0.401,-0.448 0.3,-0.448C0.199,-0.448 0.148,-0.383 0.148,-0.253C0.148,-0.188 0.161,-0.14 0.187,-0.107C0.212,-0.074 0.25,-0.058 0.3,-0.058Z" style="fill-rule:nonzero;"/>
                </g>
                <g transform="matrix(37.5,0,0,37.5,402.5,781.011)">
                    <path d="M0.085,-0.507L0.16,-0.507L0.169,-0.449C0.234,-0.497 0.302,-0.521 0.372,-0.521C0.42,-0.521 0.457,-0.508 0.483,-0.482C0.508,-0.455 0.521,-0.418 0.521,-0.369L0.521,-0L0.432,-0L0.432,-0.338C0.432,-0.376 0.425,-0.404 0.409,-0.422C0.395,-0.44 0.371,-0.449 0.338,-0.449C0.285,-0.449 0.23,-0.431 0.174,-0.394L0.174,-0L0.085,-0L0.085,-0.507Z" style="fill-rule:nonzero;"/>
                </g>
                <g transform="matrix(37.5,0,0,37.5,425,781.011)">
                    <path d="M0.272,0.015C0.205,0.015 0.153,-0.009 0.115,-0.056C0.077,-0.102 0.058,-0.167 0.058,-0.25C0.058,-0.333 0.078,-0.399 0.117,-0.448C0.156,-0.497 0.208,-0.521 0.274,-0.521C0.303,-0.521 0.329,-0.516 0.354,-0.507C0.378,-0.498 0.402,-0.483 0.425,-0.462L0.425,-0.74L0.514,-0.74L0.514,-0L0.435,-0L0.427,-0.048C0.405,-0.028 0.381,-0.013 0.354,-0.002C0.327,0.009 0.3,0.015 0.272,0.015ZM0.298,-0.058C0.337,-0.058 0.38,-0.075 0.425,-0.108L0.425,-0.398C0.402,-0.416 0.381,-0.429 0.36,-0.437C0.339,-0.444 0.317,-0.448 0.292,-0.448C0.245,-0.448 0.209,-0.432 0.185,-0.399C0.161,-0.366 0.149,-0.318 0.149,-0.254C0.149,-0.191 0.162,-0.142 0.188,-0.109C0.213,-0.075 0.25,-0.058 0.298,-0.058Z" style="fill-rule:nonzero;"/>
                </g>
                <g transform="matrix(37.5,0,0,37.5,447.5,781.011)">
                    <path d="M0.077,-0.071L0.264,-0.071L0.264,-0.436L0.111,-0.436L0.111,-0.507L0.353,-0.507L0.353,-0.071L0.529,-0.071L0.529,-0L0.077,-0L0.077,-0.071ZM0.292,-0.596C0.273,-0.596 0.257,-0.602 0.245,-0.614C0.233,-0.625 0.227,-0.641 0.227,-0.66C0.227,-0.68 0.233,-0.696 0.245,-0.708C0.257,-0.719 0.273,-0.725 0.292,-0.725C0.312,-0.725 0.328,-0.719 0.34,-0.708C0.352,-0.696 0.358,-0.68 0.358,-0.66C0.358,-0.641 0.352,-0.625 0.34,-0.614C0.328,-0.602 0.312,-0.596 0.292,-0.596Z" style="fill-rule:nonzero;"/>
                </g>
                <g transform="matrix(37.5,0,0,37.5,470,781.011)">
                    <path d="M0.343,0.01C0.286,0.01 0.245,-0.003 0.22,-0.028C0.195,-0.053 0.182,-0.095 0.182,-0.152L0.182,-0.436L0.056,-0.436L0.056,-0.497L0.184,-0.506L0.198,-0.664L0.271,-0.664L0.271,-0.507L0.503,-0.507L0.503,-0.436L0.271,-0.436L0.271,-0.161C0.271,-0.125 0.278,-0.1 0.292,-0.085C0.305,-0.07 0.329,-0.063 0.363,-0.063C0.386,-0.063 0.41,-0.065 0.436,-0.07C0.462,-0.074 0.486,-0.08 0.508,-0.087L0.508,-0.022C0.489,-0.013 0.465,-0.005 0.435,0.001C0.404,0.007 0.374,0.01 0.343,0.01Z" style="fill-rule:nonzero;"/>
                </g>
                <g transform="matrix(37.5,0,0,37.5,492.5,781.011)">
                    <path d="M0.077,-0.071L0.264,-0.071L0.264,-0.436L0.111,-0.436L0.111,-0.507L0.353,-0.507L0.353,-0.071L0.529,-0.071L0.529,-0L0.077,-0L0.077,-0.071ZM0.292,-0.596C0.273,-0.596 0.257,-0.602 0.245,-0.614C0.233,-0.625 0.227,-0.641 0.227,-0.66C0.227,-0.68 0.233,-0.696 0.245,-0.708C0.257,-0.719 0.273,-0.725 0.292,-0.725C0.312,-0.725 0.328,-0.719 0.34,-0.708C0.352,-0.696 0.358,-0.68 0.358,-0.66C0.358,-0.641 0.352,-0.625 0.34,-0.614C0.328,-0.602 0.312,-0.596 0.292,-0.596Z" style="fill-rule:nonzero;"/>
                </g>
                <g transform="matrix(37.5,0,0,37.5,515,781.011)">
                    <path d="M0.3,0.015C0.223,0.015 0.164,-0.009 0.121,-0.056C0.078,-0.103 0.057,-0.169 0.057,-0.253C0.057,-0.337 0.078,-0.403 0.121,-0.45C0.164,-0.497 0.223,-0.521 0.3,-0.521C0.377,-0.521 0.436,-0.497 0.479,-0.45C0.522,-0.403 0.543,-0.337 0.543,-0.253C0.543,-0.169 0.522,-0.103 0.479,-0.056C0.436,-0.009 0.377,0.015 0.3,0.015ZM0.3,-0.058C0.35,-0.058 0.388,-0.074 0.413,-0.107C0.439,-0.14 0.452,-0.188 0.452,-0.253C0.452,-0.383 0.401,-0.448 0.3,-0.448C0.199,-0.448 0.148,-0.383 0.148,-0.253C0.148,-0.188 0.161,-0.14 0.187,-0.107C0.212,-0.074 0.25,-0.058 0.3,-0.058Z" style="fill-rule:nonzero;"/>
                </g>
                <g transform="matrix(37.5,0,0,37.5,537.5,781.011)">
                    <path d="M0.085,-0.507L0.16,-0.507L0.169,-0.449C0.234,-0.497 0.302,-0.521 0.372,-0.521C0.42,-0.521 0.457,-0.508 0.483,-0.482C0.508,-0.455 0.521,-0.418 0.521,-0.369L0.521,-0L0.432,-0L0.432,-0.338C0.432,-0.376 0.425,-0.404 0.409,-0.422C0.395,-0.44 0.371,-0.449 0.338,-0.449C0.285,-0.449 0.23,-0.431 0.174,-0.394L0.174,-0L0.085,-0L0.085,-0.507Z" style="fill-rule:nonzero;"/>
                </g>
                <g transform="matrix(37.5,0,0,37.5,560,781.011)">
                    <path d="M0.148,0.144C0.217,0.089 0.271,0.022 0.31,-0.057C0.349,-0.136 0.368,-0.219 0.368,-0.305C0.368,-0.391 0.349,-0.474 0.31,-0.553C0.271,-0.632 0.217,-0.699 0.148,-0.754L0.248,-0.754C0.315,-0.703 0.367,-0.638 0.405,-0.558C0.443,-0.478 0.462,-0.394 0.462,-0.305C0.462,-0.216 0.443,-0.132 0.405,-0.052C0.367,0.028 0.315,0.093 0.248,0.144L0.148,0.144Z" style="fill-rule:nonzero;"/>
                </g>
                <g transform="matrix(37.5,0,0,37.5,582.5,781.011)">
                    <path d="M0.408,0.152C0.346,0.152 0.3,0.138 0.271,0.11C0.242,0.082 0.227,0.039 0.227,-0.02L0.227,-0.174C0.227,-0.207 0.221,-0.231 0.209,-0.246C0.197,-0.26 0.176,-0.267 0.145,-0.267L0.108,-0.267L0.108,-0.343L0.145,-0.343C0.176,-0.343 0.197,-0.35 0.209,-0.365C0.221,-0.379 0.227,-0.403 0.227,-0.436L0.227,-0.59C0.227,-0.649 0.242,-0.692 0.271,-0.72C0.3,-0.748 0.346,-0.762 0.408,-0.762C0.427,-0.762 0.447,-0.76 0.469,-0.755C0.49,-0.751 0.506,-0.746 0.517,-0.74L0.517,-0.673C0.48,-0.684 0.446,-0.689 0.416,-0.689C0.381,-0.689 0.357,-0.682 0.342,-0.667C0.327,-0.652 0.319,-0.627 0.319,-0.594L0.319,-0.439C0.319,-0.403 0.313,-0.374 0.301,-0.351C0.288,-0.329 0.27,-0.313 0.246,-0.306C0.295,-0.288 0.319,-0.243 0.319,-0.171L0.319,-0.016C0.319,0.017 0.327,0.041 0.342,0.056C0.357,0.071 0.381,0.079 0.416,0.079C0.446,0.079 0.48,0.074 0.517,0.063L0.517,0.13C0.506,0.136 0.49,0.141 0.469,0.145C0.447,0.15 0.427,0.152 0.408,0.152Z" style="fill-rule:nonzero;"/>
                </g>
            </g>
            <g transform="matrix(1,0,0,1,312.5,-387.754)">
                <g transform="matrix(50,0,0,50,247.5,790.261)">
                    <path d="M0.343,0.01C0.286,0.01 0.245,-0.003 0.22,-0.028C0.195,-0.053 0.182,-0.095 0.182,-0.152L0.182,-0.436L0.056,-0.436L0.056,-0.497L0.184,-0.506L0.198,-0.664L0.271,-0.664L0.271,-0.507L0.503,-0.507L0.503,-0.436L0.271,-0.436L0.271,-0.161C0.271,-0.125 0.278,-0.1 0.292,-0.085C0.305,-0.07 0.329,-0.063 0.363,-0.063C0.386,-0.063 0.41,-0.065 0.436,-0.07C0.462,-0.074 0.486,-0.08 0.508,-0.087L0.508,-0.022C0.489,-0.013 0.465,-0.005 0.435,0.001C0.404,0.007 0.374,0.01 0.343,0.01Z" style="fill-rule:nonzero;"/>
                </g>
                <g transform="matrix(50,0,0,50,277.5,790.261)">
                    <path d="M0.081,-0L0.081,-0.071L0.208,-0.071L0.208,-0.436L0.082,-0.436L0.082,-0.507L0.283,-0.507L0.294,-0.433C0.318,-0.461 0.343,-0.481 0.369,-0.493C0.395,-0.505 0.425,-0.511 0.46,-0.511C0.473,-0.511 0.486,-0.51 0.5,-0.508C0.514,-0.506 0.525,-0.503 0.533,-0.5L0.533,-0.42C0.51,-0.427 0.483,-0.43 0.452,-0.43C0.417,-0.43 0.388,-0.426 0.365,-0.417C0.341,-0.407 0.318,-0.393 0.297,-0.373L0.297,-0.071L0.463,-0.071L0.463,-0L0.081,-0Z" style="fill-rule:nonzero;"/>
                </g>
                <g transform="matrix(50,0,0,50,307.5,790.261)">
                    <path d="M0.231,0.015C0.184,0.015 0.149,0.002 0.124,-0.024C0.099,-0.05 0.087,-0.087 0.087,-0.136L0.087,-0.507L0.176,-0.507L0.176,-0.167C0.176,-0.13 0.183,-0.102 0.197,-0.085C0.211,-0.068 0.234,-0.059 0.265,-0.059C0.319,-0.059 0.372,-0.077 0.424,-0.112L0.424,-0.507L0.513,-0.507L0.513,-0L0.438,-0L0.429,-0.057C0.366,-0.009 0.3,0.015 0.231,0.015Z" style="fill-rule:nonzero;"/>
                </g>
                <g transform="matrix(50,0,0,50,337.5,790.261)">
                    <path d="M0.327,0.015C0.243,0.015 0.179,-0.008 0.136,-0.054C0.092,-0.099 0.07,-0.166 0.07,-0.254C0.07,-0.338 0.091,-0.404 0.134,-0.451C0.177,-0.498 0.236,-0.521 0.312,-0.521C0.377,-0.521 0.428,-0.503 0.465,-0.468C0.501,-0.432 0.519,-0.382 0.519,-0.317C0.519,-0.286 0.517,-0.259 0.512,-0.234L0.156,-0.234C0.159,-0.173 0.175,-0.128 0.204,-0.1C0.234,-0.072 0.278,-0.058 0.338,-0.058C0.399,-0.058 0.456,-0.068 0.509,-0.089L0.509,-0.024C0.486,-0.012 0.459,-0.003 0.427,0.004C0.395,0.011 0.362,0.015 0.327,0.015ZM0.438,-0.296C0.439,-0.303 0.439,-0.313 0.439,-0.324C0.439,-0.365 0.428,-0.397 0.406,-0.419C0.384,-0.441 0.352,-0.452 0.31,-0.452C0.264,-0.452 0.228,-0.439 0.202,-0.412C0.176,-0.386 0.161,-0.347 0.156,-0.296L0.438,-0.296Z" style="fill-rule:nonzero;"/>
                </g>
            </g>
            <g transform="matrix(1,0,0,1,122.5,-217.754)">
                <g transform="matrix(50,0,0,50,247.5,790.261)">
                    <path d="M0.207,-0.436L0.057,-0.436L0.057,-0.497L0.207,-0.506L0.207,-0.558C0.207,-0.626 0.223,-0.676 0.254,-0.707C0.284,-0.738 0.334,-0.754 0.401,-0.754C0.426,-0.754 0.453,-0.751 0.482,-0.746C0.51,-0.741 0.533,-0.734 0.551,-0.726L0.551,-0.659C0.5,-0.674 0.453,-0.681 0.411,-0.681C0.368,-0.681 0.338,-0.673 0.321,-0.656C0.304,-0.639 0.296,-0.607 0.296,-0.561L0.296,-0.507L0.517,-0.507L0.517,-0.436L0.296,-0.436L0.296,-0L0.207,-0L0.207,-0.436Z" style="fill-rule:nonzero;"/>
                </g>
                <g transform="matrix(50,0,0,50,277.5,790.261)">
                    <path d="M0.241,0.013C0.193,0.013 0.155,-0.001 0.126,-0.028C0.097,-0.055 0.083,-0.09 0.083,-0.135C0.083,-0.184 0.101,-0.223 0.136,-0.252C0.171,-0.281 0.218,-0.295 0.277,-0.295C0.316,-0.295 0.361,-0.288 0.412,-0.275L0.412,-0.348C0.412,-0.385 0.403,-0.41 0.386,-0.426C0.369,-0.441 0.338,-0.448 0.295,-0.448C0.24,-0.448 0.18,-0.438 0.117,-0.417L0.117,-0.483C0.14,-0.494 0.17,-0.503 0.206,-0.51C0.242,-0.518 0.277,-0.521 0.31,-0.521C0.373,-0.521 0.42,-0.508 0.451,-0.483C0.482,-0.457 0.497,-0.417 0.497,-0.364L0.497,-0L0.423,-0L0.415,-0.053C0.388,-0.032 0.36,-0.015 0.33,-0.004C0.3,0.007 0.27,0.013 0.241,0.013ZM0.261,-0.056C0.307,-0.056 0.357,-0.073 0.412,-0.108L0.412,-0.22C0.371,-0.229 0.332,-0.234 0.295,-0.234C0.212,-0.234 0.171,-0.202 0.171,-0.139C0.171,-0.112 0.179,-0.092 0.195,-0.078C0.21,-0.063 0.232,-0.056 0.261,-0.056Z" style="fill-rule:nonzero;"/>
                </g>
                <g transform="matrix(50,0,0,50,307.5,790.261)">
                    <path d="M0.069,-0.071L0.256,-0.071L0.256,-0.669L0.094,-0.669L0.094,-0.74L0.345,-0.74L0.345,-0.071L0.521,-0.071L0.521,-0L0.069,-0L0.069,-0.071Z" style="fill-rule:nonzero;"/>
                </g>
                <g transform="matrix(50,0,0,50,337.5,790.261)">
                    <path d="M0.294,0.015C0.255,0.015 0.217,0.011 0.181,0.003C0.144,-0.005 0.113,-0.016 0.086,-0.031L0.086,-0.101C0.116,-0.088 0.149,-0.077 0.186,-0.07C0.223,-0.063 0.259,-0.059 0.295,-0.059C0.337,-0.059 0.37,-0.066 0.393,-0.079C0.416,-0.092 0.427,-0.111 0.427,-0.135C0.427,-0.154 0.42,-0.169 0.406,-0.18C0.391,-0.191 0.366,-0.2 0.331,-0.209L0.243,-0.23C0.191,-0.242 0.153,-0.26 0.128,-0.283C0.102,-0.307 0.09,-0.338 0.09,-0.376C0.09,-0.422 0.108,-0.458 0.145,-0.483C0.182,-0.508 0.233,-0.521 0.298,-0.521C0.331,-0.521 0.366,-0.517 0.402,-0.509C0.437,-0.502 0.466,-0.493 0.488,-0.482L0.488,-0.414C0.46,-0.424 0.429,-0.432 0.394,-0.438C0.359,-0.444 0.327,-0.447 0.298,-0.447C0.259,-0.447 0.229,-0.441 0.207,-0.429C0.187,-0.417 0.176,-0.4 0.176,-0.378C0.176,-0.36 0.183,-0.346 0.197,-0.335C0.211,-0.324 0.237,-0.315 0.274,-0.306L0.363,-0.285C0.416,-0.272 0.455,-0.254 0.479,-0.231C0.503,-0.208 0.515,-0.177 0.515,-0.138C0.515,-0.091 0.495,-0.054 0.456,-0.027C0.416,0.001 0.362,0.015 0.294,0.015Z" style="fill-rule:nonzero;"/>
                </g>
                <g transform="matrix(50,0,0,50,367.5,790.261)">
                    <path d="M0.327,0.015C0.243,0.015 0.179,-0.008 0.136,-0.054C0.092,-0.099 0.07,-0.166 0.07,-0.254C0.07,-0.338 0.091,-0.404 0.134,-0.451C0.177,-0.498 0.236,-0.521 0.312,-0.521C0.377,-0.521 0.428,-0.503 0.465,-0.468C0.501,-0.432 0.519,-0.382 0.519,-0.317C0.519,-0.286 0.517,-0.259 0.512,-0.234L0.156,-0.234C0.159,-0.173 0.175,-0.128 0.204,-0.1C0.234,-0.072 0.278,-0.058 0.338,-0.058C0.399,-0.058 0.456,-0.068 0.509,-0.089L0.509,-0.024C0.486,-0.012 0.459,-0.003 0.427,0.004C0.395,0.011 0.362,0.015 0.327,0.015ZM0.438,-0.296C0.439,-0.303 0.439,-0.313 0.439,-0.324C0.439,-0.365 0.428,-0.397 0.406,-0.419C0.384,-0.441 0.352,-0.452 0.31,-0.452C0.264,-0.452 0.228,-0.439 0.202,-0.412C0.176,-0.386 0.161,-0.347 0.156,-0.296L0.438,-0.296Z" style="fill-rule:nonzero;"/>
                </g>
            </g>
            <g transform="matrix(1,0,0,0.561404,-57.9348,498.768)">
                <g transform="matrix(1,-0,-0,1.78125,147.935,-513.465)">
                    <path d="M278.75,352.5L260,390L241.25,352.5L260,371.25L278.75,352.5Z"/>
                    <path d="M260,330L260,371.25" style="fill:none;stroke:black;stroke-width:4.17px;"/>
                </g>
            </g>
            <g transform="matrix(6.12323e-17,-1,0.888889,5.44288e-17,483.913,827.442)">
                <g transform="matrix(6.12323e-17,1.125,-1,6.88864e-17,616.935,-443.152)">
                    <path d="M828.75,222.5L810,260L791.25,222.5L810,241.25L828.75,222.5Z"/>
                    <path d="M460,209L810,210L810,241.25" style="fill:none;stroke:black;stroke-width:4.17px;"/>
                </g>
            </g>
        </g>
    </g>
</svg>
