<?xml version="1.0" encoding="UTF-8" standalone="no"?>
<!DOCTYPE svg PUBLIC "-//W3C//DTD SVG 1.1//EN" "http://www.w3.org/Graphics/SVG/1.1/DTD/svg11.dtd">
<svg width="100%" height="100%" viewBox="0 0 1000 1000" version="1.1" xmlns="http://www.w3.org/2000/svg" xmlns:xlink="http://www.w3.org/1999/xlink" xml:space="preserve" xmlns:serif="http://www.serif.com/" style="fill-rule:evenodd;clip-rule:evenodd;stroke-linecap:round;stroke-linejoin:round;stroke-miterlimit:1.5;">
    <g id="Switch-Statement" serif:id="Switch Statement">
        <g id="Switch">
            <g transform="matrix(1,0,0,0.6,-4.26326e-14,0)">
                <path d="M750,500L676.777,676.777L500,750L323.223,676.777L250,500L500,250L750,500Z" style="fill:rgb(231,232,233);stroke:rgb(35,31,32);stroke-width:5.05px;"/>
            </g>
            <g transform="matrix(1,0,0,0.444444,92.0652,16.9565)">
                <g transform="matrix(1,-0,-0,2.25,-92.0652,-38.1522)">
                    <path d="M518.75,112.5L500,150L481.25,112.5L500,131.25L518.75,112.5Z"/>
                    <path d="M500,50L500,131.25" style="fill:none;stroke:black;stroke-width:4.17px;"/>
                </g>
            </g>
            <g transform="matrix(1,0,0,1,52.5,-453.261)">
                <g transform="matrix(41.6667,0,0,41.6667,266.25,784.094)">
                    <path d="M0.294,0.015C0.255,0.015 0.217,0.011 0.181,0.003C0.144,-0.005 0.113,-0.016 0.086,-0.031L0.086,-0.101C0.116,-0.088 0.149,-0.077 0.186,-0.07C0.223,-0.063 0.259,-0.059 0.295,-0.059C0.337,-0.059 0.37,-0.066 0.393,-0.079C0.416,-0.092 0.427,-0.111 0.427,-0.135C0.427,-0.154 0.42,-0.169 0.406,-0.18C0.391,-0.191 0.366,-0.2 0.331,-0.209L0.243,-0.23C0.191,-0.242 0.153,-0.26 0.128,-0.283C0.102,-0.307 0.09,-0.338 0.09,-0.376C0.09,-0.422 0.108,-0.458 0.145,-0.483C0.182,-0.508 0.233,-0.521 0.298,-0.521C0.331,-0.521 0.366,-0.517 0.402,-0.509C0.437,-0.502 0.466,-0.493 0.488,-0.482L0.488,-0.414C0.46,-0.424 0.429,-0.432 0.394,-0.438C0.359,-0.444 0.327,-0.447 0.298,-0.447C0.259,-0.447 0.229,-0.441 0.207,-0.429C0.187,-0.417 0.176,-0.4 0.176,-0.378C0.176,-0.36 0.183,-0.346 0.197,-0.335C0.211,-0.324 0.237,-0.315 0.274,-0.306L0.363,-0.285C0.416,-0.272 0.455,-0.254 0.479,-0.231C0.503,-0.208 0.515,-0.177 0.515,-0.138C0.515,-0.091 0.495,-0.054 0.456,-0.027C0.416,0.001 0.362,0.015 0.294,0.015Z" style="fill-rule:nonzero;"/>
                </g>
                <g transform="matrix(41.6667,0,0,41.6667,291.25,784.094)">
                    <path d="M0.038,-0.507L0.131,-0.507L0.272,-0.085L0.404,-0.507L0.495,-0.507L0.626,-0.079L0.77,-0.507L0.861,-0.507L0.67,-0L0.579,-0L0.447,-0.416L0.316,-0L0.225,-0L0.038,-0.507Z" style="fill-rule:nonzero;"/>
                </g>
                <g transform="matrix(41.6667,0,0,41.6667,328.75,784.094)">
                    <path d="M0.077,-0.071L0.264,-0.071L0.264,-0.436L0.111,-0.436L0.111,-0.507L0.353,-0.507L0.353,-0.071L0.529,-0.071L0.529,-0L0.077,-0L0.077,-0.071ZM0.292,-0.596C0.273,-0.596 0.257,-0.602 0.245,-0.614C0.233,-0.625 0.227,-0.641 0.227,-0.66C0.227,-0.68 0.233,-0.696 0.245,-0.708C0.257,-0.719 0.273,-0.725 0.292,-0.725C0.312,-0.725 0.328,-0.719 0.34,-0.708C0.352,-0.696 0.358,-0.68 0.358,-0.66C0.358,-0.641 0.352,-0.625 0.34,-0.614C0.328,-0.602 0.312,-0.596 0.292,-0.596Z" style="fill-rule:nonzero;"/>
                </g>
                <g transform="matrix(41.6667,0,0,41.6667,353.75,784.094)">
                    <path d="M0.343,0.01C0.286,0.01 0.245,-0.003 0.22,-0.028C0.195,-0.053 0.182,-0.095 0.182,-0.152L0.182,-0.436L0.056,-0.436L0.056,-0.497L0.184,-0.506L0.198,-0.664L0.271,-0.664L0.271,-0.507L0.503,-0.507L0.503,-0.436L0.271,-0.436L0.271,-0.161C0.271,-0.125 0.278,-0.1 0.292,-0.085C0.305,-0.07 0.329,-0.063 0.363,-0.063C0.386,-0.063 0.41,-0.065 0.436,-0.07C0.462,-0.074 0.486,-0.08 0.508,-0.087L0.508,-0.022C0.489,-0.013 0.465,-0.005 0.435,0.001C0.404,0.007 0.374,0.01 0.343,0.01Z" style="fill-rule:nonzero;"/>
                </g>
                <g transform="matrix(41.6667,0,0,41.6667,378.75,784.094)">
                    <path d="M0.348,0.011C0.171,0.011 0.083,-0.076 0.083,-0.25C0.083,-0.336 0.106,-0.402 0.151,-0.448C0.196,-0.494 0.262,-0.517 0.347,-0.517C0.377,-0.517 0.407,-0.513 0.437,-0.506C0.466,-0.499 0.49,-0.489 0.509,-0.477L0.509,-0.411C0.458,-0.433 0.407,-0.444 0.356,-0.444C0.294,-0.444 0.248,-0.429 0.219,-0.399C0.189,-0.368 0.174,-0.321 0.174,-0.258L0.174,-0.248C0.174,-0.183 0.189,-0.136 0.22,-0.107C0.25,-0.077 0.298,-0.062 0.364,-0.062C0.414,-0.062 0.464,-0.074 0.514,-0.098L0.514,-0.031C0.492,-0.018 0.467,-0.007 0.438,-0C0.409,0.007 0.379,0.011 0.348,0.011Z" style="fill-rule:nonzero;"/>
                </g>
                <g transform="matrix(41.6667,0,0,41.6667,403.75,784.094)">
                    <path d="M0.085,-0.74L0.174,-0.74L0.174,-0.453C0.239,-0.498 0.305,-0.521 0.372,-0.521C0.42,-0.521 0.457,-0.508 0.483,-0.482C0.508,-0.456 0.521,-0.419 0.521,-0.37L0.521,-0L0.432,-0L0.432,-0.339C0.432,-0.377 0.425,-0.405 0.409,-0.422C0.395,-0.439 0.371,-0.447 0.338,-0.447C0.283,-0.447 0.228,-0.429 0.174,-0.394L0.174,-0L0.085,-0L0.085,-0.74Z" style="fill-rule:nonzero;"/>
                </g>
                <g transform="matrix(41.6667,0,0,41.6667,428.75,784.094)">
                    <path d="M0.352,0.144C0.285,0.093 0.233,0.028 0.195,-0.052C0.157,-0.132 0.138,-0.216 0.138,-0.305C0.138,-0.394 0.157,-0.478 0.195,-0.558C0.233,-0.638 0.285,-0.703 0.352,-0.754L0.452,-0.754C0.383,-0.699 0.329,-0.632 0.29,-0.553C0.251,-0.474 0.232,-0.391 0.232,-0.305C0.232,-0.219 0.251,-0.136 0.29,-0.057C0.329,0.022 0.383,0.089 0.452,0.144L0.352,0.144Z" style="fill-rule:nonzero;"/>
                </g>
                <g transform="matrix(41.6667,0,0,41.6667,453.75,784.094)">
                    <path d="M0.047,-0.507L0.141,-0.507L0.301,-0.073L0.461,-0.507L0.553,-0.507L0.347,-0L0.253,-0L0.047,-0.507Z" style="fill-rule:nonzero;"/>
                </g>
                <g transform="matrix(41.6667,0,0,41.6667,478.75,784.094)">
                    <path d="M0.241,0.013C0.193,0.013 0.155,-0.001 0.126,-0.028C0.097,-0.055 0.083,-0.09 0.083,-0.135C0.083,-0.184 0.101,-0.223 0.136,-0.252C0.171,-0.281 0.218,-0.295 0.277,-0.295C0.316,-0.295 0.361,-0.288 0.412,-0.275L0.412,-0.348C0.412,-0.385 0.403,-0.41 0.386,-0.426C0.369,-0.441 0.338,-0.448 0.295,-0.448C0.24,-0.448 0.18,-0.438 0.117,-0.417L0.117,-0.483C0.14,-0.494 0.17,-0.503 0.206,-0.51C0.242,-0.518 0.277,-0.521 0.31,-0.521C0.373,-0.521 0.42,-0.508 0.451,-0.483C0.482,-0.457 0.497,-0.417 0.497,-0.364L0.497,-0L0.423,-0L0.415,-0.053C0.388,-0.032 0.36,-0.015 0.33,-0.004C0.3,0.007 0.27,0.013 0.241,0.013ZM0.261,-0.056C0.307,-0.056 0.357,-0.073 0.412,-0.108L0.412,-0.22C0.371,-0.229 0.332,-0.234 0.295,-0.234C0.212,-0.234 0.171,-0.202 0.171,-0.139C0.171,-0.112 0.179,-0.092 0.195,-0.078C0.21,-0.063 0.232,-0.056 0.261,-0.056Z" style="fill-rule:nonzero;"/>
                </g>
                <g transform="matrix(41.6667,0,0,41.6667,503.75,784.094)">
                    <path d="M0.069,-0.071L0.256,-0.071L0.256,-0.669L0.094,-0.669L0.094,-0.74L0.345,-0.74L0.345,-0.071L0.521,-0.071L0.521,-0L0.069,-0L0.069,-0.071Z" style="fill-rule:nonzero;"/>
                </g>
                <g transform="matrix(41.6667,0,0,41.6667,528.75,784.094)">
                    <path d="M0.231,0.015C0.184,0.015 0.149,0.002 0.124,-0.024C0.099,-0.05 0.087,-0.087 0.087,-0.136L0.087,-0.507L0.176,-0.507L0.176,-0.167C0.176,-0.13 0.183,-0.102 0.197,-0.085C0.211,-0.068 0.234,-0.059 0.265,-0.059C0.319,-0.059 0.372,-0.077 0.424,-0.112L0.424,-0.507L0.513,-0.507L0.513,-0L0.438,-0L0.429,-0.057C0.366,-0.009 0.3,0.015 0.231,0.015Z" style="fill-rule:nonzero;"/>
                </g>
                <g transform="matrix(41.6667,0,0,41.6667,553.75,784.094)">
                    <path d="M0.327,0.015C0.243,0.015 0.179,-0.008 0.136,-0.054C0.092,-0.099 0.07,-0.166 0.07,-0.254C0.07,-0.338 0.091,-0.404 0.134,-0.451C0.177,-0.498 0.236,-0.521 0.312,-0.521C0.377,-0.521 0.428,-0.503 0.465,-0.468C0.501,-0.432 0.519,-0.382 0.519,-0.317C0.519,-0.286 0.517,-0.259 0.512,-0.234L0.156,-0.234C0.159,-0.173 0.175,-0.128 0.204,-0.1C0.234,-0.072 0.278,-0.058 0.338,-0.058C0.399,-0.058 0.456,-0.068 0.509,-0.089L0.509,-0.024C0.486,-0.012 0.459,-0.003 0.427,0.004C0.395,0.011 0.362,0.015 0.327,0.015ZM0.438,-0.296C0.439,-0.303 0.439,-0.313 0.439,-0.324C0.439,-0.365 0.428,-0.397 0.406,-0.419C0.384,-0.441 0.352,-0.452 0.31,-0.452C0.264,-0.452 0.228,-0.439 0.202,-0.412C0.176,-0.386 0.161,-0.347 0.156,-0.296L0.438,-0.296Z" style="fill-rule:nonzero;"/>
                </g>
                <g transform="matrix(41.6667,0,0,41.6667,578.75,784.094)">
                    <path d="M0.148,0.144C0.217,0.089 0.271,0.022 0.31,-0.057C0.349,-0.136 0.368,-0.219 0.368,-0.305C0.368,-0.391 0.349,-0.474 0.31,-0.553C0.271,-0.632 0.217,-0.699 0.148,-0.754L0.248,-0.754C0.315,-0.703 0.367,-0.638 0.405,-0.558C0.443,-0.478 0.462,-0.394 0.462,-0.305C0.462,-0.216 0.443,-0.132 0.405,-0.052C0.367,0.028 0.315,0.093 0.248,0.144L0.148,0.144Z" style="fill-rule:nonzero;"/>
                </g>
                <g transform="matrix(41.6667,0,0,41.6667,603.75,784.094)">
                    <path d="M0.408,0.152C0.346,0.152 0.3,0.138 0.271,0.11C0.242,0.082 0.227,0.039 0.227,-0.02L0.227,-0.174C0.227,-0.207 0.221,-0.231 0.209,-0.246C0.197,-0.26 0.176,-0.267 0.145,-0.267L0.108,-0.267L0.108,-0.343L0.145,-0.343C0.176,-0.343 0.197,-0.35 0.209,-0.365C0.221,-0.379 0.227,-0.403 0.227,-0.436L0.227,-0.59C0.227,-0.649 0.242,-0.692 0.271,-0.72C0.3,-0.748 0.346,-0.762 0.408,-0.762C0.427,-0.762 0.447,-0.76 0.469,-0.755C0.49,-0.751 0.506,-0.746 0.517,-0.74L0.517,-0.673C0.48,-0.684 0.446,-0.689 0.416,-0.689C0.381,-0.689 0.357,-0.682 0.342,-0.667C0.327,-0.652 0.319,-0.627 0.319,-0.594L0.319,-0.439C0.319,-0.403 0.313,-0.374 0.301,-0.351C0.288,-0.329 0.27,-0.313 0.246,-0.306C0.295,-0.288 0.319,-0.243 0.319,-0.171L0.319,-0.016C0.319,0.017 0.327,0.041 0.342,0.056C0.357,0.071 0.381,0.079 0.416,0.079C0.446,0.079 0.48,0.074 0.517,0.063L0.517,0.13C0.506,0.136 0.49,0.141 0.469,0.145C0.447,0.15 0.427,0.152 0.408,0.152Z" style="fill-rule:nonzero;"/>
                </g>
            </g>
            <g transform="matrix(1,0,0,2.22222,92.0652,284.783)">
                <g id="Default">
                    <g transform="matrix(1,-0,-0,0.45,-92.0652,-128.152)">
                        <path d="M518.75,912.5L500,950L481.25,912.5L500,931.25L518.75,912.5Z"/>
                        <path d="M500,450L500,931.25" style="fill:none;stroke:black;stroke-width:4.17px;"/>
                    </g>
                </g>
            </g>
        </g>
        <g id="Do-Something-1" serif:id="Do Something 1" transform="matrix(1,0,0,1,-350,150)">
            <g transform="matrix(0.69,0,0,1.23214,510,183.929)">
                <rect x="347.826" y="134.783" width="289.855" height="81.159" style="fill:rgb(231,232,233);stroke:rgb(35,31,32);stroke-width:4.17px;"/>
            </g>
            <g transform="matrix(1,-5.32963e-32,0,1,502.5,-373.261)">
                <g transform="matrix(41.6667,0,0,41.6667,260,784.094)">
                    <path d="M0.074,-0.693L0.237,-0.693C0.446,-0.693 0.55,-0.577 0.55,-0.346C0.55,-0.231 0.523,-0.145 0.47,-0.087C0.417,-0.029 0.338,-0 0.233,-0L0.074,-0L0.074,-0.693ZM0.223,-0.073C0.302,-0.073 0.361,-0.094 0.399,-0.137C0.436,-0.18 0.455,-0.246 0.455,-0.335L0.455,-0.358C0.455,-0.447 0.436,-0.513 0.399,-0.556C0.361,-0.599 0.302,-0.62 0.223,-0.62L0.166,-0.62L0.166,-0.073L0.223,-0.073Z" style="fill-rule:nonzero;"/>
                </g>
                <g transform="matrix(41.6667,0,0,41.6667,285,784.094)">
                    <path d="M0.327,0.015C0.243,0.015 0.179,-0.008 0.136,-0.054C0.092,-0.099 0.07,-0.166 0.07,-0.254C0.07,-0.338 0.091,-0.404 0.134,-0.451C0.177,-0.498 0.236,-0.521 0.312,-0.521C0.377,-0.521 0.428,-0.503 0.465,-0.468C0.501,-0.432 0.519,-0.382 0.519,-0.317C0.519,-0.286 0.517,-0.259 0.512,-0.234L0.156,-0.234C0.159,-0.173 0.175,-0.128 0.204,-0.1C0.234,-0.072 0.278,-0.058 0.338,-0.058C0.399,-0.058 0.456,-0.068 0.509,-0.089L0.509,-0.024C0.486,-0.012 0.459,-0.003 0.427,0.004C0.395,0.011 0.362,0.015 0.327,0.015ZM0.438,-0.296C0.439,-0.303 0.439,-0.313 0.439,-0.324C0.439,-0.365 0.428,-0.397 0.406,-0.419C0.384,-0.441 0.352,-0.452 0.31,-0.452C0.264,-0.452 0.228,-0.439 0.202,-0.412C0.176,-0.386 0.161,-0.347 0.156,-0.296L0.438,-0.296Z" style="fill-rule:nonzero;"/>
                </g>
                <g transform="matrix(41.6667,0,0,41.6667,310,784.094)">
                    <path d="M0.207,-0.436L0.057,-0.436L0.057,-0.497L0.207,-0.506L0.207,-0.558C0.207,-0.626 0.223,-0.676 0.254,-0.707C0.284,-0.738 0.334,-0.754 0.401,-0.754C0.426,-0.754 0.453,-0.751 0.482,-0.746C0.51,-0.741 0.533,-0.734 0.551,-0.726L0.551,-0.659C0.5,-0.674 0.453,-0.681 0.411,-0.681C0.368,-0.681 0.338,-0.673 0.321,-0.656C0.304,-0.639 0.296,-0.607 0.296,-0.561L0.296,-0.507L0.517,-0.507L0.517,-0.436L0.296,-0.436L0.296,-0L0.207,-0L0.207,-0.436Z" style="fill-rule:nonzero;"/>
                </g>
                <g transform="matrix(41.6667,0,0,41.6667,335,784.094)">
                    <path d="M0.241,0.013C0.193,0.013 0.155,-0.001 0.126,-0.028C0.097,-0.055 0.083,-0.09 0.083,-0.135C0.083,-0.184 0.101,-0.223 0.136,-0.252C0.171,-0.281 0.218,-0.295 0.277,-0.295C0.316,-0.295 0.361,-0.288 0.412,-0.275L0.412,-0.348C0.412,-0.385 0.403,-0.41 0.386,-0.426C0.369,-0.441 0.338,-0.448 0.295,-0.448C0.24,-0.448 0.18,-0.438 0.117,-0.417L0.117,-0.483C0.14,-0.494 0.17,-0.503 0.206,-0.51C0.242,-0.518 0.277,-0.521 0.31,-0.521C0.373,-0.521 0.42,-0.508 0.451,-0.483C0.482,-0.457 0.497,-0.417 0.497,-0.364L0.497,-0L0.423,-0L0.415,-0.053C0.388,-0.032 0.36,-0.015 0.33,-0.004C0.3,0.007 0.27,0.013 0.241,0.013ZM0.261,-0.056C0.307,-0.056 0.357,-0.073 0.412,-0.108L0.412,-0.22C0.371,-0.229 0.332,-0.234 0.295,-0.234C0.212,-0.234 0.171,-0.202 0.171,-0.139C0.171,-0.112 0.179,-0.092 0.195,-0.078C0.21,-0.063 0.232,-0.056 0.261,-0.056Z" style="fill-rule:nonzero;"/>
                </g>
                <g transform="matrix(41.6667,0,0,41.6667,360,784.094)">
                    <path d="M0.231,0.015C0.184,0.015 0.149,0.002 0.124,-0.024C0.099,-0.05 0.087,-0.087 0.087,-0.136L0.087,-0.507L0.176,-0.507L0.176,-0.167C0.176,-0.13 0.183,-0.102 0.197,-0.085C0.211,-0.068 0.234,-0.059 0.265,-0.059C0.319,-0.059 0.372,-0.077 0.424,-0.112L0.424,-0.507L0.513,-0.507L0.513,-0L0.438,-0L0.429,-0.057C0.366,-0.009 0.3,0.015 0.231,0.015Z" style="fill-rule:nonzero;"/>
                </g>
                <g transform="matrix(41.6667,0,0,41.6667,385,784.094)">
                    <path d="M0.069,-0.071L0.256,-0.071L0.256,-0.669L0.094,-0.669L0.094,-0.74L0.345,-0.74L0.345,-0.071L0.521,-0.071L0.521,-0L0.069,-0L0.069,-0.071Z" style="fill-rule:nonzero;"/>
                </g>
                <g transform="matrix(41.6667,0,0,41.6667,410,784.094)">
                    <path d="M0.343,0.01C0.286,0.01 0.245,-0.003 0.22,-0.028C0.195,-0.053 0.182,-0.095 0.182,-0.152L0.182,-0.436L0.056,-0.436L0.056,-0.497L0.184,-0.506L0.198,-0.664L0.271,-0.664L0.271,-0.507L0.503,-0.507L0.503,-0.436L0.271,-0.436L0.271,-0.161C0.271,-0.125 0.278,-0.1 0.292,-0.085C0.305,-0.07 0.329,-0.063 0.363,-0.063C0.386,-0.063 0.41,-0.065 0.436,-0.07C0.462,-0.074 0.486,-0.08 0.508,-0.087L0.508,-0.022C0.489,-0.013 0.465,-0.005 0.435,0.001C0.404,0.007 0.374,0.01 0.343,0.01Z" style="fill-rule:nonzero;"/>
                </g>
            </g>
        </g>
        <g id="Case-4" serif:id="Case 4" transform="matrix(-1,0,0,1,902,-150)">
            <g transform="matrix(-1,0,0,5.1462,1084.93,127.391)">
                <g transform="matrix(1,-0,-0,0.194318,182.935,4.39329)">
                    <path d="M462.5,856.25L500,875L462.5,893.75L481.25,875L462.5,856.25Z"/>
                    <path d="M151.333,450.667L150,875L481.25,875" style="fill:none;stroke:black;stroke-width:4.17px;"/>
                </g>
            </g>
            <g id="Do-Something-11" serif:id="Do Something 1" transform="matrix(1,0,0,1,-109,150)">
                <g transform="matrix(0.69,0,0,1.23214,510,183.929)">
                    <rect x="347.826" y="134.783" width="289.855" height="81.159" style="fill:rgb(231,232,233);stroke:rgb(35,31,32);stroke-width:4.17px;"/>
                </g>
                <g transform="matrix(-1,-1.06593e-31,0,1,1197.5,-395.261)">
                    <g transform="matrix(41.6667,0,0,41.6667,321.708,784.094)">
                        <path d="M0.043,-0L0.178,-0.693L0.396,-0.693C0.48,-0.693 0.546,-0.669 0.595,-0.621C0.644,-0.573 0.668,-0.508 0.668,-0.425C0.668,-0.347 0.652,-0.276 0.62,-0.212C0.588,-0.147 0.543,-0.096 0.484,-0.058C0.425,-0.019 0.359,-0 0.285,-0L0.043,-0ZM0.262,-0.615L0.158,-0.078L0.282,-0.078C0.335,-0.078 0.383,-0.092 0.426,-0.12C0.469,-0.148 0.502,-0.188 0.528,-0.24C0.553,-0.292 0.565,-0.352 0.565,-0.42C0.565,-0.481 0.55,-0.529 0.519,-0.564C0.488,-0.598 0.446,-0.615 0.391,-0.615L0.262,-0.615Z" style="fill-rule:nonzero;"/>
                    </g>
                    <g transform="matrix(41.6667,0,0,41.6667,350.833,784.094)">
                        <path d="M0.225,0.015C0.166,0.015 0.119,-0.003 0.085,-0.039C0.05,-0.075 0.033,-0.124 0.033,-0.186C0.033,-0.247 0.045,-0.303 0.069,-0.354C0.092,-0.405 0.126,-0.445 0.169,-0.476C0.212,-0.507 0.26,-0.522 0.314,-0.522C0.373,-0.522 0.42,-0.504 0.455,-0.468C0.489,-0.432 0.506,-0.383 0.506,-0.321C0.506,-0.26 0.494,-0.204 0.47,-0.154C0.447,-0.102 0.413,-0.062 0.371,-0.031C0.328,-0 0.279,0.015 0.225,0.015ZM0.233,-0.063C0.266,-0.063 0.295,-0.074 0.322,-0.095C0.348,-0.116 0.369,-0.145 0.385,-0.184C0.4,-0.223 0.408,-0.267 0.408,-0.316C0.408,-0.357 0.399,-0.388 0.382,-0.41C0.364,-0.433 0.339,-0.444 0.306,-0.444C0.273,-0.444 0.244,-0.434 0.218,-0.412C0.191,-0.392 0.17,-0.362 0.155,-0.323C0.139,-0.284 0.131,-0.24 0.131,-0.191C0.131,-0.15 0.14,-0.119 0.158,-0.097C0.175,-0.074 0.2,-0.063 0.233,-0.063Z" style="fill-rule:nonzero;"/>
                    </g>
                    <g transform="matrix(41.6667,0,0,41.6667,249.958,825.761)">
                        <path d="M0.165,-0.236C0.134,-0.253 0.111,-0.272 0.096,-0.293C0.081,-0.313 0.074,-0.337 0.074,-0.364C0.074,-0.393 0.082,-0.42 0.098,-0.444C0.113,-0.468 0.136,-0.487 0.165,-0.501C0.194,-0.515 0.227,-0.522 0.265,-0.522C0.32,-0.522 0.367,-0.511 0.408,-0.489L0.395,-0.42C0.376,-0.429 0.355,-0.435 0.332,-0.44C0.309,-0.445 0.287,-0.447 0.266,-0.447C0.235,-0.447 0.21,-0.441 0.193,-0.428C0.176,-0.414 0.167,-0.397 0.167,-0.374C0.167,-0.348 0.186,-0.325 0.223,-0.305L0.283,-0.271C0.315,-0.254 0.338,-0.236 0.352,-0.217C0.365,-0.198 0.372,-0.175 0.372,-0.148C0.372,-0.099 0.354,-0.059 0.318,-0.029C0.282,0 0.234,0.015 0.174,0.015C0.143,0.015 0.113,0.012 0.083,0.005C0.052,-0.002 0.026,-0.011 0.005,-0.023L0.019,-0.093C0.041,-0.083 0.067,-0.075 0.096,-0.069C0.125,-0.063 0.151,-0.06 0.176,-0.06C0.208,-0.06 0.233,-0.067 0.251,-0.081C0.269,-0.094 0.278,-0.113 0.278,-0.138C0.278,-0.152 0.274,-0.164 0.266,-0.174C0.257,-0.184 0.243,-0.194 0.223,-0.205L0.165,-0.236Z" style="fill-rule:nonzero;"/>
                    </g>
                    <g transform="matrix(41.6667,0,0,41.6667,267.875,825.761)">
                        <path d="M0.225,0.015C0.166,0.015 0.119,-0.003 0.085,-0.039C0.05,-0.075 0.033,-0.124 0.033,-0.186C0.033,-0.247 0.045,-0.303 0.069,-0.354C0.092,-0.405 0.126,-0.445 0.169,-0.476C0.212,-0.507 0.26,-0.522 0.314,-0.522C0.373,-0.522 0.42,-0.504 0.455,-0.468C0.489,-0.432 0.506,-0.383 0.506,-0.321C0.506,-0.26 0.494,-0.204 0.47,-0.154C0.447,-0.102 0.413,-0.062 0.371,-0.031C0.328,-0 0.279,0.015 0.225,0.015ZM0.233,-0.063C0.266,-0.063 0.295,-0.074 0.322,-0.095C0.348,-0.116 0.369,-0.145 0.385,-0.184C0.4,-0.223 0.408,-0.267 0.408,-0.316C0.408,-0.357 0.399,-0.388 0.382,-0.41C0.364,-0.433 0.339,-0.444 0.306,-0.444C0.273,-0.444 0.244,-0.434 0.218,-0.412C0.191,-0.392 0.17,-0.362 0.155,-0.323C0.139,-0.284 0.131,-0.24 0.131,-0.191C0.131,-0.15 0.14,-0.119 0.158,-0.097C0.175,-0.074 0.2,-0.063 0.233,-0.063Z" style="fill-rule:nonzero;"/>
                    </g>
                    <g transform="matrix(41.6667,0,0,41.6667,290.333,825.761)">
                        <path d="M0.671,-0L0.722,-0.262C0.733,-0.315 0.738,-0.353 0.738,-0.376C0.738,-0.421 0.717,-0.444 0.674,-0.444C0.651,-0.444 0.625,-0.435 0.596,-0.418C0.567,-0.4 0.538,-0.375 0.51,-0.344L0.496,-0.264L0.445,-0L0.349,-0L0.4,-0.262C0.411,-0.315 0.416,-0.353 0.416,-0.376C0.416,-0.421 0.395,-0.444 0.352,-0.444C0.329,-0.444 0.303,-0.434 0.274,-0.415C0.245,-0.396 0.217,-0.369 0.189,-0.335L0.123,-0L0.027,-0L0.126,-0.507L0.205,-0.507L0.2,-0.414C0.229,-0.449 0.259,-0.475 0.292,-0.494C0.324,-0.513 0.356,-0.522 0.388,-0.522C0.425,-0.522 0.454,-0.513 0.475,-0.494C0.496,-0.474 0.509,-0.447 0.512,-0.411C0.541,-0.447 0.573,-0.474 0.607,-0.494C0.64,-0.513 0.675,-0.522 0.71,-0.522C0.75,-0.522 0.781,-0.511 0.803,-0.488C0.824,-0.465 0.835,-0.433 0.835,-0.39C0.835,-0.375 0.834,-0.36 0.832,-0.344C0.829,-0.327 0.825,-0.301 0.818,-0.264L0.767,-0L0.671,-0Z" style="fill-rule:nonzero;"/>
                    </g>
                    <g transform="matrix(41.6667,0,0,41.6667,327.25,825.761)">
                        <path d="M0.415,-0.049C0.352,-0.005 0.28,0.017 0.201,0.017C0.148,0.017 0.106,0.001 0.077,-0.031C0.048,-0.063 0.033,-0.108 0.033,-0.167C0.033,-0.212 0.04,-0.256 0.055,-0.299C0.069,-0.341 0.089,-0.379 0.116,-0.412C0.143,-0.446 0.175,-0.473 0.213,-0.494C0.251,-0.514 0.292,-0.524 0.335,-0.524C0.376,-0.524 0.408,-0.514 0.432,-0.493C0.455,-0.472 0.467,-0.444 0.467,-0.409C0.467,-0.357 0.443,-0.312 0.394,-0.274C0.345,-0.236 0.277,-0.209 0.189,-0.192L0.127,-0.18C0.127,-0.137 0.135,-0.106 0.15,-0.086C0.165,-0.068 0.191,-0.058 0.226,-0.058C0.273,-0.058 0.328,-0.075 0.389,-0.108L0.415,-0.049ZM0.318,-0.45C0.289,-0.45 0.262,-0.442 0.236,-0.425C0.211,-0.408 0.189,-0.384 0.17,-0.353C0.151,-0.322 0.139,-0.286 0.132,-0.245L0.193,-0.259C0.251,-0.272 0.296,-0.291 0.329,-0.316C0.361,-0.341 0.377,-0.369 0.377,-0.4C0.377,-0.415 0.372,-0.428 0.362,-0.437C0.351,-0.446 0.337,-0.45 0.318,-0.45Z" style="fill-rule:nonzero;"/>
                    </g>
                    <g transform="matrix(41.6667,0,0,41.6667,347.333,825.761)">
                        <path d="M0.34,-0.036C0.322,-0.023 0.301,-0.012 0.277,-0.005C0.253,0.003 0.229,0.007 0.205,0.007C0.12,0.007 0.077,-0.029 0.077,-0.102C0.077,-0.12 0.082,-0.154 0.092,-0.205L0.137,-0.431L0.045,-0.431L0.057,-0.493L0.154,-0.505L0.197,-0.649L0.275,-0.649L0.247,-0.507L0.394,-0.507L0.38,-0.431L0.233,-0.431L0.19,-0.211C0.181,-0.164 0.176,-0.133 0.176,-0.118C0.176,-0.101 0.18,-0.089 0.189,-0.082C0.198,-0.075 0.212,-0.071 0.232,-0.071C0.259,-0.071 0.288,-0.078 0.318,-0.092L0.34,-0.036Z" style="fill-rule:nonzero;"/>
                    </g>
                    <g transform="matrix(41.6667,0,0,41.6667,363.417,825.761)">
                        <path d="M0.204,-0.416C0.235,-0.451 0.267,-0.477 0.3,-0.495C0.333,-0.513 0.365,-0.522 0.398,-0.522C0.439,-0.522 0.471,-0.511 0.494,-0.488C0.517,-0.465 0.528,-0.433 0.528,-0.39C0.528,-0.375 0.527,-0.36 0.525,-0.344C0.522,-0.327 0.518,-0.301 0.511,-0.264L0.46,-0L0.364,-0L0.415,-0.262C0.426,-0.315 0.431,-0.353 0.431,-0.376C0.431,-0.421 0.408,-0.444 0.362,-0.444C0.337,-0.444 0.31,-0.434 0.279,-0.414C0.248,-0.394 0.217,-0.367 0.187,-0.332L0.123,-0L0.027,-0L0.171,-0.74L0.267,-0.74L0.204,-0.416Z" style="fill-rule:nonzero;"/>
                    </g>
                    <g transform="matrix(41.6667,0,0,41.6667,387.542,825.761)">
                        <path d="M0.198,-0.597C0.181,-0.597 0.167,-0.601 0.158,-0.61C0.148,-0.619 0.143,-0.631 0.143,-0.648C0.143,-0.667 0.15,-0.684 0.164,-0.697C0.177,-0.71 0.194,-0.717 0.214,-0.717C0.231,-0.717 0.245,-0.713 0.255,-0.704C0.264,-0.695 0.269,-0.683 0.269,-0.666C0.269,-0.647 0.262,-0.63 0.249,-0.617C0.235,-0.604 0.218,-0.597 0.198,-0.597ZM0.031,-0L0.13,-0.507L0.226,-0.507L0.127,-0L0.031,-0Z" style="fill-rule:nonzero;"/>
                    </g>
                    <g transform="matrix(41.6667,0,0,41.6667,398.083,825.761)">
                        <path d="M0.364,-0L0.415,-0.262C0.426,-0.315 0.431,-0.353 0.431,-0.376C0.431,-0.421 0.408,-0.444 0.362,-0.444C0.337,-0.444 0.31,-0.434 0.279,-0.414C0.248,-0.395 0.218,-0.368 0.189,-0.333L0.123,-0L0.027,-0L0.126,-0.507L0.205,-0.507L0.2,-0.412C0.23,-0.447 0.262,-0.474 0.297,-0.494C0.331,-0.513 0.365,-0.522 0.398,-0.522C0.439,-0.522 0.471,-0.511 0.494,-0.488C0.517,-0.465 0.528,-0.433 0.528,-0.39C0.528,-0.375 0.527,-0.36 0.525,-0.344C0.522,-0.327 0.518,-0.301 0.511,-0.264L0.46,-0L0.364,-0Z" style="fill-rule:nonzero;"/>
                    </g>
                    <g transform="matrix(41.6667,0,0,41.6667,422.208,825.761)">
                        <path d="M0.35,-0.112C0.323,-0.079 0.294,-0.053 0.263,-0.035C0.231,-0.016 0.199,-0.007 0.168,-0.007C0.125,-0.007 0.091,-0.021 0.068,-0.05C0.045,-0.078 0.033,-0.118 0.033,-0.17C0.033,-0.229 0.046,-0.285 0.073,-0.338C0.1,-0.391 0.137,-0.435 0.184,-0.47C0.231,-0.505 0.282,-0.522 0.339,-0.522C0.366,-0.522 0.395,-0.518 0.428,-0.511C0.46,-0.504 0.49,-0.494 0.518,-0.482L0.436,-0.061C0.418,0.031 0.384,0.1 0.334,0.147C0.283,0.194 0.218,0.218 0.137,0.218C0.083,0.218 0.034,0.206 -0.01,0.181L0.005,0.109C0.051,0.129 0.095,0.139 0.138,0.139C0.196,0.139 0.241,0.122 0.273,0.089C0.305,0.056 0.328,0.003 0.342,-0.07L0.35,-0.112ZM0.203,-0.085C0.227,-0.085 0.253,-0.095 0.281,-0.116C0.31,-0.136 0.339,-0.165 0.368,-0.203L0.414,-0.434C0.383,-0.441 0.358,-0.445 0.338,-0.445C0.302,-0.445 0.268,-0.433 0.237,-0.41C0.206,-0.387 0.18,-0.355 0.16,-0.314C0.14,-0.273 0.13,-0.228 0.13,-0.18C0.13,-0.117 0.154,-0.085 0.203,-0.085Z" style="fill-rule:nonzero;"/>
                    </g>
                </g>
            </g>
            <g transform="matrix(-1,0,0,1,1068.5,-343.261)">
                <g transform="matrix(41.6667,0,0,41.6667,247.5,784.094)">
                    <path d="M0.348,0.011C0.171,0.011 0.083,-0.076 0.083,-0.25C0.083,-0.336 0.106,-0.402 0.151,-0.448C0.196,-0.494 0.262,-0.517 0.347,-0.517C0.377,-0.517 0.407,-0.513 0.437,-0.506C0.466,-0.499 0.49,-0.489 0.509,-0.477L0.509,-0.411C0.458,-0.433 0.407,-0.444 0.356,-0.444C0.294,-0.444 0.248,-0.429 0.219,-0.399C0.189,-0.368 0.174,-0.321 0.174,-0.258L0.174,-0.248C0.174,-0.183 0.189,-0.136 0.22,-0.107C0.25,-0.077 0.298,-0.062 0.364,-0.062C0.414,-0.062 0.464,-0.074 0.514,-0.098L0.514,-0.031C0.492,-0.018 0.467,-0.007 0.438,-0C0.409,0.007 0.379,0.011 0.348,0.011Z" style="fill-rule:nonzero;"/>
                </g>
                <g transform="matrix(41.6667,0,0,41.6667,272.5,784.094)">
                    <path d="M0.241,0.013C0.193,0.013 0.155,-0.001 0.126,-0.028C0.097,-0.055 0.083,-0.09 0.083,-0.135C0.083,-0.184 0.101,-0.223 0.136,-0.252C0.171,-0.281 0.218,-0.295 0.277,-0.295C0.316,-0.295 0.361,-0.288 0.412,-0.275L0.412,-0.348C0.412,-0.385 0.403,-0.41 0.386,-0.426C0.369,-0.441 0.338,-0.448 0.295,-0.448C0.24,-0.448 0.18,-0.438 0.117,-0.417L0.117,-0.483C0.14,-0.494 0.17,-0.503 0.206,-0.51C0.242,-0.518 0.277,-0.521 0.31,-0.521C0.373,-0.521 0.42,-0.508 0.451,-0.483C0.482,-0.457 0.497,-0.417 0.497,-0.364L0.497,-0L0.423,-0L0.415,-0.053C0.388,-0.032 0.36,-0.015 0.33,-0.004C0.3,0.007 0.27,0.013 0.241,0.013ZM0.261,-0.056C0.307,-0.056 0.357,-0.073 0.412,-0.108L0.412,-0.22C0.371,-0.229 0.332,-0.234 0.295,-0.234C0.212,-0.234 0.171,-0.202 0.171,-0.139C0.171,-0.112 0.179,-0.092 0.195,-0.078C0.21,-0.063 0.232,-0.056 0.261,-0.056Z" style="fill-rule:nonzero;"/>
                </g>
                <g transform="matrix(41.6667,0,0,41.6667,297.5,784.094)">
                    <path d="M0.294,0.015C0.255,0.015 0.217,0.011 0.181,0.003C0.144,-0.005 0.113,-0.016 0.086,-0.031L0.086,-0.101C0.116,-0.088 0.149,-0.077 0.186,-0.07C0.223,-0.063 0.259,-0.059 0.295,-0.059C0.337,-0.059 0.37,-0.066 0.393,-0.079C0.416,-0.092 0.427,-0.111 0.427,-0.135C0.427,-0.154 0.42,-0.169 0.406,-0.18C0.391,-0.191 0.366,-0.2 0.331,-0.209L0.243,-0.23C0.191,-0.242 0.153,-0.26 0.128,-0.283C0.102,-0.307 0.09,-0.338 0.09,-0.376C0.09,-0.422 0.108,-0.458 0.145,-0.483C0.182,-0.508 0.233,-0.521 0.298,-0.521C0.331,-0.521 0.366,-0.517 0.402,-0.509C0.437,-0.502 0.466,-0.493 0.488,-0.482L0.488,-0.414C0.46,-0.424 0.429,-0.432 0.394,-0.438C0.359,-0.444 0.327,-0.447 0.298,-0.447C0.259,-0.447 0.229,-0.441 0.207,-0.429C0.187,-0.417 0.176,-0.4 0.176,-0.378C0.176,-0.36 0.183,-0.346 0.197,-0.335C0.211,-0.324 0.237,-0.315 0.274,-0.306L0.363,-0.285C0.416,-0.272 0.455,-0.254 0.479,-0.231C0.503,-0.208 0.515,-0.177 0.515,-0.138C0.515,-0.091 0.495,-0.054 0.456,-0.027C0.416,0.001 0.362,0.015 0.294,0.015Z" style="fill-rule:nonzero;"/>
                </g>
                <g transform="matrix(41.6667,0,0,41.6667,322.5,784.094)">
                    <path d="M0.327,0.015C0.243,0.015 0.179,-0.008 0.136,-0.054C0.092,-0.099 0.07,-0.166 0.07,-0.254C0.07,-0.338 0.091,-0.404 0.134,-0.451C0.177,-0.498 0.236,-0.521 0.312,-0.521C0.377,-0.521 0.428,-0.503 0.465,-0.468C0.501,-0.432 0.519,-0.382 0.519,-0.317C0.519,-0.286 0.517,-0.259 0.512,-0.234L0.156,-0.234C0.159,-0.173 0.175,-0.128 0.204,-0.1C0.234,-0.072 0.278,-0.058 0.338,-0.058C0.399,-0.058 0.456,-0.068 0.509,-0.089L0.509,-0.024C0.486,-0.012 0.459,-0.003 0.427,0.004C0.395,0.011 0.362,0.015 0.327,0.015ZM0.438,-0.296C0.439,-0.303 0.439,-0.313 0.439,-0.324C0.439,-0.365 0.428,-0.397 0.406,-0.419C0.384,-0.441 0.352,-0.452 0.31,-0.452C0.264,-0.452 0.228,-0.439 0.202,-0.412C0.176,-0.386 0.161,-0.347 0.156,-0.296L0.438,-0.296Z" style="fill-rule:nonzero;"/>
                </g>
                <g transform="matrix(41.6667,0,0,41.6667,372.5,784.094)">
                    <path d="M0.375,-0.151L0.063,-0.151L0.063,-0.222L0.295,-0.693L0.388,-0.693L0.148,-0.223L0.375,-0.223L0.375,-0.414L0.458,-0.414L0.458,-0.223L0.556,-0.223L0.556,-0.151L0.458,-0.151L0.458,-0L0.375,-0L0.375,-0.151Z" style="fill-rule:nonzero;"/>
                </g>
                <g transform="matrix(41.6667,0,0,41.6667,397.5,784.094)">
                    <path d="M0.3,-0.358C0.276,-0.358 0.257,-0.365 0.242,-0.38C0.227,-0.395 0.22,-0.414 0.22,-0.438C0.22,-0.461 0.228,-0.48 0.243,-0.495C0.258,-0.51 0.277,-0.517 0.3,-0.517C0.323,-0.517 0.343,-0.51 0.358,-0.495C0.373,-0.48 0.38,-0.461 0.38,-0.438C0.38,-0.414 0.373,-0.395 0.358,-0.38C0.343,-0.365 0.324,-0.358 0.3,-0.358ZM0.3,0.014C0.276,0.014 0.257,0.007 0.242,-0.008C0.227,-0.023 0.22,-0.042 0.22,-0.066C0.22,-0.089 0.228,-0.108 0.243,-0.123C0.258,-0.138 0.277,-0.145 0.3,-0.145C0.323,-0.145 0.343,-0.138 0.358,-0.123C0.373,-0.108 0.38,-0.089 0.38,-0.066C0.38,-0.042 0.373,-0.023 0.358,-0.008C0.343,0.007 0.324,0.014 0.3,0.014Z" style="fill-rule:nonzero;"/>
                </g>
            </g>
            <g transform="matrix(3.38819e-17,-1,0.491852,5.44288e-17,613.432,857.935)">
                <g transform="matrix(-1.10661e-16,-2.03313,-1,6.88864e-17,707.935,586.697)">
                    <path d="M179.75,312.5L161,350L142.25,312.5L161,331.25L179.75,312.5Z"/>
                    <path d="M252,300L161,300L161,331.25" style="fill:none;stroke:black;stroke-width:4.17px;"/>
                </g>
            </g>
        </g>
        <g id="Case-3" serif:id="Case 3" transform="matrix(-0.260057,0.970547,0.965926,0.258819,56.6672,-339.538)">
            <g transform="matrix(-0.257587,0.965926,4.94718,1.33193,255.012,-24.1055)">
                <g transform="matrix(1,5.39341e-18,-0,0.194318,32.9348,19.0967)">
                    <path d="M462.563,781.125L500,800L462.438,818.625L481.25,799.937L462.563,781.125Z"/>
                    <path d="M300,725L300,799.333C300,799.333 431.513,799.772 481.25,799.937" style="fill:none;stroke:black;stroke-width:4.17px;"/>
                </g>
            </g>
            <g id="Do-Something-12" serif:id="Do Something 1" transform="matrix(0.257587,-0.965926,0.890117,0.239647,334.067,1221.84)">
                <g transform="matrix(0.69,-8.27338e-18,-5.47181e-18,1.33071,510,170.643)">
                    <rect x="347.826" y="134.783" width="289.855" height="81.159" style="fill:rgb(231,232,233);stroke:rgb(35,31,32);stroke-width:4.17px;"/>
                </g>
                <g transform="matrix(-1,-2.9976e-16,-1.19904e-16,1.08,1197.5,-455.522)">
                    <g transform="matrix(41.6667,0,0,41.6667,321.708,784.094)">
                        <path d="M0.043,-0L0.178,-0.693L0.396,-0.693C0.48,-0.693 0.546,-0.669 0.595,-0.621C0.644,-0.573 0.668,-0.508 0.668,-0.425C0.668,-0.347 0.652,-0.276 0.62,-0.212C0.588,-0.147 0.543,-0.096 0.484,-0.058C0.425,-0.019 0.359,-0 0.285,-0L0.043,-0ZM0.262,-0.615L0.158,-0.078L0.282,-0.078C0.335,-0.078 0.383,-0.092 0.426,-0.12C0.469,-0.148 0.502,-0.188 0.528,-0.24C0.553,-0.292 0.565,-0.352 0.565,-0.42C0.565,-0.481 0.55,-0.529 0.519,-0.564C0.488,-0.598 0.446,-0.615 0.391,-0.615L0.262,-0.615Z" style="fill-rule:nonzero;"/>
                    </g>
                    <g transform="matrix(41.6667,0,0,41.6667,350.833,784.094)">
                        <path d="M0.225,0.015C0.166,0.015 0.119,-0.003 0.085,-0.039C0.05,-0.075 0.033,-0.124 0.033,-0.186C0.033,-0.247 0.045,-0.303 0.069,-0.354C0.092,-0.405 0.126,-0.445 0.169,-0.476C0.212,-0.507 0.26,-0.522 0.314,-0.522C0.373,-0.522 0.42,-0.504 0.455,-0.468C0.489,-0.432 0.506,-0.383 0.506,-0.321C0.506,-0.26 0.494,-0.204 0.47,-0.154C0.447,-0.102 0.413,-0.062 0.371,-0.031C0.328,-0 0.279,0.015 0.225,0.015ZM0.233,-0.063C0.266,-0.063 0.295,-0.074 0.322,-0.095C0.348,-0.116 0.369,-0.145 0.385,-0.184C0.4,-0.223 0.408,-0.267 0.408,-0.316C0.408,-0.357 0.399,-0.388 0.382,-0.41C0.364,-0.433 0.339,-0.444 0.306,-0.444C0.273,-0.444 0.244,-0.434 0.218,-0.412C0.191,-0.392 0.17,-0.362 0.155,-0.323C0.139,-0.284 0.131,-0.24 0.131,-0.191C0.131,-0.15 0.14,-0.119 0.158,-0.097C0.175,-0.074 0.2,-0.063 0.233,-0.063Z" style="fill-rule:nonzero;"/>
                    </g>
                    <g transform="matrix(41.6667,0,0,41.6667,249.958,825.761)">
                        <path d="M0.165,-0.236C0.134,-0.253 0.111,-0.272 0.096,-0.293C0.081,-0.313 0.074,-0.337 0.074,-0.364C0.074,-0.393 0.082,-0.42 0.098,-0.444C0.113,-0.468 0.136,-0.487 0.165,-0.501C0.194,-0.515 0.227,-0.522 0.265,-0.522C0.32,-0.522 0.367,-0.511 0.408,-0.489L0.395,-0.42C0.376,-0.429 0.355,-0.435 0.332,-0.44C0.309,-0.445 0.287,-0.447 0.266,-0.447C0.235,-0.447 0.21,-0.441 0.193,-0.428C0.176,-0.414 0.167,-0.397 0.167,-0.374C0.167,-0.348 0.186,-0.325 0.223,-0.305L0.283,-0.271C0.315,-0.254 0.338,-0.236 0.352,-0.217C0.365,-0.198 0.372,-0.175 0.372,-0.148C0.372,-0.099 0.354,-0.059 0.318,-0.029C0.282,0 0.234,0.015 0.174,0.015C0.143,0.015 0.113,0.012 0.083,0.005C0.052,-0.002 0.026,-0.011 0.005,-0.023L0.019,-0.093C0.041,-0.083 0.067,-0.075 0.096,-0.069C0.125,-0.063 0.151,-0.06 0.176,-0.06C0.208,-0.06 0.233,-0.067 0.251,-0.081C0.269,-0.094 0.278,-0.113 0.278,-0.138C0.278,-0.152 0.274,-0.164 0.266,-0.174C0.257,-0.184 0.243,-0.194 0.223,-0.205L0.165,-0.236Z" style="fill-rule:nonzero;"/>
                    </g>
                    <g transform="matrix(41.6667,0,0,41.6667,267.875,825.761)">
                        <path d="M0.225,0.015C0.166,0.015 0.119,-0.003 0.085,-0.039C0.05,-0.075 0.033,-0.124 0.033,-0.186C0.033,-0.247 0.045,-0.303 0.069,-0.354C0.092,-0.405 0.126,-0.445 0.169,-0.476C0.212,-0.507 0.26,-0.522 0.314,-0.522C0.373,-0.522 0.42,-0.504 0.455,-0.468C0.489,-0.432 0.506,-0.383 0.506,-0.321C0.506,-0.26 0.494,-0.204 0.47,-0.154C0.447,-0.102 0.413,-0.062 0.371,-0.031C0.328,-0 0.279,0.015 0.225,0.015ZM0.233,-0.063C0.266,-0.063 0.295,-0.074 0.322,-0.095C0.348,-0.116 0.369,-0.145 0.385,-0.184C0.4,-0.223 0.408,-0.267 0.408,-0.316C0.408,-0.357 0.399,-0.388 0.382,-0.41C0.364,-0.433 0.339,-0.444 0.306,-0.444C0.273,-0.444 0.244,-0.434 0.218,-0.412C0.191,-0.392 0.17,-0.362 0.155,-0.323C0.139,-0.284 0.131,-0.24 0.131,-0.191C0.131,-0.15 0.14,-0.119 0.158,-0.097C0.175,-0.074 0.2,-0.063 0.233,-0.063Z" style="fill-rule:nonzero;"/>
                    </g>
                    <g transform="matrix(41.6667,0,0,41.6667,290.333,825.761)">
                        <path d="M0.671,-0L0.722,-0.262C0.733,-0.315 0.738,-0.353 0.738,-0.376C0.738,-0.421 0.717,-0.444 0.674,-0.444C0.651,-0.444 0.625,-0.435 0.596,-0.418C0.567,-0.4 0.538,-0.375 0.51,-0.344L0.496,-0.264L0.445,-0L0.349,-0L0.4,-0.262C0.411,-0.315 0.416,-0.353 0.416,-0.376C0.416,-0.421 0.395,-0.444 0.352,-0.444C0.329,-0.444 0.303,-0.434 0.274,-0.415C0.245,-0.396 0.217,-0.369 0.189,-0.335L0.123,-0L0.027,-0L0.126,-0.507L0.205,-0.507L0.2,-0.414C0.229,-0.449 0.259,-0.475 0.292,-0.494C0.324,-0.513 0.356,-0.522 0.388,-0.522C0.425,-0.522 0.454,-0.513 0.475,-0.494C0.496,-0.474 0.509,-0.447 0.512,-0.411C0.541,-0.447 0.573,-0.474 0.607,-0.494C0.64,-0.513 0.675,-0.522 0.71,-0.522C0.75,-0.522 0.781,-0.511 0.803,-0.488C0.824,-0.465 0.835,-0.433 0.835,-0.39C0.835,-0.375 0.834,-0.36 0.832,-0.344C0.829,-0.327 0.825,-0.301 0.818,-0.264L0.767,-0L0.671,-0Z" style="fill-rule:nonzero;"/>
                    </g>
                    <g transform="matrix(41.6667,0,0,41.6667,327.25,825.761)">
                        <path d="M0.415,-0.049C0.352,-0.005 0.28,0.017 0.201,0.017C0.148,0.017 0.106,0.001 0.077,-0.031C0.048,-0.063 0.033,-0.108 0.033,-0.167C0.033,-0.212 0.04,-0.256 0.055,-0.299C0.069,-0.341 0.089,-0.379 0.116,-0.412C0.143,-0.446 0.175,-0.473 0.213,-0.494C0.251,-0.514 0.292,-0.524 0.335,-0.524C0.376,-0.524 0.408,-0.514 0.432,-0.493C0.455,-0.472 0.467,-0.444 0.467,-0.409C0.467,-0.357 0.443,-0.312 0.394,-0.274C0.345,-0.236 0.277,-0.209 0.189,-0.192L0.127,-0.18C0.127,-0.137 0.135,-0.106 0.15,-0.086C0.165,-0.068 0.191,-0.058 0.226,-0.058C0.273,-0.058 0.328,-0.075 0.389,-0.108L0.415,-0.049ZM0.318,-0.45C0.289,-0.45 0.262,-0.442 0.236,-0.425C0.211,-0.408 0.189,-0.384 0.17,-0.353C0.151,-0.322 0.139,-0.286 0.132,-0.245L0.193,-0.259C0.251,-0.272 0.296,-0.291 0.329,-0.316C0.361,-0.341 0.377,-0.369 0.377,-0.4C0.377,-0.415 0.372,-0.428 0.362,-0.437C0.351,-0.446 0.337,-0.45 0.318,-0.45Z" style="fill-rule:nonzero;"/>
                    </g>
                    <g transform="matrix(41.6667,0,0,41.6667,347.333,825.761)">
                        <path d="M0.34,-0.036C0.322,-0.023 0.301,-0.012 0.277,-0.005C0.253,0.003 0.229,0.007 0.205,0.007C0.12,0.007 0.077,-0.029 0.077,-0.102C0.077,-0.12 0.082,-0.154 0.092,-0.205L0.137,-0.431L0.045,-0.431L0.057,-0.493L0.154,-0.505L0.197,-0.649L0.275,-0.649L0.247,-0.507L0.394,-0.507L0.38,-0.431L0.233,-0.431L0.19,-0.211C0.181,-0.164 0.176,-0.133 0.176,-0.118C0.176,-0.101 0.18,-0.089 0.189,-0.082C0.198,-0.075 0.212,-0.071 0.232,-0.071C0.259,-0.071 0.288,-0.078 0.318,-0.092L0.34,-0.036Z" style="fill-rule:nonzero;"/>
                    </g>
                    <g transform="matrix(41.6667,0,0,41.6667,363.417,825.761)">
                        <path d="M0.204,-0.416C0.235,-0.451 0.267,-0.477 0.3,-0.495C0.333,-0.513 0.365,-0.522 0.398,-0.522C0.439,-0.522 0.471,-0.511 0.494,-0.488C0.517,-0.465 0.528,-0.433 0.528,-0.39C0.528,-0.375 0.527,-0.36 0.525,-0.344C0.522,-0.327 0.518,-0.301 0.511,-0.264L0.46,-0L0.364,-0L0.415,-0.262C0.426,-0.315 0.431,-0.353 0.431,-0.376C0.431,-0.421 0.408,-0.444 0.362,-0.444C0.337,-0.444 0.31,-0.434 0.279,-0.414C0.248,-0.394 0.217,-0.367 0.187,-0.332L0.123,-0L0.027,-0L0.171,-0.74L0.267,-0.74L0.204,-0.416Z" style="fill-rule:nonzero;"/>
                    </g>
                    <g transform="matrix(41.6667,0,0,41.6667,387.542,825.761)">
                        <path d="M0.198,-0.597C0.181,-0.597 0.167,-0.601 0.158,-0.61C0.148,-0.619 0.143,-0.631 0.143,-0.648C0.143,-0.667 0.15,-0.684 0.164,-0.697C0.177,-0.71 0.194,-0.717 0.214,-0.717C0.231,-0.717 0.245,-0.713 0.255,-0.704C0.264,-0.695 0.269,-0.683 0.269,-0.666C0.269,-0.647 0.262,-0.63 0.249,-0.617C0.235,-0.604 0.218,-0.597 0.198,-0.597ZM0.031,-0L0.13,-0.507L0.226,-0.507L0.127,-0L0.031,-0Z" style="fill-rule:nonzero;"/>
                    </g>
                    <g transform="matrix(41.6667,0,0,41.6667,398.083,825.761)">
                        <path d="M0.364,-0L0.415,-0.262C0.426,-0.315 0.431,-0.353 0.431,-0.376C0.431,-0.421 0.408,-0.444 0.362,-0.444C0.337,-0.444 0.31,-0.434 0.279,-0.414C0.248,-0.395 0.218,-0.368 0.189,-0.333L0.123,-0L0.027,-0L0.126,-0.507L0.205,-0.507L0.2,-0.412C0.23,-0.447 0.262,-0.474 0.297,-0.494C0.331,-0.513 0.365,-0.522 0.398,-0.522C0.439,-0.522 0.471,-0.511 0.494,-0.488C0.517,-0.465 0.528,-0.433 0.528,-0.39C0.528,-0.375 0.527,-0.36 0.525,-0.344C0.522,-0.327 0.518,-0.301 0.511,-0.264L0.46,-0L0.364,-0Z" style="fill-rule:nonzero;"/>
                    </g>
                    <g transform="matrix(41.6667,0,0,41.6667,422.208,825.761)">
                        <path d="M0.35,-0.112C0.323,-0.079 0.294,-0.053 0.263,-0.035C0.231,-0.016 0.199,-0.007 0.168,-0.007C0.125,-0.007 0.091,-0.021 0.068,-0.05C0.045,-0.078 0.033,-0.118 0.033,-0.17C0.033,-0.229 0.046,-0.285 0.073,-0.338C0.1,-0.391 0.137,-0.435 0.184,-0.47C0.231,-0.505 0.282,-0.522 0.339,-0.522C0.366,-0.522 0.395,-0.518 0.428,-0.511C0.46,-0.504 0.49,-0.494 0.518,-0.482L0.436,-0.061C0.418,0.031 0.384,0.1 0.334,0.147C0.283,0.194 0.218,0.218 0.137,0.218C0.083,0.218 0.034,0.206 -0.01,0.181L0.005,0.109C0.051,0.129 0.095,0.139 0.138,0.139C0.196,0.139 0.241,0.122 0.273,0.089C0.305,0.056 0.328,0.003 0.342,-0.07L0.35,-0.112ZM0.203,-0.085C0.227,-0.085 0.253,-0.095 0.281,-0.116C0.31,-0.136 0.339,-0.165 0.368,-0.203L0.414,-0.434C0.383,-0.441 0.358,-0.445 0.338,-0.445C0.302,-0.445 0.268,-0.433 0.237,-0.41C0.206,-0.387 0.18,-0.355 0.16,-0.314C0.14,-0.273 0.13,-0.228 0.13,-0.18C0.13,-0.117 0.154,-0.085 0.203,-0.085Z" style="fill-rule:nonzero;"/>
                    </g>
                </g>
            </g>
            <g transform="matrix(-0.982985,-0.156434,-0.15569,0.987688,1185.37,-268.56)">
                <g transform="matrix(41.6667,0,0,41.6667,247.5,784.094)">
                    <path d="M0.348,0.011C0.171,0.011 0.083,-0.076 0.083,-0.25C0.083,-0.336 0.106,-0.402 0.151,-0.448C0.196,-0.494 0.262,-0.517 0.347,-0.517C0.377,-0.517 0.407,-0.513 0.437,-0.506C0.466,-0.499 0.49,-0.489 0.509,-0.477L0.509,-0.411C0.458,-0.433 0.407,-0.444 0.356,-0.444C0.294,-0.444 0.248,-0.429 0.219,-0.399C0.189,-0.368 0.174,-0.321 0.174,-0.258L0.174,-0.248C0.174,-0.183 0.189,-0.136 0.22,-0.107C0.25,-0.077 0.298,-0.062 0.364,-0.062C0.414,-0.062 0.464,-0.074 0.514,-0.098L0.514,-0.031C0.492,-0.018 0.467,-0.007 0.438,-0C0.409,0.007 0.379,0.011 0.348,0.011Z" style="fill-rule:nonzero;"/>
                </g>
                <g transform="matrix(41.6667,0,0,41.6667,272.5,784.094)">
                    <path d="M0.241,0.013C0.193,0.013 0.155,-0.001 0.126,-0.028C0.097,-0.055 0.083,-0.09 0.083,-0.135C0.083,-0.184 0.101,-0.223 0.136,-0.252C0.171,-0.281 0.218,-0.295 0.277,-0.295C0.316,-0.295 0.361,-0.288 0.412,-0.275L0.412,-0.348C0.412,-0.385 0.403,-0.41 0.386,-0.426C0.369,-0.441 0.338,-0.448 0.295,-0.448C0.24,-0.448 0.18,-0.438 0.117,-0.417L0.117,-0.483C0.14,-0.494 0.17,-0.503 0.206,-0.51C0.242,-0.518 0.277,-0.521 0.31,-0.521C0.373,-0.521 0.42,-0.508 0.451,-0.483C0.482,-0.457 0.497,-0.417 0.497,-0.364L0.497,-0L0.423,-0L0.415,-0.053C0.388,-0.032 0.36,-0.015 0.33,-0.004C0.3,0.007 0.27,0.013 0.241,0.013ZM0.261,-0.056C0.307,-0.056 0.357,-0.073 0.412,-0.108L0.412,-0.22C0.371,-0.229 0.332,-0.234 0.295,-0.234C0.212,-0.234 0.171,-0.202 0.171,-0.139C0.171,-0.112 0.179,-0.092 0.195,-0.078C0.21,-0.063 0.232,-0.056 0.261,-0.056Z" style="fill-rule:nonzero;"/>
                </g>
                <g transform="matrix(41.6667,0,0,41.6667,297.5,784.094)">
                    <path d="M0.294,0.015C0.255,0.015 0.217,0.011 0.181,0.003C0.144,-0.005 0.113,-0.016 0.086,-0.031L0.086,-0.101C0.116,-0.088 0.149,-0.077 0.186,-0.07C0.223,-0.063 0.259,-0.059 0.295,-0.059C0.337,-0.059 0.37,-0.066 0.393,-0.079C0.416,-0.092 0.427,-0.111 0.427,-0.135C0.427,-0.154 0.42,-0.169 0.406,-0.18C0.391,-0.191 0.366,-0.2 0.331,-0.209L0.243,-0.23C0.191,-0.242 0.153,-0.26 0.128,-0.283C0.102,-0.307 0.09,-0.338 0.09,-0.376C0.09,-0.422 0.108,-0.458 0.145,-0.483C0.182,-0.508 0.233,-0.521 0.298,-0.521C0.331,-0.521 0.366,-0.517 0.402,-0.509C0.437,-0.502 0.466,-0.493 0.488,-0.482L0.488,-0.414C0.46,-0.424 0.429,-0.432 0.394,-0.438C0.359,-0.444 0.327,-0.447 0.298,-0.447C0.259,-0.447 0.229,-0.441 0.207,-0.429C0.187,-0.417 0.176,-0.4 0.176,-0.378C0.176,-0.36 0.183,-0.346 0.197,-0.335C0.211,-0.324 0.237,-0.315 0.274,-0.306L0.363,-0.285C0.416,-0.272 0.455,-0.254 0.479,-0.231C0.503,-0.208 0.515,-0.177 0.515,-0.138C0.515,-0.091 0.495,-0.054 0.456,-0.027C0.416,0.001 0.362,0.015 0.294,0.015Z" style="fill-rule:nonzero;"/>
                </g>
                <g transform="matrix(41.6667,0,0,41.6667,322.5,784.094)">
                    <path d="M0.327,0.015C0.243,0.015 0.179,-0.008 0.136,-0.054C0.092,-0.099 0.07,-0.166 0.07,-0.254C0.07,-0.338 0.091,-0.404 0.134,-0.451C0.177,-0.498 0.236,-0.521 0.312,-0.521C0.377,-0.521 0.428,-0.503 0.465,-0.468C0.501,-0.432 0.519,-0.382 0.519,-0.317C0.519,-0.286 0.517,-0.259 0.512,-0.234L0.156,-0.234C0.159,-0.173 0.175,-0.128 0.204,-0.1C0.234,-0.072 0.278,-0.058 0.338,-0.058C0.399,-0.058 0.456,-0.068 0.509,-0.089L0.509,-0.024C0.486,-0.012 0.459,-0.003 0.427,0.004C0.395,0.011 0.362,0.015 0.327,0.015ZM0.438,-0.296C0.439,-0.303 0.439,-0.313 0.439,-0.324C0.439,-0.365 0.428,-0.397 0.406,-0.419C0.384,-0.441 0.352,-0.452 0.31,-0.452C0.264,-0.452 0.228,-0.439 0.202,-0.412C0.176,-0.386 0.161,-0.347 0.156,-0.296L0.438,-0.296Z" style="fill-rule:nonzero;"/>
                </g>
                <g transform="matrix(41.6667,0,0,41.6667,372.5,784.094)">
                    <path d="M0.077,-0.072C0.165,-0.162 0.232,-0.234 0.279,-0.286C0.326,-0.34 0.359,-0.383 0.379,-0.418C0.398,-0.453 0.408,-0.486 0.408,-0.517C0.408,-0.552 0.398,-0.579 0.377,-0.599C0.356,-0.619 0.327,-0.629 0.29,-0.629C0.261,-0.629 0.229,-0.623 0.196,-0.61C0.163,-0.597 0.129,-0.578 0.096,-0.554L0.096,-0.632C0.127,-0.658 0.16,-0.677 0.193,-0.69C0.226,-0.702 0.263,-0.708 0.302,-0.708C0.363,-0.708 0.411,-0.691 0.448,-0.657C0.484,-0.623 0.502,-0.578 0.502,-0.523C0.502,-0.488 0.493,-0.452 0.475,-0.416C0.458,-0.379 0.427,-0.335 0.382,-0.283C0.337,-0.232 0.27,-0.163 0.181,-0.076L0.534,-0.076L0.534,-0L0.077,-0L0.077,-0.072Z" style="fill-rule:nonzero;"/>
                </g>
                <g transform="matrix(41.6667,0,0,41.6667,397.5,784.094)">
                    <path d="M0.3,-0.358C0.276,-0.358 0.257,-0.365 0.242,-0.38C0.227,-0.395 0.22,-0.414 0.22,-0.438C0.22,-0.461 0.228,-0.48 0.243,-0.495C0.258,-0.51 0.277,-0.517 0.3,-0.517C0.323,-0.517 0.343,-0.51 0.358,-0.495C0.373,-0.48 0.38,-0.461 0.38,-0.438C0.38,-0.414 0.373,-0.395 0.358,-0.38C0.343,-0.365 0.324,-0.358 0.3,-0.358ZM0.3,0.014C0.276,0.014 0.257,0.007 0.242,-0.008C0.227,-0.023 0.22,-0.042 0.22,-0.066C0.22,-0.089 0.228,-0.108 0.243,-0.123C0.258,-0.138 0.277,-0.145 0.3,-0.145C0.323,-0.145 0.343,-0.138 0.358,-0.123C0.373,-0.108 0.38,-0.089 0.38,-0.066C0.38,-0.042 0.373,-0.023 0.358,-0.008C0.343,0.007 0.324,0.014 0.3,0.014Z" style="fill-rule:nonzero;"/>
                </g>
            </g>
            <g transform="matrix(6.12323e-17,-1,0.888889,5.44288e-17,583.913,857.935)">
                <g transform="matrix(-0.965926,-0.289785,-0.258819,1.08149,824.792,-273.273)">
                    <path d="M322.481,589.611L300,625L285.177,585.781L301.915,606.348L322.481,589.611Z"/>
                    <path d="M322.297,407.786C322.297,407.786 307.318,553.707 301.915,606.348" style="fill:none;stroke:black;stroke-width:4.17px;"/>
                </g>
            </g>
        </g>
        <g id="Case-2" serif:id="Case 2" transform="matrix(0.260057,0.970547,-0.965926,0.258819,942.333,-338.237)">
            <g transform="matrix(0.257587,-0.965926,4.94718,1.33193,80.1816,626.466)">
                <g transform="matrix(1,-5.39341e-18,-0,0.194318,-358.065,19.0967)">
                    <path d="M537.5,781.75L500,763L537.5,744.25L518.75,763L537.5,781.75Z"/>
                    <path d="M700,725L700,763L518.75,763" style="fill:none;stroke:black;stroke-width:4.17px;"/>
                </g>
            </g>
            <g id="Do-Something-13" serif:id="Do Something 1" transform="matrix(0.257587,-0.965926,0.890117,0.239647,333.074,1220.54)">
                <g transform="matrix(0.69,-8.27338e-18,-5.47181e-18,1.33071,510,170.643)">
                    <rect x="347.826" y="134.783" width="289.855" height="81.159" style="fill:rgb(231,232,233);stroke:rgb(35,31,32);stroke-width:4.17px;"/>
                </g>
                <g transform="matrix(1,-1.06593e-31,0,1.08,502.5,-455.522)">
                    <g transform="matrix(41.6667,0,0,41.6667,321.708,784.094)">
                        <path d="M0.043,-0L0.178,-0.693L0.396,-0.693C0.48,-0.693 0.546,-0.669 0.595,-0.621C0.644,-0.573 0.668,-0.508 0.668,-0.425C0.668,-0.347 0.652,-0.276 0.62,-0.212C0.588,-0.147 0.543,-0.096 0.484,-0.058C0.425,-0.019 0.359,-0 0.285,-0L0.043,-0ZM0.262,-0.615L0.158,-0.078L0.282,-0.078C0.335,-0.078 0.383,-0.092 0.426,-0.12C0.469,-0.148 0.502,-0.188 0.528,-0.24C0.553,-0.292 0.565,-0.352 0.565,-0.42C0.565,-0.481 0.55,-0.529 0.519,-0.564C0.488,-0.598 0.446,-0.615 0.391,-0.615L0.262,-0.615Z" style="fill-rule:nonzero;"/>
                    </g>
                    <g transform="matrix(41.6667,0,0,41.6667,350.833,784.094)">
                        <path d="M0.225,0.015C0.166,0.015 0.119,-0.003 0.085,-0.039C0.05,-0.075 0.033,-0.124 0.033,-0.186C0.033,-0.247 0.045,-0.303 0.069,-0.354C0.092,-0.405 0.126,-0.445 0.169,-0.476C0.212,-0.507 0.26,-0.522 0.314,-0.522C0.373,-0.522 0.42,-0.504 0.455,-0.468C0.489,-0.432 0.506,-0.383 0.506,-0.321C0.506,-0.26 0.494,-0.204 0.47,-0.154C0.447,-0.102 0.413,-0.062 0.371,-0.031C0.328,-0 0.279,0.015 0.225,0.015ZM0.233,-0.063C0.266,-0.063 0.295,-0.074 0.322,-0.095C0.348,-0.116 0.369,-0.145 0.385,-0.184C0.4,-0.223 0.408,-0.267 0.408,-0.316C0.408,-0.357 0.399,-0.388 0.382,-0.41C0.364,-0.433 0.339,-0.444 0.306,-0.444C0.273,-0.444 0.244,-0.434 0.218,-0.412C0.191,-0.392 0.17,-0.362 0.155,-0.323C0.139,-0.284 0.131,-0.24 0.131,-0.191C0.131,-0.15 0.14,-0.119 0.158,-0.097C0.175,-0.074 0.2,-0.063 0.233,-0.063Z" style="fill-rule:nonzero;"/>
                    </g>
                    <g transform="matrix(41.6667,0,0,41.6667,249.958,825.761)">
                        <path d="M0.165,-0.236C0.134,-0.253 0.111,-0.272 0.096,-0.293C0.081,-0.313 0.074,-0.337 0.074,-0.364C0.074,-0.393 0.082,-0.42 0.098,-0.444C0.113,-0.468 0.136,-0.487 0.165,-0.501C0.194,-0.515 0.227,-0.522 0.265,-0.522C0.32,-0.522 0.367,-0.511 0.408,-0.489L0.395,-0.42C0.376,-0.429 0.355,-0.435 0.332,-0.44C0.309,-0.445 0.287,-0.447 0.266,-0.447C0.235,-0.447 0.21,-0.441 0.193,-0.428C0.176,-0.414 0.167,-0.397 0.167,-0.374C0.167,-0.348 0.186,-0.325 0.223,-0.305L0.283,-0.271C0.315,-0.254 0.338,-0.236 0.352,-0.217C0.365,-0.198 0.372,-0.175 0.372,-0.148C0.372,-0.099 0.354,-0.059 0.318,-0.029C0.282,0 0.234,0.015 0.174,0.015C0.143,0.015 0.113,0.012 0.083,0.005C0.052,-0.002 0.026,-0.011 0.005,-0.023L0.019,-0.093C0.041,-0.083 0.067,-0.075 0.096,-0.069C0.125,-0.063 0.151,-0.06 0.176,-0.06C0.208,-0.06 0.233,-0.067 0.251,-0.081C0.269,-0.094 0.278,-0.113 0.278,-0.138C0.278,-0.152 0.274,-0.164 0.266,-0.174C0.257,-0.184 0.243,-0.194 0.223,-0.205L0.165,-0.236Z" style="fill-rule:nonzero;"/>
                    </g>
                    <g transform="matrix(41.6667,0,0,41.6667,267.875,825.761)">
                        <path d="M0.225,0.015C0.166,0.015 0.119,-0.003 0.085,-0.039C0.05,-0.075 0.033,-0.124 0.033,-0.186C0.033,-0.247 0.045,-0.303 0.069,-0.354C0.092,-0.405 0.126,-0.445 0.169,-0.476C0.212,-0.507 0.26,-0.522 0.314,-0.522C0.373,-0.522 0.42,-0.504 0.455,-0.468C0.489,-0.432 0.506,-0.383 0.506,-0.321C0.506,-0.26 0.494,-0.204 0.47,-0.154C0.447,-0.102 0.413,-0.062 0.371,-0.031C0.328,-0 0.279,0.015 0.225,0.015ZM0.233,-0.063C0.266,-0.063 0.295,-0.074 0.322,-0.095C0.348,-0.116 0.369,-0.145 0.385,-0.184C0.4,-0.223 0.408,-0.267 0.408,-0.316C0.408,-0.357 0.399,-0.388 0.382,-0.41C0.364,-0.433 0.339,-0.444 0.306,-0.444C0.273,-0.444 0.244,-0.434 0.218,-0.412C0.191,-0.392 0.17,-0.362 0.155,-0.323C0.139,-0.284 0.131,-0.24 0.131,-0.191C0.131,-0.15 0.14,-0.119 0.158,-0.097C0.175,-0.074 0.2,-0.063 0.233,-0.063Z" style="fill-rule:nonzero;"/>
                    </g>
                    <g transform="matrix(41.6667,0,0,41.6667,290.333,825.761)">
                        <path d="M0.671,-0L0.722,-0.262C0.733,-0.315 0.738,-0.353 0.738,-0.376C0.738,-0.421 0.717,-0.444 0.674,-0.444C0.651,-0.444 0.625,-0.435 0.596,-0.418C0.567,-0.4 0.538,-0.375 0.51,-0.344L0.496,-0.264L0.445,-0L0.349,-0L0.4,-0.262C0.411,-0.315 0.416,-0.353 0.416,-0.376C0.416,-0.421 0.395,-0.444 0.352,-0.444C0.329,-0.444 0.303,-0.434 0.274,-0.415C0.245,-0.396 0.217,-0.369 0.189,-0.335L0.123,-0L0.027,-0L0.126,-0.507L0.205,-0.507L0.2,-0.414C0.229,-0.449 0.259,-0.475 0.292,-0.494C0.324,-0.513 0.356,-0.522 0.388,-0.522C0.425,-0.522 0.454,-0.513 0.475,-0.494C0.496,-0.474 0.509,-0.447 0.512,-0.411C0.541,-0.447 0.573,-0.474 0.607,-0.494C0.64,-0.513 0.675,-0.522 0.71,-0.522C0.75,-0.522 0.781,-0.511 0.803,-0.488C0.824,-0.465 0.835,-0.433 0.835,-0.39C0.835,-0.375 0.834,-0.36 0.832,-0.344C0.829,-0.327 0.825,-0.301 0.818,-0.264L0.767,-0L0.671,-0Z" style="fill-rule:nonzero;"/>
                    </g>
                    <g transform="matrix(41.6667,0,0,41.6667,327.25,825.761)">
                        <path d="M0.415,-0.049C0.352,-0.005 0.28,0.017 0.201,0.017C0.148,0.017 0.106,0.001 0.077,-0.031C0.048,-0.063 0.033,-0.108 0.033,-0.167C0.033,-0.212 0.04,-0.256 0.055,-0.299C0.069,-0.341 0.089,-0.379 0.116,-0.412C0.143,-0.446 0.175,-0.473 0.213,-0.494C0.251,-0.514 0.292,-0.524 0.335,-0.524C0.376,-0.524 0.408,-0.514 0.432,-0.493C0.455,-0.472 0.467,-0.444 0.467,-0.409C0.467,-0.357 0.443,-0.312 0.394,-0.274C0.345,-0.236 0.277,-0.209 0.189,-0.192L0.127,-0.18C0.127,-0.137 0.135,-0.106 0.15,-0.086C0.165,-0.068 0.191,-0.058 0.226,-0.058C0.273,-0.058 0.328,-0.075 0.389,-0.108L0.415,-0.049ZM0.318,-0.45C0.289,-0.45 0.262,-0.442 0.236,-0.425C0.211,-0.408 0.189,-0.384 0.17,-0.353C0.151,-0.322 0.139,-0.286 0.132,-0.245L0.193,-0.259C0.251,-0.272 0.296,-0.291 0.329,-0.316C0.361,-0.341 0.377,-0.369 0.377,-0.4C0.377,-0.415 0.372,-0.428 0.362,-0.437C0.351,-0.446 0.337,-0.45 0.318,-0.45Z" style="fill-rule:nonzero;"/>
                    </g>
                    <g transform="matrix(41.6667,0,0,41.6667,347.333,825.761)">
                        <path d="M0.34,-0.036C0.322,-0.023 0.301,-0.012 0.277,-0.005C0.253,0.003 0.229,0.007 0.205,0.007C0.12,0.007 0.077,-0.029 0.077,-0.102C0.077,-0.12 0.082,-0.154 0.092,-0.205L0.137,-0.431L0.045,-0.431L0.057,-0.493L0.154,-0.505L0.197,-0.649L0.275,-0.649L0.247,-0.507L0.394,-0.507L0.38,-0.431L0.233,-0.431L0.19,-0.211C0.181,-0.164 0.176,-0.133 0.176,-0.118C0.176,-0.101 0.18,-0.089 0.189,-0.082C0.198,-0.075 0.212,-0.071 0.232,-0.071C0.259,-0.071 0.288,-0.078 0.318,-0.092L0.34,-0.036Z" style="fill-rule:nonzero;"/>
                    </g>
                    <g transform="matrix(41.6667,0,0,41.6667,363.417,825.761)">
                        <path d="M0.204,-0.416C0.235,-0.451 0.267,-0.477 0.3,-0.495C0.333,-0.513 0.365,-0.522 0.398,-0.522C0.439,-0.522 0.471,-0.511 0.494,-0.488C0.517,-0.465 0.528,-0.433 0.528,-0.39C0.528,-0.375 0.527,-0.36 0.525,-0.344C0.522,-0.327 0.518,-0.301 0.511,-0.264L0.46,-0L0.364,-0L0.415,-0.262C0.426,-0.315 0.431,-0.353 0.431,-0.376C0.431,-0.421 0.408,-0.444 0.362,-0.444C0.337,-0.444 0.31,-0.434 0.279,-0.414C0.248,-0.394 0.217,-0.367 0.187,-0.332L0.123,-0L0.027,-0L0.171,-0.74L0.267,-0.74L0.204,-0.416Z" style="fill-rule:nonzero;"/>
                    </g>
                    <g transform="matrix(41.6667,0,0,41.6667,387.542,825.761)">
                        <path d="M0.198,-0.597C0.181,-0.597 0.167,-0.601 0.158,-0.61C0.148,-0.619 0.143,-0.631 0.143,-0.648C0.143,-0.667 0.15,-0.684 0.164,-0.697C0.177,-0.71 0.194,-0.717 0.214,-0.717C0.231,-0.717 0.245,-0.713 0.255,-0.704C0.264,-0.695 0.269,-0.683 0.269,-0.666C0.269,-0.647 0.262,-0.63 0.249,-0.617C0.235,-0.604 0.218,-0.597 0.198,-0.597ZM0.031,-0L0.13,-0.507L0.226,-0.507L0.127,-0L0.031,-0Z" style="fill-rule:nonzero;"/>
                    </g>
                    <g transform="matrix(41.6667,0,0,41.6667,398.083,825.761)">
                        <path d="M0.364,-0L0.415,-0.262C0.426,-0.315 0.431,-0.353 0.431,-0.376C0.431,-0.421 0.408,-0.444 0.362,-0.444C0.337,-0.444 0.31,-0.434 0.279,-0.414C0.248,-0.395 0.218,-0.368 0.189,-0.333L0.123,-0L0.027,-0L0.126,-0.507L0.205,-0.507L0.2,-0.412C0.23,-0.447 0.262,-0.474 0.297,-0.494C0.331,-0.513 0.365,-0.522 0.398,-0.522C0.439,-0.522 0.471,-0.511 0.494,-0.488C0.517,-0.465 0.528,-0.433 0.528,-0.39C0.528,-0.375 0.527,-0.36 0.525,-0.344C0.522,-0.327 0.518,-0.301 0.511,-0.264L0.46,-0L0.364,-0Z" style="fill-rule:nonzero;"/>
                    </g>
                    <g transform="matrix(41.6667,0,0,41.6667,422.208,825.761)">
                        <path d="M0.35,-0.112C0.323,-0.079 0.294,-0.053 0.263,-0.035C0.231,-0.016 0.199,-0.007 0.168,-0.007C0.125,-0.007 0.091,-0.021 0.068,-0.05C0.045,-0.078 0.033,-0.118 0.033,-0.17C0.033,-0.229 0.046,-0.285 0.073,-0.338C0.1,-0.391 0.137,-0.435 0.184,-0.47C0.231,-0.505 0.282,-0.522 0.339,-0.522C0.366,-0.522 0.395,-0.518 0.428,-0.511C0.46,-0.504 0.49,-0.494 0.518,-0.482L0.436,-0.061C0.418,0.031 0.384,0.1 0.334,0.147C0.283,0.194 0.218,0.218 0.137,0.218C0.083,0.218 0.034,0.206 -0.01,0.181L0.005,0.109C0.051,0.129 0.095,0.139 0.138,0.139C0.196,0.139 0.241,0.122 0.273,0.089C0.305,0.056 0.328,0.003 0.342,-0.07L0.35,-0.112ZM0.203,-0.085C0.227,-0.085 0.253,-0.095 0.281,-0.116C0.31,-0.136 0.339,-0.165 0.368,-0.203L0.414,-0.434C0.383,-0.441 0.358,-0.445 0.338,-0.445C0.302,-0.445 0.268,-0.433 0.237,-0.41C0.206,-0.387 0.18,-0.355 0.16,-0.314C0.14,-0.273 0.13,-0.228 0.13,-0.18C0.13,-0.117 0.154,-0.085 0.203,-0.085Z" style="fill-rule:nonzero;"/>
                    </g>
                </g>
            </g>
            <g transform="matrix(0.982985,0.156434,-0.15569,0.987688,535.947,-370.167)">
                <g transform="matrix(41.6667,0,0,41.6667,247.5,784.094)">
                    <path d="M0.348,0.011C0.171,0.011 0.083,-0.076 0.083,-0.25C0.083,-0.336 0.106,-0.402 0.151,-0.448C0.196,-0.494 0.262,-0.517 0.347,-0.517C0.377,-0.517 0.407,-0.513 0.437,-0.506C0.466,-0.499 0.49,-0.489 0.509,-0.477L0.509,-0.411C0.458,-0.433 0.407,-0.444 0.356,-0.444C0.294,-0.444 0.248,-0.429 0.219,-0.399C0.189,-0.368 0.174,-0.321 0.174,-0.258L0.174,-0.248C0.174,-0.183 0.189,-0.136 0.22,-0.107C0.25,-0.077 0.298,-0.062 0.364,-0.062C0.414,-0.062 0.464,-0.074 0.514,-0.098L0.514,-0.031C0.492,-0.018 0.467,-0.007 0.438,-0C0.409,0.007 0.379,0.011 0.348,0.011Z" style="fill-rule:nonzero;"/>
                </g>
                <g transform="matrix(41.6667,0,0,41.6667,272.5,784.094)">
                    <path d="M0.241,0.013C0.193,0.013 0.155,-0.001 0.126,-0.028C0.097,-0.055 0.083,-0.09 0.083,-0.135C0.083,-0.184 0.101,-0.223 0.136,-0.252C0.171,-0.281 0.218,-0.295 0.277,-0.295C0.316,-0.295 0.361,-0.288 0.412,-0.275L0.412,-0.348C0.412,-0.385 0.403,-0.41 0.386,-0.426C0.369,-0.441 0.338,-0.448 0.295,-0.448C0.24,-0.448 0.18,-0.438 0.117,-0.417L0.117,-0.483C0.14,-0.494 0.17,-0.503 0.206,-0.51C0.242,-0.518 0.277,-0.521 0.31,-0.521C0.373,-0.521 0.42,-0.508 0.451,-0.483C0.482,-0.457 0.497,-0.417 0.497,-0.364L0.497,-0L0.423,-0L0.415,-0.053C0.388,-0.032 0.36,-0.015 0.33,-0.004C0.3,0.007 0.27,0.013 0.241,0.013ZM0.261,-0.056C0.307,-0.056 0.357,-0.073 0.412,-0.108L0.412,-0.22C0.371,-0.229 0.332,-0.234 0.295,-0.234C0.212,-0.234 0.171,-0.202 0.171,-0.139C0.171,-0.112 0.179,-0.092 0.195,-0.078C0.21,-0.063 0.232,-0.056 0.261,-0.056Z" style="fill-rule:nonzero;"/>
                </g>
                <g transform="matrix(41.6667,0,0,41.6667,297.5,784.094)">
                    <path d="M0.294,0.015C0.255,0.015 0.217,0.011 0.181,0.003C0.144,-0.005 0.113,-0.016 0.086,-0.031L0.086,-0.101C0.116,-0.088 0.149,-0.077 0.186,-0.07C0.223,-0.063 0.259,-0.059 0.295,-0.059C0.337,-0.059 0.37,-0.066 0.393,-0.079C0.416,-0.092 0.427,-0.111 0.427,-0.135C0.427,-0.154 0.42,-0.169 0.406,-0.18C0.391,-0.191 0.366,-0.2 0.331,-0.209L0.243,-0.23C0.191,-0.242 0.153,-0.26 0.128,-0.283C0.102,-0.307 0.09,-0.338 0.09,-0.376C0.09,-0.422 0.108,-0.458 0.145,-0.483C0.182,-0.508 0.233,-0.521 0.298,-0.521C0.331,-0.521 0.366,-0.517 0.402,-0.509C0.437,-0.502 0.466,-0.493 0.488,-0.482L0.488,-0.414C0.46,-0.424 0.429,-0.432 0.394,-0.438C0.359,-0.444 0.327,-0.447 0.298,-0.447C0.259,-0.447 0.229,-0.441 0.207,-0.429C0.187,-0.417 0.176,-0.4 0.176,-0.378C0.176,-0.36 0.183,-0.346 0.197,-0.335C0.211,-0.324 0.237,-0.315 0.274,-0.306L0.363,-0.285C0.416,-0.272 0.455,-0.254 0.479,-0.231C0.503,-0.208 0.515,-0.177 0.515,-0.138C0.515,-0.091 0.495,-0.054 0.456,-0.027C0.416,0.001 0.362,0.015 0.294,0.015Z" style="fill-rule:nonzero;"/>
                </g>
                <g transform="matrix(41.6667,0,0,41.6667,322.5,784.094)">
                    <path d="M0.327,0.015C0.243,0.015 0.179,-0.008 0.136,-0.054C0.092,-0.099 0.07,-0.166 0.07,-0.254C0.07,-0.338 0.091,-0.404 0.134,-0.451C0.177,-0.498 0.236,-0.521 0.312,-0.521C0.377,-0.521 0.428,-0.503 0.465,-0.468C0.501,-0.432 0.519,-0.382 0.519,-0.317C0.519,-0.286 0.517,-0.259 0.512,-0.234L0.156,-0.234C0.159,-0.173 0.175,-0.128 0.204,-0.1C0.234,-0.072 0.278,-0.058 0.338,-0.058C0.399,-0.058 0.456,-0.068 0.509,-0.089L0.509,-0.024C0.486,-0.012 0.459,-0.003 0.427,0.004C0.395,0.011 0.362,0.015 0.327,0.015ZM0.438,-0.296C0.439,-0.303 0.439,-0.313 0.439,-0.324C0.439,-0.365 0.428,-0.397 0.406,-0.419C0.384,-0.441 0.352,-0.452 0.31,-0.452C0.264,-0.452 0.228,-0.439 0.202,-0.412C0.176,-0.386 0.161,-0.347 0.156,-0.296L0.438,-0.296Z" style="fill-rule:nonzero;"/>
                </g>
                <g transform="matrix(41.6667,0,0,41.6667,372.5,784.094)">
                    <path d="M0.093,-0.076L0.269,-0.076L0.269,-0.601L0.099,-0.534L0.099,-0.605L0.275,-0.693L0.359,-0.693L0.359,-0.076L0.527,-0.076L0.527,-0L0.093,-0L0.093,-0.076Z" style="fill-rule:nonzero;"/>
                </g>
                <g transform="matrix(41.6667,0,0,41.6667,397.5,784.094)">
                    <path d="M0.3,-0.358C0.276,-0.358 0.257,-0.365 0.242,-0.38C0.227,-0.395 0.22,-0.414 0.22,-0.438C0.22,-0.461 0.228,-0.48 0.243,-0.495C0.258,-0.51 0.277,-0.517 0.3,-0.517C0.323,-0.517 0.343,-0.51 0.358,-0.495C0.373,-0.48 0.38,-0.461 0.38,-0.438C0.38,-0.414 0.373,-0.395 0.358,-0.38C0.343,-0.365 0.324,-0.358 0.3,-0.358ZM0.3,0.014C0.276,0.014 0.257,0.007 0.242,-0.008C0.227,-0.023 0.22,-0.042 0.22,-0.066C0.22,-0.089 0.228,-0.108 0.243,-0.123C0.258,-0.138 0.277,-0.145 0.3,-0.145C0.323,-0.145 0.343,-0.138 0.358,-0.123C0.373,-0.108 0.38,-0.089 0.38,-0.066C0.38,-0.042 0.373,-0.023 0.358,-0.008C0.343,0.007 0.324,0.014 0.3,0.014Z" style="fill-rule:nonzero;"/>
                </g>
            </g>
            <g transform="matrix(6.12323e-17,-1,0.888889,5.44288e-17,583.913,857.935)">
                <g transform="matrix(0.965926,0.289785,-0.258819,1.08149,-139.831,-564.176)">
                    <path d="M714.619,585.705L700,625L677.335,589.728L697.989,606.358L714.619,585.705Z"/>
                    <path d="M676.703,409.088C676.703,409.088 692.333,553.947 697.989,606.358" style="fill:none;stroke:black;stroke-width:4.17px;"/>
                </g>
            </g>
        </g>
        <g id="Case-1" serif:id="Case 1" transform="matrix(1,0,0,1,100,-150)">
            <g transform="matrix(1,0,0,5.1462,407.065,127.391)">
                <g transform="matrix(1,-0,-0,0.194318,-507.065,4.39329)">
                    <path d="M537.5,855.75L500,837L537.5,818.25L518.75,837L537.5,855.75Z"/>
                    <path d="M841.333,450.667L840,837L518.75,837" style="fill:none;stroke:black;stroke-width:4.17px;"/>
                </g>
            </g>
            <g id="Do-Something-14" serif:id="Do Something 1" transform="matrix(1,0,0,1,-109,150)">
                <g transform="matrix(0.69,0,0,1.23214,510,183.929)">
                    <rect x="347.826" y="134.783" width="289.855" height="81.159" style="fill:rgb(231,232,233);stroke:rgb(35,31,32);stroke-width:4.17px;"/>
                </g>
                <g transform="matrix(1,-1.06593e-31,0,1,502.5,-395.261)">
                    <g transform="matrix(41.6667,0,0,41.6667,321.708,784.094)">
                        <path d="M0.043,-0L0.178,-0.693L0.396,-0.693C0.48,-0.693 0.546,-0.669 0.595,-0.621C0.644,-0.573 0.668,-0.508 0.668,-0.425C0.668,-0.347 0.652,-0.276 0.62,-0.212C0.588,-0.147 0.543,-0.096 0.484,-0.058C0.425,-0.019 0.359,-0 0.285,-0L0.043,-0ZM0.262,-0.615L0.158,-0.078L0.282,-0.078C0.335,-0.078 0.383,-0.092 0.426,-0.12C0.469,-0.148 0.502,-0.188 0.528,-0.24C0.553,-0.292 0.565,-0.352 0.565,-0.42C0.565,-0.481 0.55,-0.529 0.519,-0.564C0.488,-0.598 0.446,-0.615 0.391,-0.615L0.262,-0.615Z" style="fill-rule:nonzero;"/>
                    </g>
                    <g transform="matrix(41.6667,0,0,41.6667,350.833,784.094)">
                        <path d="M0.225,0.015C0.166,0.015 0.119,-0.003 0.085,-0.039C0.05,-0.075 0.033,-0.124 0.033,-0.186C0.033,-0.247 0.045,-0.303 0.069,-0.354C0.092,-0.405 0.126,-0.445 0.169,-0.476C0.212,-0.507 0.26,-0.522 0.314,-0.522C0.373,-0.522 0.42,-0.504 0.455,-0.468C0.489,-0.432 0.506,-0.383 0.506,-0.321C0.506,-0.26 0.494,-0.204 0.47,-0.154C0.447,-0.102 0.413,-0.062 0.371,-0.031C0.328,-0 0.279,0.015 0.225,0.015ZM0.233,-0.063C0.266,-0.063 0.295,-0.074 0.322,-0.095C0.348,-0.116 0.369,-0.145 0.385,-0.184C0.4,-0.223 0.408,-0.267 0.408,-0.316C0.408,-0.357 0.399,-0.388 0.382,-0.41C0.364,-0.433 0.339,-0.444 0.306,-0.444C0.273,-0.444 0.244,-0.434 0.218,-0.412C0.191,-0.392 0.17,-0.362 0.155,-0.323C0.139,-0.284 0.131,-0.24 0.131,-0.191C0.131,-0.15 0.14,-0.119 0.158,-0.097C0.175,-0.074 0.2,-0.063 0.233,-0.063Z" style="fill-rule:nonzero;"/>
                    </g>
                    <g transform="matrix(41.6667,0,0,41.6667,249.958,825.761)">
                        <path d="M0.165,-0.236C0.134,-0.253 0.111,-0.272 0.096,-0.293C0.081,-0.313 0.074,-0.337 0.074,-0.364C0.074,-0.393 0.082,-0.42 0.098,-0.444C0.113,-0.468 0.136,-0.487 0.165,-0.501C0.194,-0.515 0.227,-0.522 0.265,-0.522C0.32,-0.522 0.367,-0.511 0.408,-0.489L0.395,-0.42C0.376,-0.429 0.355,-0.435 0.332,-0.44C0.309,-0.445 0.287,-0.447 0.266,-0.447C0.235,-0.447 0.21,-0.441 0.193,-0.428C0.176,-0.414 0.167,-0.397 0.167,-0.374C0.167,-0.348 0.186,-0.325 0.223,-0.305L0.283,-0.271C0.315,-0.254 0.338,-0.236 0.352,-0.217C0.365,-0.198 0.372,-0.175 0.372,-0.148C0.372,-0.099 0.354,-0.059 0.318,-0.029C0.282,0 0.234,0.015 0.174,0.015C0.143,0.015 0.113,0.012 0.083,0.005C0.052,-0.002 0.026,-0.011 0.005,-0.023L0.019,-0.093C0.041,-0.083 0.067,-0.075 0.096,-0.069C0.125,-0.063 0.151,-0.06 0.176,-0.06C0.208,-0.06 0.233,-0.067 0.251,-0.081C0.269,-0.094 0.278,-0.113 0.278,-0.138C0.278,-0.152 0.274,-0.164 0.266,-0.174C0.257,-0.184 0.243,-0.194 0.223,-0.205L0.165,-0.236Z" style="fill-rule:nonzero;"/>
                    </g>
                    <g transform="matrix(41.6667,0,0,41.6667,267.875,825.761)">
                        <path d="M0.225,0.015C0.166,0.015 0.119,-0.003 0.085,-0.039C0.05,-0.075 0.033,-0.124 0.033,-0.186C0.033,-0.247 0.045,-0.303 0.069,-0.354C0.092,-0.405 0.126,-0.445 0.169,-0.476C0.212,-0.507 0.26,-0.522 0.314,-0.522C0.373,-0.522 0.42,-0.504 0.455,-0.468C0.489,-0.432 0.506,-0.383 0.506,-0.321C0.506,-0.26 0.494,-0.204 0.47,-0.154C0.447,-0.102 0.413,-0.062 0.371,-0.031C0.328,-0 0.279,0.015 0.225,0.015ZM0.233,-0.063C0.266,-0.063 0.295,-0.074 0.322,-0.095C0.348,-0.116 0.369,-0.145 0.385,-0.184C0.4,-0.223 0.408,-0.267 0.408,-0.316C0.408,-0.357 0.399,-0.388 0.382,-0.41C0.364,-0.433 0.339,-0.444 0.306,-0.444C0.273,-0.444 0.244,-0.434 0.218,-0.412C0.191,-0.392 0.17,-0.362 0.155,-0.323C0.139,-0.284 0.131,-0.24 0.131,-0.191C0.131,-0.15 0.14,-0.119 0.158,-0.097C0.175,-0.074 0.2,-0.063 0.233,-0.063Z" style="fill-rule:nonzero;"/>
                    </g>
                    <g transform="matrix(41.6667,0,0,41.6667,290.333,825.761)">
                        <path d="M0.671,-0L0.722,-0.262C0.733,-0.315 0.738,-0.353 0.738,-0.376C0.738,-0.421 0.717,-0.444 0.674,-0.444C0.651,-0.444 0.625,-0.435 0.596,-0.418C0.567,-0.4 0.538,-0.375 0.51,-0.344L0.496,-0.264L0.445,-0L0.349,-0L0.4,-0.262C0.411,-0.315 0.416,-0.353 0.416,-0.376C0.416,-0.421 0.395,-0.444 0.352,-0.444C0.329,-0.444 0.303,-0.434 0.274,-0.415C0.245,-0.396 0.217,-0.369 0.189,-0.335L0.123,-0L0.027,-0L0.126,-0.507L0.205,-0.507L0.2,-0.414C0.229,-0.449 0.259,-0.475 0.292,-0.494C0.324,-0.513 0.356,-0.522 0.388,-0.522C0.425,-0.522 0.454,-0.513 0.475,-0.494C0.496,-0.474 0.509,-0.447 0.512,-0.411C0.541,-0.447 0.573,-0.474 0.607,-0.494C0.64,-0.513 0.675,-0.522 0.71,-0.522C0.75,-0.522 0.781,-0.511 0.803,-0.488C0.824,-0.465 0.835,-0.433 0.835,-0.39C0.835,-0.375 0.834,-0.36 0.832,-0.344C0.829,-0.327 0.825,-0.301 0.818,-0.264L0.767,-0L0.671,-0Z" style="fill-rule:nonzero;"/>
                    </g>
                    <g transform="matrix(41.6667,0,0,41.6667,327.25,825.761)">
                        <path d="M0.415,-0.049C0.352,-0.005 0.28,0.017 0.201,0.017C0.148,0.017 0.106,0.001 0.077,-0.031C0.048,-0.063 0.033,-0.108 0.033,-0.167C0.033,-0.212 0.04,-0.256 0.055,-0.299C0.069,-0.341 0.089,-0.379 0.116,-0.412C0.143,-0.446 0.175,-0.473 0.213,-0.494C0.251,-0.514 0.292,-0.524 0.335,-0.524C0.376,-0.524 0.408,-0.514 0.432,-0.493C0.455,-0.472 0.467,-0.444 0.467,-0.409C0.467,-0.357 0.443,-0.312 0.394,-0.274C0.345,-0.236 0.277,-0.209 0.189,-0.192L0.127,-0.18C0.127,-0.137 0.135,-0.106 0.15,-0.086C0.165,-0.068 0.191,-0.058 0.226,-0.058C0.273,-0.058 0.328,-0.075 0.389,-0.108L0.415,-0.049ZM0.318,-0.45C0.289,-0.45 0.262,-0.442 0.236,-0.425C0.211,-0.408 0.189,-0.384 0.17,-0.353C0.151,-0.322 0.139,-0.286 0.132,-0.245L0.193,-0.259C0.251,-0.272 0.296,-0.291 0.329,-0.316C0.361,-0.341 0.377,-0.369 0.377,-0.4C0.377,-0.415 0.372,-0.428 0.362,-0.437C0.351,-0.446 0.337,-0.45 0.318,-0.45Z" style="fill-rule:nonzero;"/>
                    </g>
                    <g transform="matrix(41.6667,0,0,41.6667,347.333,825.761)">
                        <path d="M0.34,-0.036C0.322,-0.023 0.301,-0.012 0.277,-0.005C0.253,0.003 0.229,0.007 0.205,0.007C0.12,0.007 0.077,-0.029 0.077,-0.102C0.077,-0.12 0.082,-0.154 0.092,-0.205L0.137,-0.431L0.045,-0.431L0.057,-0.493L0.154,-0.505L0.197,-0.649L0.275,-0.649L0.247,-0.507L0.394,-0.507L0.38,-0.431L0.233,-0.431L0.19,-0.211C0.181,-0.164 0.176,-0.133 0.176,-0.118C0.176,-0.101 0.18,-0.089 0.189,-0.082C0.198,-0.075 0.212,-0.071 0.232,-0.071C0.259,-0.071 0.288,-0.078 0.318,-0.092L0.34,-0.036Z" style="fill-rule:nonzero;"/>
                    </g>
                    <g transform="matrix(41.6667,0,0,41.6667,363.417,825.761)">
                        <path d="M0.204,-0.416C0.235,-0.451 0.267,-0.477 0.3,-0.495C0.333,-0.513 0.365,-0.522 0.398,-0.522C0.439,-0.522 0.471,-0.511 0.494,-0.488C0.517,-0.465 0.528,-0.433 0.528,-0.39C0.528,-0.375 0.527,-0.36 0.525,-0.344C0.522,-0.327 0.518,-0.301 0.511,-0.264L0.46,-0L0.364,-0L0.415,-0.262C0.426,-0.315 0.431,-0.353 0.431,-0.376C0.431,-0.421 0.408,-0.444 0.362,-0.444C0.337,-0.444 0.31,-0.434 0.279,-0.414C0.248,-0.394 0.217,-0.367 0.187,-0.332L0.123,-0L0.027,-0L0.171,-0.74L0.267,-0.74L0.204,-0.416Z" style="fill-rule:nonzero;"/>
                    </g>
                    <g transform="matrix(41.6667,0,0,41.6667,387.542,825.761)">
                        <path d="M0.198,-0.597C0.181,-0.597 0.167,-0.601 0.158,-0.61C0.148,-0.619 0.143,-0.631 0.143,-0.648C0.143,-0.667 0.15,-0.684 0.164,-0.697C0.177,-0.71 0.194,-0.717 0.214,-0.717C0.231,-0.717 0.245,-0.713 0.255,-0.704C0.264,-0.695 0.269,-0.683 0.269,-0.666C0.269,-0.647 0.262,-0.63 0.249,-0.617C0.235,-0.604 0.218,-0.597 0.198,-0.597ZM0.031,-0L0.13,-0.507L0.226,-0.507L0.127,-0L0.031,-0Z" style="fill-rule:nonzero;"/>
                    </g>
                    <g transform="matrix(41.6667,0,0,41.6667,398.083,825.761)">
                        <path d="M0.364,-0L0.415,-0.262C0.426,-0.315 0.431,-0.353 0.431,-0.376C0.431,-0.421 0.408,-0.444 0.362,-0.444C0.337,-0.444 0.31,-0.434 0.279,-0.414C0.248,-0.395 0.218,-0.368 0.189,-0.333L0.123,-0L0.027,-0L0.126,-0.507L0.205,-0.507L0.2,-0.412C0.23,-0.447 0.262,-0.474 0.297,-0.494C0.331,-0.513 0.365,-0.522 0.398,-0.522C0.439,-0.522 0.471,-0.511 0.494,-0.488C0.517,-0.465 0.528,-0.433 0.528,-0.39C0.528,-0.375 0.527,-0.36 0.525,-0.344C0.522,-0.327 0.518,-0.301 0.511,-0.264L0.46,-0L0.364,-0Z" style="fill-rule:nonzero;"/>
                    </g>
                    <g transform="matrix(41.6667,0,0,41.6667,422.208,825.761)">
                        <path d="M0.35,-0.112C0.323,-0.079 0.294,-0.053 0.263,-0.035C0.231,-0.016 0.199,-0.007 0.168,-0.007C0.125,-0.007 0.091,-0.021 0.068,-0.05C0.045,-0.078 0.033,-0.118 0.033,-0.17C0.033,-0.229 0.046,-0.285 0.073,-0.338C0.1,-0.391 0.137,-0.435 0.184,-0.47C0.231,-0.505 0.282,-0.522 0.339,-0.522C0.366,-0.522 0.395,-0.518 0.428,-0.511C0.46,-0.504 0.49,-0.494 0.518,-0.482L0.436,-0.061C0.418,0.031 0.384,0.1 0.334,0.147C0.283,0.194 0.218,0.218 0.137,0.218C0.083,0.218 0.034,0.206 -0.01,0.181L0.005,0.109C0.051,0.129 0.095,0.139 0.138,0.139C0.196,0.139 0.241,0.122 0.273,0.089C0.305,0.056 0.328,0.003 0.342,-0.07L0.35,-0.112ZM0.203,-0.085C0.227,-0.085 0.253,-0.095 0.281,-0.116C0.31,-0.136 0.339,-0.165 0.368,-0.203L0.414,-0.434C0.383,-0.441 0.358,-0.445 0.338,-0.445C0.302,-0.445 0.268,-0.433 0.237,-0.41C0.206,-0.387 0.18,-0.355 0.16,-0.314C0.14,-0.273 0.13,-0.228 0.13,-0.18C0.13,-0.117 0.154,-0.085 0.203,-0.085Z" style="fill-rule:nonzero;"/>
                    </g>
                </g>
            </g>
            <g transform="matrix(1,0,0,1,393.5,-343.261)">
                <g transform="matrix(41.6667,0,0,41.6667,247.5,784.094)">
                    <path d="M0.348,0.011C0.171,0.011 0.083,-0.076 0.083,-0.25C0.083,-0.336 0.106,-0.402 0.151,-0.448C0.196,-0.494 0.262,-0.517 0.347,-0.517C0.377,-0.517 0.407,-0.513 0.437,-0.506C0.466,-0.499 0.49,-0.489 0.509,-0.477L0.509,-0.411C0.458,-0.433 0.407,-0.444 0.356,-0.444C0.294,-0.444 0.248,-0.429 0.219,-0.399C0.189,-0.368 0.174,-0.321 0.174,-0.258L0.174,-0.248C0.174,-0.183 0.189,-0.136 0.22,-0.107C0.25,-0.077 0.298,-0.062 0.364,-0.062C0.414,-0.062 0.464,-0.074 0.514,-0.098L0.514,-0.031C0.492,-0.018 0.467,-0.007 0.438,-0C0.409,0.007 0.379,0.011 0.348,0.011Z" style="fill-rule:nonzero;"/>
                </g>
                <g transform="matrix(41.6667,0,0,41.6667,272.5,784.094)">
                    <path d="M0.241,0.013C0.193,0.013 0.155,-0.001 0.126,-0.028C0.097,-0.055 0.083,-0.09 0.083,-0.135C0.083,-0.184 0.101,-0.223 0.136,-0.252C0.171,-0.281 0.218,-0.295 0.277,-0.295C0.316,-0.295 0.361,-0.288 0.412,-0.275L0.412,-0.348C0.412,-0.385 0.403,-0.41 0.386,-0.426C0.369,-0.441 0.338,-0.448 0.295,-0.448C0.24,-0.448 0.18,-0.438 0.117,-0.417L0.117,-0.483C0.14,-0.494 0.17,-0.503 0.206,-0.51C0.242,-0.518 0.277,-0.521 0.31,-0.521C0.373,-0.521 0.42,-0.508 0.451,-0.483C0.482,-0.457 0.497,-0.417 0.497,-0.364L0.497,-0L0.423,-0L0.415,-0.053C0.388,-0.032 0.36,-0.015 0.33,-0.004C0.3,0.007 0.27,0.013 0.241,0.013ZM0.261,-0.056C0.307,-0.056 0.357,-0.073 0.412,-0.108L0.412,-0.22C0.371,-0.229 0.332,-0.234 0.295,-0.234C0.212,-0.234 0.171,-0.202 0.171,-0.139C0.171,-0.112 0.179,-0.092 0.195,-0.078C0.21,-0.063 0.232,-0.056 0.261,-0.056Z" style="fill-rule:nonzero;"/>
                </g>
                <g transform="matrix(41.6667,0,0,41.6667,297.5,784.094)">
                    <path d="M0.294,0.015C0.255,0.015 0.217,0.011 0.181,0.003C0.144,-0.005 0.113,-0.016 0.086,-0.031L0.086,-0.101C0.116,-0.088 0.149,-0.077 0.186,-0.07C0.223,-0.063 0.259,-0.059 0.295,-0.059C0.337,-0.059 0.37,-0.066 0.393,-0.079C0.416,-0.092 0.427,-0.111 0.427,-0.135C0.427,-0.154 0.42,-0.169 0.406,-0.18C0.391,-0.191 0.366,-0.2 0.331,-0.209L0.243,-0.23C0.191,-0.242 0.153,-0.26 0.128,-0.283C0.102,-0.307 0.09,-0.338 0.09,-0.376C0.09,-0.422 0.108,-0.458 0.145,-0.483C0.182,-0.508 0.233,-0.521 0.298,-0.521C0.331,-0.521 0.366,-0.517 0.402,-0.509C0.437,-0.502 0.466,-0.493 0.488,-0.482L0.488,-0.414C0.46,-0.424 0.429,-0.432 0.394,-0.438C0.359,-0.444 0.327,-0.447 0.298,-0.447C0.259,-0.447 0.229,-0.441 0.207,-0.429C0.187,-0.417 0.176,-0.4 0.176,-0.378C0.176,-0.36 0.183,-0.346 0.197,-0.335C0.211,-0.324 0.237,-0.315 0.274,-0.306L0.363,-0.285C0.416,-0.272 0.455,-0.254 0.479,-0.231C0.503,-0.208 0.515,-0.177 0.515,-0.138C0.515,-0.091 0.495,-0.054 0.456,-0.027C0.416,0.001 0.362,0.015 0.294,0.015Z" style="fill-rule:nonzero;"/>
                </g>
                <g transform="matrix(41.6667,0,0,41.6667,322.5,784.094)">
                    <path d="M0.327,0.015C0.243,0.015 0.179,-0.008 0.136,-0.054C0.092,-0.099 0.07,-0.166 0.07,-0.254C0.07,-0.338 0.091,-0.404 0.134,-0.451C0.177,-0.498 0.236,-0.521 0.312,-0.521C0.377,-0.521 0.428,-0.503 0.465,-0.468C0.501,-0.432 0.519,-0.382 0.519,-0.317C0.519,-0.286 0.517,-0.259 0.512,-0.234L0.156,-0.234C0.159,-0.173 0.175,-0.128 0.204,-0.1C0.234,-0.072 0.278,-0.058 0.338,-0.058C0.399,-0.058 0.456,-0.068 0.509,-0.089L0.509,-0.024C0.486,-0.012 0.459,-0.003 0.427,0.004C0.395,0.011 0.362,0.015 0.327,0.015ZM0.438,-0.296C0.439,-0.303 0.439,-0.313 0.439,-0.324C0.439,-0.365 0.428,-0.397 0.406,-0.419C0.384,-0.441 0.352,-0.452 0.31,-0.452C0.264,-0.452 0.228,-0.439 0.202,-0.412C0.176,-0.386 0.161,-0.347 0.156,-0.296L0.438,-0.296Z" style="fill-rule:nonzero;"/>
                </g>
                <g transform="matrix(41.6667,0,0,41.6667,372.5,784.094)">
                    <path d="M0.257,0.015C0.194,0.015 0.132,0.002 0.071,-0.025L0.071,-0.098C0.111,-0.085 0.146,-0.076 0.174,-0.07C0.203,-0.065 0.231,-0.062 0.258,-0.062C0.311,-0.062 0.351,-0.074 0.38,-0.097C0.408,-0.12 0.422,-0.154 0.422,-0.198C0.422,-0.283 0.369,-0.325 0.263,-0.325C0.226,-0.325 0.194,-0.324 0.168,-0.321L0.168,-0.381L0.384,-0.618L0.081,-0.618L0.081,-0.693L0.485,-0.693L0.485,-0.62L0.273,-0.394C0.279,-0.395 0.288,-0.395 0.3,-0.395C0.365,-0.395 0.417,-0.377 0.456,-0.342C0.495,-0.306 0.514,-0.258 0.514,-0.198C0.514,-0.133 0.491,-0.082 0.444,-0.043C0.397,-0.004 0.335,0.015 0.257,0.015Z" style="fill-rule:nonzero;"/>
                </g>
                <g transform="matrix(41.6667,0,0,41.6667,397.5,784.094)">
                    <path d="M0.3,-0.358C0.276,-0.358 0.257,-0.365 0.242,-0.38C0.227,-0.395 0.22,-0.414 0.22,-0.438C0.22,-0.461 0.228,-0.48 0.243,-0.495C0.258,-0.51 0.277,-0.517 0.3,-0.517C0.323,-0.517 0.343,-0.51 0.358,-0.495C0.373,-0.48 0.38,-0.461 0.38,-0.438C0.38,-0.414 0.373,-0.395 0.358,-0.38C0.343,-0.365 0.324,-0.358 0.3,-0.358ZM0.3,0.014C0.276,0.014 0.257,0.007 0.242,-0.008C0.227,-0.023 0.22,-0.042 0.22,-0.066C0.22,-0.089 0.228,-0.108 0.243,-0.123C0.258,-0.138 0.277,-0.145 0.3,-0.145C0.323,-0.145 0.343,-0.138 0.358,-0.123C0.373,-0.108 0.38,-0.089 0.38,-0.066C0.38,-0.042 0.373,-0.023 0.358,-0.008C0.343,0.007 0.324,0.014 0.3,0.014Z" style="fill-rule:nonzero;"/>
                </g>
            </g>
            <g transform="matrix(3.38819e-17,-1,0.491852,5.44288e-17,613.432,857.935)">
                <g transform="matrix(1.10661e-16,2.03313,-1,6.88864e-17,707.935,-1450.5)">
                    <path d="M859.75,312.5L841,350L822.25,312.5L841,331.25L859.75,312.5Z"/>
                    <path d="M750,300L841,300L841,331.25" style="fill:none;stroke:black;stroke-width:4.17px;"/>
                </g>
            </g>
        </g>
    </g>
</svg>
