<?xml version="1.0" encoding="UTF-8" standalone="no"?>
<!DOCTYPE svg PUBLIC "-//W3C//DTD SVG 1.1//EN" "http://www.w3.org/Graphics/SVG/1.1/DTD/svg11.dtd">
<svg width="100%" height="100%" viewBox="0 0 1000 1000" version="1.1" xmlns="http://www.w3.org/2000/svg" xmlns:xlink="http://www.w3.org/1999/xlink" xml:space="preserve" xmlns:serif="http://www.serif.com/" style="fill-rule:evenodd;clip-rule:evenodd;stroke-linecap:round;stroke-linejoin:round;stroke-miterlimit:1.5;">
    <g id="Ternary-Operator" serif:id="Ternary Operator" transform="matrix(1,0,0,1,100,-100)">
        <g id="Else" transform="matrix(1,0,0,1,-625,-50)">
            <g transform="matrix(1.29375,0,0,1.23214,125,583.929)">
                <rect x="347.826" y="134.783" width="289.855" height="81.159" style="fill:rgb(231,232,233);stroke:rgb(35,31,32);stroke-width:3.3px;"/>
            </g>
            <g transform="matrix(1,0,0,1,327.5,26.7391)">
                <g transform="matrix(50,0,0,50,375,790.261)">
                    <path d="M0.327,0.015C0.243,0.015 0.179,-0.008 0.136,-0.054C0.092,-0.099 0.07,-0.166 0.07,-0.254C0.07,-0.338 0.091,-0.404 0.134,-0.451C0.177,-0.498 0.236,-0.521 0.312,-0.521C0.377,-0.521 0.428,-0.503 0.465,-0.468C0.501,-0.432 0.519,-0.382 0.519,-0.317C0.519,-0.286 0.517,-0.259 0.512,-0.234L0.156,-0.234C0.159,-0.173 0.175,-0.128 0.204,-0.1C0.234,-0.072 0.278,-0.058 0.338,-0.058C0.399,-0.058 0.456,-0.068 0.509,-0.089L0.509,-0.024C0.486,-0.012 0.459,-0.003 0.427,0.004C0.395,0.011 0.362,0.015 0.327,0.015ZM0.438,-0.296C0.439,-0.303 0.439,-0.313 0.439,-0.324C0.439,-0.365 0.428,-0.397 0.406,-0.419C0.384,-0.441 0.352,-0.452 0.31,-0.452C0.264,-0.452 0.228,-0.439 0.202,-0.412C0.176,-0.386 0.161,-0.347 0.156,-0.296L0.438,-0.296Z" style="fill-rule:nonzero;"/>
                </g>
                <g transform="matrix(50,0,0,50,405,790.261)">
                    <path d="M0.069,-0.071L0.256,-0.071L0.256,-0.669L0.094,-0.669L0.094,-0.74L0.345,-0.74L0.345,-0.071L0.521,-0.071L0.521,-0L0.069,-0L0.069,-0.071Z" style="fill-rule:nonzero;"/>
                </g>
                <g transform="matrix(50,0,0,50,435,790.261)">
                    <path d="M0.294,0.015C0.255,0.015 0.217,0.011 0.181,0.003C0.144,-0.005 0.113,-0.016 0.086,-0.031L0.086,-0.101C0.116,-0.088 0.149,-0.077 0.186,-0.07C0.223,-0.063 0.259,-0.059 0.295,-0.059C0.337,-0.059 0.37,-0.066 0.393,-0.079C0.416,-0.092 0.427,-0.111 0.427,-0.135C0.427,-0.154 0.42,-0.169 0.406,-0.18C0.391,-0.191 0.366,-0.2 0.331,-0.209L0.243,-0.23C0.191,-0.242 0.153,-0.26 0.128,-0.283C0.102,-0.307 0.09,-0.338 0.09,-0.376C0.09,-0.422 0.108,-0.458 0.145,-0.483C0.182,-0.508 0.233,-0.521 0.298,-0.521C0.331,-0.521 0.366,-0.517 0.402,-0.509C0.437,-0.502 0.466,-0.493 0.488,-0.482L0.488,-0.414C0.46,-0.424 0.429,-0.432 0.394,-0.438C0.359,-0.444 0.327,-0.447 0.298,-0.447C0.259,-0.447 0.229,-0.441 0.207,-0.429C0.187,-0.417 0.176,-0.4 0.176,-0.378C0.176,-0.36 0.183,-0.346 0.197,-0.335C0.211,-0.324 0.237,-0.315 0.274,-0.306L0.363,-0.285C0.416,-0.272 0.455,-0.254 0.479,-0.231C0.503,-0.208 0.515,-0.177 0.515,-0.138C0.515,-0.091 0.495,-0.054 0.456,-0.027C0.416,0.001 0.362,0.015 0.294,0.015Z" style="fill-rule:nonzero;"/>
                </g>
                <g transform="matrix(50,0,0,50,465,790.261)">
                    <path d="M0.327,0.015C0.243,0.015 0.179,-0.008 0.136,-0.054C0.092,-0.099 0.07,-0.166 0.07,-0.254C0.07,-0.338 0.091,-0.404 0.134,-0.451C0.177,-0.498 0.236,-0.521 0.312,-0.521C0.377,-0.521 0.428,-0.503 0.465,-0.468C0.501,-0.432 0.519,-0.382 0.519,-0.317C0.519,-0.286 0.517,-0.259 0.512,-0.234L0.156,-0.234C0.159,-0.173 0.175,-0.128 0.204,-0.1C0.234,-0.072 0.278,-0.058 0.338,-0.058C0.399,-0.058 0.456,-0.068 0.509,-0.089L0.509,-0.024C0.486,-0.012 0.459,-0.003 0.427,0.004C0.395,0.011 0.362,0.015 0.327,0.015ZM0.438,-0.296C0.439,-0.303 0.439,-0.313 0.439,-0.324C0.439,-0.365 0.428,-0.397 0.406,-0.419C0.384,-0.441 0.352,-0.452 0.31,-0.452C0.264,-0.452 0.228,-0.439 0.202,-0.412C0.176,-0.386 0.161,-0.347 0.156,-0.296L0.438,-0.296Z" style="fill-rule:nonzero;"/>
                </g>
            </g>
            <g transform="matrix(1,0,0,1,525,150)">
                <path d="M518.75,912.5L500,950L481.25,912.5L500,931.25L518.75,912.5Z" style="fill:rgb(35,31,32);"/>
                <path d="M250,700L250,775L500,775L500,931.25" style="fill:none;stroke:rgb(35,31,32);stroke-width:4.17px;"/>
            </g>
        </g>
        <g id="False" transform="matrix(1,0,0,1.6,0,-270)">
            <g transform="matrix(1,0,0,0.625,-215.5,-70.788)">
                <g transform="matrix(83.3333,0,0,83.3333,297.5,814.928)">
                    <path d="M0.3,-0.358C0.276,-0.358 0.257,-0.365 0.242,-0.38C0.227,-0.395 0.22,-0.414 0.22,-0.438C0.22,-0.461 0.228,-0.48 0.243,-0.495C0.258,-0.51 0.277,-0.517 0.3,-0.517C0.323,-0.517 0.343,-0.51 0.358,-0.495C0.373,-0.48 0.38,-0.461 0.38,-0.438C0.38,-0.414 0.373,-0.395 0.358,-0.38C0.343,-0.365 0.324,-0.358 0.3,-0.358ZM0.3,0.014C0.276,0.014 0.257,0.007 0.242,-0.008C0.227,-0.023 0.22,-0.042 0.22,-0.066C0.22,-0.089 0.228,-0.108 0.243,-0.123C0.258,-0.138 0.277,-0.145 0.3,-0.145C0.323,-0.145 0.343,-0.138 0.358,-0.123C0.373,-0.108 0.38,-0.089 0.38,-0.066C0.38,-0.042 0.373,-0.023 0.358,-0.008C0.343,0.007 0.324,0.014 0.3,0.014Z" style="fill-rule:nonzero;"/>
                </g>
            </g>
            <g transform="matrix(-1.83697e-16,1,-0.888889,-1.63286e-16,216.087,42.0652)">
                <g transform="matrix(-1.83697e-16,-1.125,0.625,-1.29162e-16,189.185,355.598)">
                    <path d="M168.75,562.5L150,600L131.25,562.5L150,581.25L168.75,562.5Z"/>
                    <path d="M250,350L150,350L150,581.25" style="fill:none;stroke:black;stroke-width:4.17px;"/>
                </g>
            </g>
        </g>
        <g id="Do" transform="matrix(1,0,0,1,-100,-50)">
            <g transform="matrix(1,0,0,1,1.42109e-14,150)">
                <path d="M537.5,868.75L500,850L537.5,831.25L518.75,850L537.5,868.75Z" style="fill:rgb(35,31,32);"/>
                <path d="M775,700L775,850L518.75,850" style="fill:none;stroke:rgb(35,31,32);stroke-width:4.17px;"/>
            </g>
            <g transform="matrix(1.29375,0,0,1.23214,125,583.929)">
                <rect x="347.826" y="134.783" width="289.855" height="81.159" style="fill:rgb(231,232,233);stroke:rgb(35,31,32);stroke-width:3.3px;"/>
            </g>
            <g transform="matrix(1,0,0,1,327.5,26.7391)">
                <g transform="matrix(50,0,0,50,405,790.261)">
                    <path d="M0.272,0.015C0.205,0.015 0.153,-0.009 0.115,-0.056C0.077,-0.102 0.058,-0.167 0.058,-0.25C0.058,-0.333 0.078,-0.399 0.117,-0.448C0.156,-0.497 0.208,-0.521 0.274,-0.521C0.303,-0.521 0.329,-0.516 0.354,-0.507C0.378,-0.498 0.402,-0.483 0.425,-0.462L0.425,-0.74L0.514,-0.74L0.514,-0L0.435,-0L0.427,-0.048C0.405,-0.028 0.381,-0.013 0.354,-0.002C0.327,0.009 0.3,0.015 0.272,0.015ZM0.298,-0.058C0.337,-0.058 0.38,-0.075 0.425,-0.108L0.425,-0.398C0.402,-0.416 0.381,-0.429 0.36,-0.437C0.339,-0.444 0.317,-0.448 0.292,-0.448C0.245,-0.448 0.209,-0.432 0.185,-0.399C0.161,-0.366 0.149,-0.318 0.149,-0.254C0.149,-0.191 0.162,-0.142 0.188,-0.109C0.213,-0.075 0.25,-0.058 0.298,-0.058Z" style="fill-rule:nonzero;"/>
                </g>
                <g transform="matrix(50,0,0,50,435,790.261)">
                    <path d="M0.3,0.015C0.223,0.015 0.164,-0.009 0.121,-0.056C0.078,-0.103 0.057,-0.169 0.057,-0.253C0.057,-0.337 0.078,-0.403 0.121,-0.45C0.164,-0.497 0.223,-0.521 0.3,-0.521C0.377,-0.521 0.436,-0.497 0.479,-0.45C0.522,-0.403 0.543,-0.337 0.543,-0.253C0.543,-0.169 0.522,-0.103 0.479,-0.056C0.436,-0.009 0.377,0.015 0.3,0.015ZM0.3,-0.058C0.35,-0.058 0.388,-0.074 0.413,-0.107C0.439,-0.14 0.452,-0.188 0.452,-0.253C0.452,-0.383 0.401,-0.448 0.3,-0.448C0.199,-0.448 0.148,-0.383 0.148,-0.253C0.148,-0.188 0.161,-0.14 0.187,-0.107C0.212,-0.074 0.25,-0.058 0.3,-0.058Z" style="fill-rule:nonzero;"/>
                </g>
            </g>
        </g>
        <g id="True">
            <g transform="matrix(1,0,0,1,377.5,-383.261)">
                <g transform="matrix(83.3333,0,0,83.3333,285,814.928)">
                    <path d="M0.222,-0.363L0.263,-0.378C0.307,-0.394 0.342,-0.409 0.367,-0.424C0.392,-0.439 0.411,-0.455 0.423,-0.472C0.434,-0.49 0.44,-0.512 0.44,-0.538C0.44,-0.568 0.428,-0.591 0.403,-0.608C0.378,-0.624 0.343,-0.632 0.298,-0.632C0.223,-0.632 0.147,-0.609 0.071,-0.562L0.071,-0.634C0.098,-0.655 0.132,-0.673 0.174,-0.687C0.217,-0.701 0.26,-0.708 0.303,-0.708C0.375,-0.708 0.431,-0.693 0.47,-0.664C0.509,-0.634 0.529,-0.592 0.529,-0.538C0.529,-0.487 0.512,-0.446 0.478,-0.413C0.444,-0.38 0.387,-0.351 0.306,-0.325L0.306,-0.205L0.231,-0.205L0.222,-0.363ZM0.271,0.009C0.25,0.009 0.234,0.002 0.221,-0.011C0.207,-0.024 0.201,-0.04 0.201,-0.061C0.201,-0.082 0.207,-0.099 0.221,-0.112C0.234,-0.125 0.25,-0.131 0.271,-0.131C0.291,-0.131 0.307,-0.125 0.32,-0.112C0.333,-0.099 0.339,-0.082 0.339,-0.061C0.339,-0.04 0.333,-0.024 0.32,-0.011C0.307,0.002 0.291,0.009 0.271,0.009Z" style="fill-rule:nonzero;"/>
                </g>
            </g>
            <g transform="matrix(6.12323e-17,-1,0.888889,5.44288e-17,583.913,857.935)">
                <g transform="matrix(6.12323e-17,1.125,-1,6.88864e-17,757.935,-769.402)">
                    <path d="M868.75,562.5L850,600L831.25,562.5L850,581.25L868.75,562.5Z"/>
                    <path d="M750,350L850,350L850,581.25" style="fill:none;stroke:black;stroke-width:4.17px;"/>
                </g>
            </g>
        </g>
        <g id="If">
            <g transform="matrix(1.30385,0,0,1.17949,-114.031,-94.6155)">
                <path d="M394.239,334.565L585.978,461.739L394.239,588.913L202.5,461.739L394.239,334.565Z" style="fill:rgb(235,235,235);stroke:black;stroke-width:3.35px;"/>
            </g>
            <g transform="matrix(1,0,0,1,-47.5,-328.261)">
                <g transform="matrix(50,0,0,50,312.5,790.261)">
                    <path d="M0.348,0.011C0.171,0.011 0.083,-0.076 0.083,-0.25C0.083,-0.336 0.106,-0.402 0.151,-0.448C0.196,-0.494 0.262,-0.517 0.347,-0.517C0.377,-0.517 0.407,-0.513 0.437,-0.506C0.466,-0.499 0.49,-0.489 0.509,-0.477L0.509,-0.411C0.458,-0.433 0.407,-0.444 0.356,-0.444C0.294,-0.444 0.248,-0.429 0.219,-0.399C0.189,-0.368 0.174,-0.321 0.174,-0.258L0.174,-0.248C0.174,-0.183 0.189,-0.136 0.22,-0.107C0.25,-0.077 0.298,-0.062 0.364,-0.062C0.414,-0.062 0.464,-0.074 0.514,-0.098L0.514,-0.031C0.492,-0.018 0.467,-0.007 0.438,-0C0.409,0.007 0.379,0.011 0.348,0.011Z" style="fill-rule:nonzero;"/>
                </g>
                <g transform="matrix(50,0,0,50,342.5,790.261)">
                    <path d="M0.3,0.015C0.223,0.015 0.164,-0.009 0.121,-0.056C0.078,-0.103 0.057,-0.169 0.057,-0.253C0.057,-0.337 0.078,-0.403 0.121,-0.45C0.164,-0.497 0.223,-0.521 0.3,-0.521C0.377,-0.521 0.436,-0.497 0.479,-0.45C0.522,-0.403 0.543,-0.337 0.543,-0.253C0.543,-0.169 0.522,-0.103 0.479,-0.056C0.436,-0.009 0.377,0.015 0.3,0.015ZM0.3,-0.058C0.35,-0.058 0.388,-0.074 0.413,-0.107C0.439,-0.14 0.452,-0.188 0.452,-0.253C0.452,-0.383 0.401,-0.448 0.3,-0.448C0.199,-0.448 0.148,-0.383 0.148,-0.253C0.148,-0.188 0.161,-0.14 0.187,-0.107C0.212,-0.074 0.25,-0.058 0.3,-0.058Z" style="fill-rule:nonzero;"/>
                </g>
                <g transform="matrix(50,0,0,50,372.5,790.261)">
                    <path d="M0.085,-0.507L0.16,-0.507L0.169,-0.449C0.234,-0.497 0.302,-0.521 0.372,-0.521C0.42,-0.521 0.457,-0.508 0.483,-0.482C0.508,-0.455 0.521,-0.418 0.521,-0.369L0.521,-0L0.432,-0L0.432,-0.338C0.432,-0.376 0.425,-0.404 0.409,-0.422C0.395,-0.44 0.371,-0.449 0.338,-0.449C0.285,-0.449 0.23,-0.431 0.174,-0.394L0.174,-0L0.085,-0L0.085,-0.507Z" style="fill-rule:nonzero;"/>
                </g>
                <g transform="matrix(50,0,0,50,402.5,790.261)">
                    <path d="M0.272,0.015C0.205,0.015 0.153,-0.009 0.115,-0.056C0.077,-0.102 0.058,-0.167 0.058,-0.25C0.058,-0.333 0.078,-0.399 0.117,-0.448C0.156,-0.497 0.208,-0.521 0.274,-0.521C0.303,-0.521 0.329,-0.516 0.354,-0.507C0.378,-0.498 0.402,-0.483 0.425,-0.462L0.425,-0.74L0.514,-0.74L0.514,-0L0.435,-0L0.427,-0.048C0.405,-0.028 0.381,-0.013 0.354,-0.002C0.327,0.009 0.3,0.015 0.272,0.015ZM0.298,-0.058C0.337,-0.058 0.38,-0.075 0.425,-0.108L0.425,-0.398C0.402,-0.416 0.381,-0.429 0.36,-0.437C0.339,-0.444 0.317,-0.448 0.292,-0.448C0.245,-0.448 0.209,-0.432 0.185,-0.399C0.161,-0.366 0.149,-0.318 0.149,-0.254C0.149,-0.191 0.162,-0.142 0.188,-0.109C0.213,-0.075 0.25,-0.058 0.298,-0.058Z" style="fill-rule:nonzero;"/>
                </g>
                <g transform="matrix(50,0,0,50,432.5,790.261)">
                    <path d="M0.077,-0.071L0.264,-0.071L0.264,-0.436L0.111,-0.436L0.111,-0.507L0.353,-0.507L0.353,-0.071L0.529,-0.071L0.529,-0L0.077,-0L0.077,-0.071ZM0.292,-0.596C0.273,-0.596 0.257,-0.602 0.245,-0.614C0.233,-0.625 0.227,-0.641 0.227,-0.66C0.227,-0.68 0.233,-0.696 0.245,-0.708C0.257,-0.719 0.273,-0.725 0.292,-0.725C0.312,-0.725 0.328,-0.719 0.34,-0.708C0.352,-0.696 0.358,-0.68 0.358,-0.66C0.358,-0.641 0.352,-0.625 0.34,-0.614C0.328,-0.602 0.312,-0.596 0.292,-0.596Z" style="fill-rule:nonzero;"/>
                </g>
                <g transform="matrix(50,0,0,50,462.5,790.261)">
                    <path d="M0.343,0.01C0.286,0.01 0.245,-0.003 0.22,-0.028C0.195,-0.053 0.182,-0.095 0.182,-0.152L0.182,-0.436L0.056,-0.436L0.056,-0.497L0.184,-0.506L0.198,-0.664L0.271,-0.664L0.271,-0.507L0.503,-0.507L0.503,-0.436L0.271,-0.436L0.271,-0.161C0.271,-0.125 0.278,-0.1 0.292,-0.085C0.305,-0.07 0.329,-0.063 0.363,-0.063C0.386,-0.063 0.41,-0.065 0.436,-0.07C0.462,-0.074 0.486,-0.08 0.508,-0.087L0.508,-0.022C0.489,-0.013 0.465,-0.005 0.435,0.001C0.404,0.007 0.374,0.01 0.343,0.01Z" style="fill-rule:nonzero;"/>
                </g>
                <g transform="matrix(50,0,0,50,492.5,790.261)">
                    <path d="M0.077,-0.071L0.264,-0.071L0.264,-0.436L0.111,-0.436L0.111,-0.507L0.353,-0.507L0.353,-0.071L0.529,-0.071L0.529,-0L0.077,-0L0.077,-0.071ZM0.292,-0.596C0.273,-0.596 0.257,-0.602 0.245,-0.614C0.233,-0.625 0.227,-0.641 0.227,-0.66C0.227,-0.68 0.233,-0.696 0.245,-0.708C0.257,-0.719 0.273,-0.725 0.292,-0.725C0.312,-0.725 0.328,-0.719 0.34,-0.708C0.352,-0.696 0.358,-0.68 0.358,-0.66C0.358,-0.641 0.352,-0.625 0.34,-0.614C0.328,-0.602 0.312,-0.596 0.292,-0.596Z" style="fill-rule:nonzero;"/>
                </g>
                <g transform="matrix(50,0,0,50,522.5,790.261)">
                    <path d="M0.3,0.015C0.223,0.015 0.164,-0.009 0.121,-0.056C0.078,-0.103 0.057,-0.169 0.057,-0.253C0.057,-0.337 0.078,-0.403 0.121,-0.45C0.164,-0.497 0.223,-0.521 0.3,-0.521C0.377,-0.521 0.436,-0.497 0.479,-0.45C0.522,-0.403 0.543,-0.337 0.543,-0.253C0.543,-0.169 0.522,-0.103 0.479,-0.056C0.436,-0.009 0.377,0.015 0.3,0.015ZM0.3,-0.058C0.35,-0.058 0.388,-0.074 0.413,-0.107C0.439,-0.14 0.452,-0.188 0.452,-0.253C0.452,-0.383 0.401,-0.448 0.3,-0.448C0.199,-0.448 0.148,-0.383 0.148,-0.253C0.148,-0.188 0.161,-0.14 0.187,-0.107C0.212,-0.074 0.25,-0.058 0.3,-0.058Z" style="fill-rule:nonzero;"/>
                </g>
                <g transform="matrix(50,0,0,50,552.5,790.261)">
                    <path d="M0.085,-0.507L0.16,-0.507L0.169,-0.449C0.234,-0.497 0.302,-0.521 0.372,-0.521C0.42,-0.521 0.457,-0.508 0.483,-0.482C0.508,-0.455 0.521,-0.418 0.521,-0.369L0.521,-0L0.432,-0L0.432,-0.338C0.432,-0.376 0.425,-0.404 0.409,-0.422C0.395,-0.44 0.371,-0.449 0.338,-0.449C0.285,-0.449 0.23,-0.431 0.174,-0.394L0.174,-0L0.085,-0L0.085,-0.507Z" style="fill-rule:nonzero;"/>
                </g>
            </g>
            <g transform="matrix(1,0,0,0.666667,-7.93475,100.435)">
                <g transform="matrix(1,-0,-0,1.5,-92.0652,-0.652164)">
                    <path d="M518.75,162.5L500,200L481.25,162.5L500,181.25L518.75,162.5Z"/>
                    <path d="M500,50L500,181.25" style="fill:none;stroke:black;stroke-width:4.17px;"/>
                </g>
            </g>
        </g>
    </g>
</svg>
