<?xml version="1.0" encoding="UTF-8" standalone="no"?>
<!DOCTYPE svg PUBLIC "-//W3C//DTD SVG 1.1//EN" "http://www.w3.org/Graphics/SVG/1.1/DTD/svg11.dtd">
<svg width="100%" height="100%" viewBox="0 0 1000 1000" version="1.1" xmlns="http://www.w3.org/2000/svg" xmlns:xlink="http://www.w3.org/1999/xlink" xml:space="preserve" xmlns:serif="http://www.serif.com/" style="fill-rule:evenodd;clip-rule:evenodd;stroke-linecap:round;stroke-linejoin:round;stroke-miterlimit:1.5;">
    <g id="If-Tree" serif:id="If Tree" transform="matrix(1,0,0,1,325.001,-50)">
        <g id="Catch" transform="matrix(1,0,0,1,-100,215)">
            <g transform="matrix(1,0,0,2.17367,-57.9348,373.392)">
                <g transform="matrix(1,-0,-0,0.460052,-167.066,-247.688)">
                    <path d="M593.751,887.5L575.001,925L556.251,887.5L575.001,906.25L593.751,887.5Z"/>
                    <path d="M575.001,700L575.001,906.25" style="fill:none;stroke:black;stroke-width:4.17px;"/>
                </g>
            </g>
            <g transform="matrix(1.04308,0,0,0.94359,-61.2245,-15.6924)">
                <path d="M394.239,334.565L585.978,461.739L394.239,588.913L202.5,461.739L394.239,334.565Z" style="fill:rgb(235,235,235);stroke:black;stroke-width:4.19px;"/>
            </g>
            <g transform="matrix(1,-4.61587e-18,-7.50079e-18,1,-37.5,-331.261)">
                <g transform="matrix(33.3333,0,0,33.3333,247.5,781.011)">
                    <path d="M0.352,0.144C0.285,0.093 0.233,0.028 0.195,-0.052C0.157,-0.132 0.138,-0.216 0.138,-0.305C0.138,-0.394 0.157,-0.478 0.195,-0.558C0.233,-0.638 0.285,-0.703 0.352,-0.754L0.452,-0.754C0.383,-0.699 0.329,-0.632 0.29,-0.553C0.251,-0.474 0.232,-0.391 0.232,-0.305C0.232,-0.219 0.251,-0.136 0.29,-0.057C0.329,0.022 0.383,0.089 0.452,0.144L0.352,0.144Z" style="fill-rule:nonzero;"/>
                </g>
                <g transform="matrix(33.3333,0,0,33.3333,267.5,781.011)">
                    <path d="M0.101,-0.693L0.52,-0.693L0.52,-0.618L0.193,-0.618L0.193,-0.395L0.463,-0.395L0.463,-0.32L0.193,-0.32L0.193,-0.075L0.52,-0.075L0.52,-0L0.101,-0L0.101,-0.693Z" style="fill-rule:nonzero;"/>
                </g>
                <g transform="matrix(33.3333,0,0,33.3333,287.5,781.011)">
                    <path d="M0.252,-0.261L0.083,-0.507L0.18,-0.507L0.302,-0.322L0.424,-0.507L0.518,-0.507L0.349,-0.264L0.53,-0L0.432,-0L0.297,-0.202L0.165,-0L0.07,-0L0.252,-0.261Z" style="fill-rule:nonzero;"/>
                </g>
                <g transform="matrix(33.3333,0,0,33.3333,307.5,781.011)">
                    <path d="M0.348,0.011C0.171,0.011 0.083,-0.076 0.083,-0.25C0.083,-0.336 0.106,-0.402 0.151,-0.448C0.196,-0.494 0.262,-0.517 0.347,-0.517C0.377,-0.517 0.407,-0.513 0.437,-0.506C0.466,-0.499 0.49,-0.489 0.509,-0.477L0.509,-0.411C0.458,-0.433 0.407,-0.444 0.356,-0.444C0.294,-0.444 0.248,-0.429 0.219,-0.399C0.189,-0.368 0.174,-0.321 0.174,-0.258L0.174,-0.248C0.174,-0.183 0.189,-0.136 0.22,-0.107C0.25,-0.077 0.298,-0.062 0.364,-0.062C0.414,-0.062 0.464,-0.074 0.514,-0.098L0.514,-0.031C0.492,-0.018 0.467,-0.007 0.438,-0C0.409,0.007 0.379,0.011 0.348,0.011Z" style="fill-rule:nonzero;"/>
                </g>
                <g transform="matrix(33.3333,0,0,33.3333,327.5,781.011)">
                    <path d="M0.327,0.015C0.243,0.015 0.179,-0.008 0.136,-0.054C0.092,-0.099 0.07,-0.166 0.07,-0.254C0.07,-0.338 0.091,-0.404 0.134,-0.451C0.177,-0.498 0.236,-0.521 0.312,-0.521C0.377,-0.521 0.428,-0.503 0.465,-0.468C0.501,-0.432 0.519,-0.382 0.519,-0.317C0.519,-0.286 0.517,-0.259 0.512,-0.234L0.156,-0.234C0.159,-0.173 0.175,-0.128 0.204,-0.1C0.234,-0.072 0.278,-0.058 0.338,-0.058C0.399,-0.058 0.456,-0.068 0.509,-0.089L0.509,-0.024C0.486,-0.012 0.459,-0.003 0.427,0.004C0.395,0.011 0.362,0.015 0.327,0.015ZM0.438,-0.296C0.439,-0.303 0.439,-0.313 0.439,-0.324C0.439,-0.365 0.428,-0.397 0.406,-0.419C0.384,-0.441 0.352,-0.452 0.31,-0.452C0.264,-0.452 0.228,-0.439 0.202,-0.412C0.176,-0.386 0.161,-0.347 0.156,-0.296L0.438,-0.296Z" style="fill-rule:nonzero;"/>
                </g>
                <g transform="matrix(33.3333,0,0,33.3333,347.5,781.011)">
                    <path d="M0.086,-0.507L0.161,-0.507L0.169,-0.454C0.22,-0.499 0.274,-0.521 0.331,-0.521C0.396,-0.521 0.448,-0.498 0.486,-0.452C0.523,-0.405 0.542,-0.341 0.542,-0.26C0.542,-0.205 0.533,-0.156 0.515,-0.114C0.496,-0.072 0.471,-0.04 0.438,-0.018C0.405,0.004 0.368,0.015 0.325,0.015C0.27,0.015 0.22,-0.002 0.175,-0.035L0.175,0.206L0.086,0.206L0.086,-0.507ZM0.307,-0.058C0.354,-0.058 0.39,-0.075 0.414,-0.108C0.439,-0.141 0.451,-0.19 0.451,-0.255C0.451,-0.318 0.439,-0.366 0.416,-0.399C0.392,-0.432 0.357,-0.448 0.31,-0.448C0.264,-0.448 0.219,-0.431 0.175,-0.397L0.175,-0.101C0.216,-0.072 0.26,-0.058 0.307,-0.058Z" style="fill-rule:nonzero;"/>
                </g>
                <g transform="matrix(33.3333,0,0,33.3333,367.5,781.011)">
                    <path d="M0.343,0.01C0.286,0.01 0.245,-0.003 0.22,-0.028C0.195,-0.053 0.182,-0.095 0.182,-0.152L0.182,-0.436L0.056,-0.436L0.056,-0.497L0.184,-0.506L0.198,-0.664L0.271,-0.664L0.271,-0.507L0.503,-0.507L0.503,-0.436L0.271,-0.436L0.271,-0.161C0.271,-0.125 0.278,-0.1 0.292,-0.085C0.305,-0.07 0.329,-0.063 0.363,-0.063C0.386,-0.063 0.41,-0.065 0.436,-0.07C0.462,-0.074 0.486,-0.08 0.508,-0.087L0.508,-0.022C0.489,-0.013 0.465,-0.005 0.435,0.001C0.404,0.007 0.374,0.01 0.343,0.01Z" style="fill-rule:nonzero;"/>
                </g>
                <g transform="matrix(33.3333,0,0,33.3333,387.5,781.011)">
                    <path d="M0.077,-0.071L0.264,-0.071L0.264,-0.436L0.111,-0.436L0.111,-0.507L0.353,-0.507L0.353,-0.071L0.529,-0.071L0.529,-0L0.077,-0L0.077,-0.071ZM0.292,-0.596C0.273,-0.596 0.257,-0.602 0.245,-0.614C0.233,-0.625 0.227,-0.641 0.227,-0.66C0.227,-0.68 0.233,-0.696 0.245,-0.708C0.257,-0.719 0.273,-0.725 0.292,-0.725C0.312,-0.725 0.328,-0.719 0.34,-0.708C0.352,-0.696 0.358,-0.68 0.358,-0.66C0.358,-0.641 0.352,-0.625 0.34,-0.614C0.328,-0.602 0.312,-0.596 0.292,-0.596Z" style="fill-rule:nonzero;"/>
                </g>
                <g transform="matrix(33.3333,0,0,33.3333,407.5,781.011)">
                    <path d="M0.3,0.015C0.223,0.015 0.164,-0.009 0.121,-0.056C0.078,-0.103 0.057,-0.169 0.057,-0.253C0.057,-0.337 0.078,-0.403 0.121,-0.45C0.164,-0.497 0.223,-0.521 0.3,-0.521C0.377,-0.521 0.436,-0.497 0.479,-0.45C0.522,-0.403 0.543,-0.337 0.543,-0.253C0.543,-0.169 0.522,-0.103 0.479,-0.056C0.436,-0.009 0.377,0.015 0.3,0.015ZM0.3,-0.058C0.35,-0.058 0.388,-0.074 0.413,-0.107C0.439,-0.14 0.452,-0.188 0.452,-0.253C0.452,-0.383 0.401,-0.448 0.3,-0.448C0.199,-0.448 0.148,-0.383 0.148,-0.253C0.148,-0.188 0.161,-0.14 0.187,-0.107C0.212,-0.074 0.25,-0.058 0.3,-0.058Z" style="fill-rule:nonzero;"/>
                </g>
                <g transform="matrix(33.3333,0,0,33.3333,427.5,781.011)">
                    <path d="M0.085,-0.507L0.16,-0.507L0.169,-0.449C0.234,-0.497 0.302,-0.521 0.372,-0.521C0.42,-0.521 0.457,-0.508 0.483,-0.482C0.508,-0.455 0.521,-0.418 0.521,-0.369L0.521,-0L0.432,-0L0.432,-0.338C0.432,-0.376 0.425,-0.404 0.409,-0.422C0.395,-0.44 0.371,-0.449 0.338,-0.449C0.285,-0.449 0.23,-0.431 0.174,-0.394L0.174,-0L0.085,-0L0.085,-0.507Z" style="fill-rule:nonzero;"/>
                </g>
                <g transform="matrix(33.3333,0,0,33.3333,467.5,781.011)">
                    <path d="M0.327,0.015C0.243,0.015 0.179,-0.008 0.136,-0.054C0.092,-0.099 0.07,-0.166 0.07,-0.254C0.07,-0.338 0.091,-0.404 0.134,-0.451C0.177,-0.498 0.236,-0.521 0.312,-0.521C0.377,-0.521 0.428,-0.503 0.465,-0.468C0.501,-0.432 0.519,-0.382 0.519,-0.317C0.519,-0.286 0.517,-0.259 0.512,-0.234L0.156,-0.234C0.159,-0.173 0.175,-0.128 0.204,-0.1C0.234,-0.072 0.278,-0.058 0.338,-0.058C0.399,-0.058 0.456,-0.068 0.509,-0.089L0.509,-0.024C0.486,-0.012 0.459,-0.003 0.427,0.004C0.395,0.011 0.362,0.015 0.327,0.015ZM0.438,-0.296C0.439,-0.303 0.439,-0.313 0.439,-0.324C0.439,-0.365 0.428,-0.397 0.406,-0.419C0.384,-0.441 0.352,-0.452 0.31,-0.452C0.264,-0.452 0.228,-0.439 0.202,-0.412C0.176,-0.386 0.161,-0.347 0.156,-0.296L0.438,-0.296Z" style="fill-rule:nonzero;"/>
                </g>
                <g transform="matrix(33.3333,0,0,33.3333,487.5,781.011)">
                    <path d="M0.148,0.144C0.217,0.089 0.271,0.022 0.31,-0.057C0.349,-0.136 0.368,-0.219 0.368,-0.305C0.368,-0.391 0.349,-0.474 0.31,-0.553C0.271,-0.632 0.217,-0.699 0.148,-0.754L0.248,-0.754C0.315,-0.703 0.367,-0.638 0.405,-0.558C0.443,-0.478 0.462,-0.394 0.462,-0.305C0.462,-0.216 0.443,-0.132 0.405,-0.052C0.367,0.028 0.315,0.093 0.248,0.144L0.148,0.144Z" style="fill-rule:nonzero;"/>
                </g>
                <g transform="matrix(33.3333,0,0,33.3333,507.5,781.011)">
                    <path d="M0.408,0.152C0.346,0.152 0.3,0.138 0.271,0.11C0.242,0.082 0.227,0.039 0.227,-0.02L0.227,-0.174C0.227,-0.207 0.221,-0.231 0.209,-0.246C0.197,-0.26 0.176,-0.267 0.145,-0.267L0.108,-0.267L0.108,-0.343L0.145,-0.343C0.176,-0.343 0.197,-0.35 0.209,-0.365C0.221,-0.379 0.227,-0.403 0.227,-0.436L0.227,-0.59C0.227,-0.649 0.242,-0.692 0.271,-0.72C0.3,-0.748 0.346,-0.762 0.408,-0.762C0.427,-0.762 0.447,-0.76 0.469,-0.755C0.49,-0.751 0.506,-0.746 0.517,-0.74L0.517,-0.673C0.48,-0.684 0.446,-0.689 0.416,-0.689C0.381,-0.689 0.357,-0.682 0.342,-0.667C0.327,-0.652 0.319,-0.627 0.319,-0.594L0.319,-0.439C0.319,-0.403 0.313,-0.374 0.301,-0.351C0.288,-0.329 0.27,-0.313 0.246,-0.306C0.295,-0.288 0.319,-0.243 0.319,-0.171L0.319,-0.016C0.319,0.017 0.327,0.041 0.342,0.056C0.357,0.071 0.381,0.079 0.416,0.079C0.446,0.079 0.48,0.074 0.517,0.063L0.517,0.13C0.506,0.136 0.49,0.141 0.469,0.145C0.447,0.15 0.427,0.152 0.408,0.152Z" style="fill-rule:nonzero;"/>
                </g>
            </g>
            <g transform="matrix(1,-6.00063e-18,-5.76984e-18,1,-37.5,-365.261)">
                <g transform="matrix(33.3333,0,0,33.3333,247.5,781.011)">
                    <path d="M0.192,0.152C0.173,0.152 0.153,0.15 0.132,0.145C0.11,0.141 0.094,0.136 0.083,0.13L0.083,0.063C0.12,0.074 0.154,0.079 0.184,0.079C0.219,0.079 0.244,0.071 0.259,0.056C0.274,0.041 0.281,0.017 0.281,-0.016L0.281,-0.171C0.281,-0.244 0.305,-0.289 0.353,-0.306C0.305,-0.321 0.281,-0.366 0.281,-0.439L0.281,-0.594C0.281,-0.627 0.274,-0.652 0.259,-0.667C0.244,-0.682 0.219,-0.689 0.184,-0.689C0.154,-0.689 0.12,-0.684 0.083,-0.673L0.083,-0.74C0.094,-0.746 0.11,-0.751 0.132,-0.755C0.153,-0.76 0.173,-0.762 0.192,-0.762C0.254,-0.762 0.3,-0.748 0.329,-0.72C0.358,-0.692 0.373,-0.649 0.373,-0.59L0.373,-0.436C0.373,-0.403 0.379,-0.379 0.391,-0.365C0.403,-0.35 0.424,-0.343 0.455,-0.343L0.492,-0.343L0.492,-0.267L0.455,-0.267C0.424,-0.267 0.403,-0.26 0.391,-0.246C0.379,-0.231 0.373,-0.207 0.373,-0.174L0.373,-0.02C0.373,0.039 0.358,0.082 0.329,0.11C0.3,0.138 0.254,0.152 0.192,0.152Z" style="fill-rule:nonzero;"/>
                </g>
                <g transform="matrix(33.3333,0,0,33.3333,287.5,781.011)">
                    <path d="M0.348,0.011C0.171,0.011 0.083,-0.076 0.083,-0.25C0.083,-0.336 0.106,-0.402 0.151,-0.448C0.196,-0.494 0.262,-0.517 0.347,-0.517C0.377,-0.517 0.407,-0.513 0.437,-0.506C0.466,-0.499 0.49,-0.489 0.509,-0.477L0.509,-0.411C0.458,-0.433 0.407,-0.444 0.356,-0.444C0.294,-0.444 0.248,-0.429 0.219,-0.399C0.189,-0.368 0.174,-0.321 0.174,-0.258L0.174,-0.248C0.174,-0.183 0.189,-0.136 0.22,-0.107C0.25,-0.077 0.298,-0.062 0.364,-0.062C0.414,-0.062 0.464,-0.074 0.514,-0.098L0.514,-0.031C0.492,-0.018 0.467,-0.007 0.438,-0C0.409,0.007 0.379,0.011 0.348,0.011Z" style="fill-rule:nonzero;"/>
                </g>
                <g transform="matrix(33.3333,0,0,33.3333,307.5,781.011)">
                    <path d="M0.241,0.013C0.193,0.013 0.155,-0.001 0.126,-0.028C0.097,-0.055 0.083,-0.09 0.083,-0.135C0.083,-0.184 0.101,-0.223 0.136,-0.252C0.171,-0.281 0.218,-0.295 0.277,-0.295C0.316,-0.295 0.361,-0.288 0.412,-0.275L0.412,-0.348C0.412,-0.385 0.403,-0.41 0.386,-0.426C0.369,-0.441 0.338,-0.448 0.295,-0.448C0.24,-0.448 0.18,-0.438 0.117,-0.417L0.117,-0.483C0.14,-0.494 0.17,-0.503 0.206,-0.51C0.242,-0.518 0.277,-0.521 0.31,-0.521C0.373,-0.521 0.42,-0.508 0.451,-0.483C0.482,-0.457 0.497,-0.417 0.497,-0.364L0.497,-0L0.423,-0L0.415,-0.053C0.388,-0.032 0.36,-0.015 0.33,-0.004C0.3,0.007 0.27,0.013 0.241,0.013ZM0.261,-0.056C0.307,-0.056 0.357,-0.073 0.412,-0.108L0.412,-0.22C0.371,-0.229 0.332,-0.234 0.295,-0.234C0.212,-0.234 0.171,-0.202 0.171,-0.139C0.171,-0.112 0.179,-0.092 0.195,-0.078C0.21,-0.063 0.232,-0.056 0.261,-0.056Z" style="fill-rule:nonzero;"/>
                </g>
                <g transform="matrix(33.3333,0,0,33.3333,327.5,781.011)">
                    <path d="M0.343,0.01C0.286,0.01 0.245,-0.003 0.22,-0.028C0.195,-0.053 0.182,-0.095 0.182,-0.152L0.182,-0.436L0.056,-0.436L0.056,-0.497L0.184,-0.506L0.198,-0.664L0.271,-0.664L0.271,-0.507L0.503,-0.507L0.503,-0.436L0.271,-0.436L0.271,-0.161C0.271,-0.125 0.278,-0.1 0.292,-0.085C0.305,-0.07 0.329,-0.063 0.363,-0.063C0.386,-0.063 0.41,-0.065 0.436,-0.07C0.462,-0.074 0.486,-0.08 0.508,-0.087L0.508,-0.022C0.489,-0.013 0.465,-0.005 0.435,0.001C0.404,0.007 0.374,0.01 0.343,0.01Z" style="fill-rule:nonzero;"/>
                </g>
                <g transform="matrix(33.3333,0,0,33.3333,347.5,781.011)">
                    <path d="M0.348,0.011C0.171,0.011 0.083,-0.076 0.083,-0.25C0.083,-0.336 0.106,-0.402 0.151,-0.448C0.196,-0.494 0.262,-0.517 0.347,-0.517C0.377,-0.517 0.407,-0.513 0.437,-0.506C0.466,-0.499 0.49,-0.489 0.509,-0.477L0.509,-0.411C0.458,-0.433 0.407,-0.444 0.356,-0.444C0.294,-0.444 0.248,-0.429 0.219,-0.399C0.189,-0.368 0.174,-0.321 0.174,-0.258L0.174,-0.248C0.174,-0.183 0.189,-0.136 0.22,-0.107C0.25,-0.077 0.298,-0.062 0.364,-0.062C0.414,-0.062 0.464,-0.074 0.514,-0.098L0.514,-0.031C0.492,-0.018 0.467,-0.007 0.438,-0C0.409,0.007 0.379,0.011 0.348,0.011Z" style="fill-rule:nonzero;"/>
                </g>
                <g transform="matrix(33.3333,0,0,33.3333,367.5,781.011)">
                    <path d="M0.085,-0.74L0.174,-0.74L0.174,-0.453C0.239,-0.498 0.305,-0.521 0.372,-0.521C0.42,-0.521 0.457,-0.508 0.483,-0.482C0.508,-0.456 0.521,-0.419 0.521,-0.37L0.521,-0L0.432,-0L0.432,-0.339C0.432,-0.377 0.425,-0.405 0.409,-0.422C0.395,-0.439 0.371,-0.447 0.338,-0.447C0.283,-0.447 0.228,-0.429 0.174,-0.394L0.174,-0L0.085,-0L0.085,-0.74Z" style="fill-rule:nonzero;"/>
                </g>
            </g>
        </g>
        <g id="Pass" transform="matrix(1,0,0,1,0,100)">
            <g transform="matrix(1,0,0,5.1462,467.065,-47.6087)">
                <g transform="matrix(1,-0,-0,0.194318,-792.066,-0.464664)">
                    <path d="M612.501,793.75L575.001,775L612.501,756.25L593.751,775L612.501,793.75Z"/>
                    <path d="M775.001,245L925.001,245L925.001,775L593.751,775" style="fill:none;stroke:black;stroke-width:4.17px;"/>
                </g>
            </g>
            <g transform="matrix(1,0,0,1,202.5,-613.261)">
                <g transform="matrix(50,0,0,50,247.5,790.261)">
                    <path d="M0.086,-0.507L0.161,-0.507L0.169,-0.454C0.22,-0.499 0.274,-0.521 0.331,-0.521C0.396,-0.521 0.448,-0.498 0.486,-0.452C0.523,-0.405 0.542,-0.341 0.542,-0.26C0.542,-0.205 0.533,-0.156 0.515,-0.114C0.496,-0.072 0.471,-0.04 0.438,-0.018C0.405,0.004 0.368,0.015 0.325,0.015C0.27,0.015 0.22,-0.002 0.175,-0.035L0.175,0.206L0.086,0.206L0.086,-0.507ZM0.307,-0.058C0.354,-0.058 0.39,-0.075 0.414,-0.108C0.439,-0.141 0.451,-0.19 0.451,-0.255C0.451,-0.318 0.439,-0.366 0.416,-0.399C0.392,-0.432 0.357,-0.448 0.31,-0.448C0.264,-0.448 0.219,-0.431 0.175,-0.397L0.175,-0.101C0.216,-0.072 0.26,-0.058 0.307,-0.058Z" style="fill-rule:nonzero;"/>
                </g>
                <g transform="matrix(50,0,0,50,277.5,790.261)">
                    <path d="M0.241,0.013C0.193,0.013 0.155,-0.001 0.126,-0.028C0.097,-0.055 0.083,-0.09 0.083,-0.135C0.083,-0.184 0.101,-0.223 0.136,-0.252C0.171,-0.281 0.218,-0.295 0.277,-0.295C0.316,-0.295 0.361,-0.288 0.412,-0.275L0.412,-0.348C0.412,-0.385 0.403,-0.41 0.386,-0.426C0.369,-0.441 0.338,-0.448 0.295,-0.448C0.24,-0.448 0.18,-0.438 0.117,-0.417L0.117,-0.483C0.14,-0.494 0.17,-0.503 0.206,-0.51C0.242,-0.518 0.277,-0.521 0.31,-0.521C0.373,-0.521 0.42,-0.508 0.451,-0.483C0.482,-0.457 0.497,-0.417 0.497,-0.364L0.497,-0L0.423,-0L0.415,-0.053C0.388,-0.032 0.36,-0.015 0.33,-0.004C0.3,0.007 0.27,0.013 0.241,0.013ZM0.261,-0.056C0.307,-0.056 0.357,-0.073 0.412,-0.108L0.412,-0.22C0.371,-0.229 0.332,-0.234 0.295,-0.234C0.212,-0.234 0.171,-0.202 0.171,-0.139C0.171,-0.112 0.179,-0.092 0.195,-0.078C0.21,-0.063 0.232,-0.056 0.261,-0.056Z" style="fill-rule:nonzero;"/>
                </g>
                <g transform="matrix(50,0,0,50,307.5,790.261)">
                    <path d="M0.294,0.015C0.255,0.015 0.217,0.011 0.181,0.003C0.144,-0.005 0.113,-0.016 0.086,-0.031L0.086,-0.101C0.116,-0.088 0.149,-0.077 0.186,-0.07C0.223,-0.063 0.259,-0.059 0.295,-0.059C0.337,-0.059 0.37,-0.066 0.393,-0.079C0.416,-0.092 0.427,-0.111 0.427,-0.135C0.427,-0.154 0.42,-0.169 0.406,-0.18C0.391,-0.191 0.366,-0.2 0.331,-0.209L0.243,-0.23C0.191,-0.242 0.153,-0.26 0.128,-0.283C0.102,-0.307 0.09,-0.338 0.09,-0.376C0.09,-0.422 0.108,-0.458 0.145,-0.483C0.182,-0.508 0.233,-0.521 0.298,-0.521C0.331,-0.521 0.366,-0.517 0.402,-0.509C0.437,-0.502 0.466,-0.493 0.488,-0.482L0.488,-0.414C0.46,-0.424 0.429,-0.432 0.394,-0.438C0.359,-0.444 0.327,-0.447 0.298,-0.447C0.259,-0.447 0.229,-0.441 0.207,-0.429C0.187,-0.417 0.176,-0.4 0.176,-0.378C0.176,-0.36 0.183,-0.346 0.197,-0.335C0.211,-0.324 0.237,-0.315 0.274,-0.306L0.363,-0.285C0.416,-0.272 0.455,-0.254 0.479,-0.231C0.503,-0.208 0.515,-0.177 0.515,-0.138C0.515,-0.091 0.495,-0.054 0.456,-0.027C0.416,0.001 0.362,0.015 0.294,0.015Z" style="fill-rule:nonzero;"/>
                </g>
                <g transform="matrix(50,0,0,50,337.5,790.261)">
                    <path d="M0.294,0.015C0.255,0.015 0.217,0.011 0.181,0.003C0.144,-0.005 0.113,-0.016 0.086,-0.031L0.086,-0.101C0.116,-0.088 0.149,-0.077 0.186,-0.07C0.223,-0.063 0.259,-0.059 0.295,-0.059C0.337,-0.059 0.37,-0.066 0.393,-0.079C0.416,-0.092 0.427,-0.111 0.427,-0.135C0.427,-0.154 0.42,-0.169 0.406,-0.18C0.391,-0.191 0.366,-0.2 0.331,-0.209L0.243,-0.23C0.191,-0.242 0.153,-0.26 0.128,-0.283C0.102,-0.307 0.09,-0.338 0.09,-0.376C0.09,-0.422 0.108,-0.458 0.145,-0.483C0.182,-0.508 0.233,-0.521 0.298,-0.521C0.331,-0.521 0.366,-0.517 0.402,-0.509C0.437,-0.502 0.466,-0.493 0.488,-0.482L0.488,-0.414C0.46,-0.424 0.429,-0.432 0.394,-0.438C0.359,-0.444 0.327,-0.447 0.298,-0.447C0.259,-0.447 0.229,-0.441 0.207,-0.429C0.187,-0.417 0.176,-0.4 0.176,-0.378C0.176,-0.36 0.183,-0.346 0.197,-0.335C0.211,-0.324 0.237,-0.315 0.274,-0.306L0.363,-0.285C0.416,-0.272 0.455,-0.254 0.479,-0.231C0.503,-0.208 0.515,-0.177 0.515,-0.138C0.515,-0.091 0.495,-0.054 0.456,-0.027C0.416,0.001 0.362,0.015 0.294,0.015Z" style="fill-rule:nonzero;"/>
                </g>
            </g>
        </g>
        <g id="Fail" transform="matrix(1,0,0,1,-100,-135.507)">
            <g transform="matrix(1,-1.28395e-33,0,0.935673,-57.9348,480.942)">
                <g transform="matrix(1,1.37222e-33,-0,1.06875,-167.066,-315.746)">
                    <path d="M593.75,427.5L575,465L556.25,427.5L575,446.25L593.75,427.5Z"/>
                    <path d="M575.001,365C575.001,365 575,417.294 575,446.25" style="fill:none;stroke:black;stroke-width:4.17px;"/>
                </g>
            </g>
            <g transform="matrix(1,0,0,1,122.5,-202.754)">
                <g transform="matrix(50,0,0,50,247.5,790.261)">
                    <path d="M0.207,-0.436L0.057,-0.436L0.057,-0.497L0.207,-0.506L0.207,-0.558C0.207,-0.626 0.223,-0.676 0.254,-0.707C0.284,-0.738 0.334,-0.754 0.401,-0.754C0.426,-0.754 0.453,-0.751 0.482,-0.746C0.51,-0.741 0.533,-0.734 0.551,-0.726L0.551,-0.659C0.5,-0.674 0.453,-0.681 0.411,-0.681C0.368,-0.681 0.338,-0.673 0.321,-0.656C0.304,-0.639 0.296,-0.607 0.296,-0.561L0.296,-0.507L0.517,-0.507L0.517,-0.436L0.296,-0.436L0.296,-0L0.207,-0L0.207,-0.436Z" style="fill-rule:nonzero;"/>
                </g>
                <g transform="matrix(50,0,0,50,277.5,790.261)">
                    <path d="M0.241,0.013C0.193,0.013 0.155,-0.001 0.126,-0.028C0.097,-0.055 0.083,-0.09 0.083,-0.135C0.083,-0.184 0.101,-0.223 0.136,-0.252C0.171,-0.281 0.218,-0.295 0.277,-0.295C0.316,-0.295 0.361,-0.288 0.412,-0.275L0.412,-0.348C0.412,-0.385 0.403,-0.41 0.386,-0.426C0.369,-0.441 0.338,-0.448 0.295,-0.448C0.24,-0.448 0.18,-0.438 0.117,-0.417L0.117,-0.483C0.14,-0.494 0.17,-0.503 0.206,-0.51C0.242,-0.518 0.277,-0.521 0.31,-0.521C0.373,-0.521 0.42,-0.508 0.451,-0.483C0.482,-0.457 0.497,-0.417 0.497,-0.364L0.497,-0L0.423,-0L0.415,-0.053C0.388,-0.032 0.36,-0.015 0.33,-0.004C0.3,0.007 0.27,0.013 0.241,0.013ZM0.261,-0.056C0.307,-0.056 0.357,-0.073 0.412,-0.108L0.412,-0.22C0.371,-0.229 0.332,-0.234 0.295,-0.234C0.212,-0.234 0.171,-0.202 0.171,-0.139C0.171,-0.112 0.179,-0.092 0.195,-0.078C0.21,-0.063 0.232,-0.056 0.261,-0.056Z" style="fill-rule:nonzero;"/>
                </g>
                <g transform="matrix(50,0,0,50,307.5,790.261)">
                    <path d="M0.077,-0.071L0.264,-0.071L0.264,-0.436L0.111,-0.436L0.111,-0.507L0.353,-0.507L0.353,-0.071L0.529,-0.071L0.529,-0L0.077,-0L0.077,-0.071ZM0.292,-0.596C0.273,-0.596 0.257,-0.602 0.245,-0.614C0.233,-0.625 0.227,-0.641 0.227,-0.66C0.227,-0.68 0.233,-0.696 0.245,-0.708C0.257,-0.719 0.273,-0.725 0.292,-0.725C0.312,-0.725 0.328,-0.719 0.34,-0.708C0.352,-0.696 0.358,-0.68 0.358,-0.66C0.358,-0.641 0.352,-0.625 0.34,-0.614C0.328,-0.602 0.312,-0.596 0.292,-0.596Z" style="fill-rule:nonzero;"/>
                </g>
                <g transform="matrix(50,0,0,50,337.5,790.261)">
                    <path d="M0.069,-0.071L0.256,-0.071L0.256,-0.669L0.094,-0.669L0.094,-0.74L0.345,-0.74L0.345,-0.071L0.521,-0.071L0.521,-0L0.069,-0L0.069,-0.071Z" style="fill-rule:nonzero;"/>
                </g>
            </g>
        </g>
        <g id="Try" transform="matrix(1,0,0,1,-100,-135.507)">
            <g transform="matrix(1.04308,0,0,0.94359,-61.2245,-5.18511)">
                <path d="M394.239,334.565L585.978,461.739L394.239,588.913L202.5,461.739L394.239,334.565Z" style="fill:rgb(235,235,235);stroke:black;stroke-width:4.19px;"/>
            </g>
            <g transform="matrix(1,0,0,1,-97.5,-353.754)">
                <g transform="matrix(50,0,0,50,387.5,790.261)">
                    <path d="M0.343,0.01C0.286,0.01 0.245,-0.003 0.22,-0.028C0.195,-0.053 0.182,-0.095 0.182,-0.152L0.182,-0.436L0.056,-0.436L0.056,-0.497L0.184,-0.506L0.198,-0.664L0.271,-0.664L0.271,-0.507L0.503,-0.507L0.503,-0.436L0.271,-0.436L0.271,-0.161C0.271,-0.125 0.278,-0.1 0.292,-0.085C0.305,-0.07 0.329,-0.063 0.363,-0.063C0.386,-0.063 0.41,-0.065 0.436,-0.07C0.462,-0.074 0.486,-0.08 0.508,-0.087L0.508,-0.022C0.489,-0.013 0.465,-0.005 0.435,0.001C0.404,0.007 0.374,0.01 0.343,0.01Z" style="fill-rule:nonzero;"/>
                </g>
                <g transform="matrix(50,0,0,50,417.5,790.261)">
                    <path d="M0.081,-0L0.081,-0.071L0.208,-0.071L0.208,-0.436L0.082,-0.436L0.082,-0.507L0.283,-0.507L0.294,-0.433C0.318,-0.461 0.343,-0.481 0.369,-0.493C0.395,-0.505 0.425,-0.511 0.46,-0.511C0.473,-0.511 0.486,-0.51 0.5,-0.508C0.514,-0.506 0.525,-0.503 0.533,-0.5L0.533,-0.42C0.51,-0.427 0.483,-0.43 0.452,-0.43C0.417,-0.43 0.388,-0.426 0.365,-0.417C0.341,-0.407 0.318,-0.393 0.297,-0.373L0.297,-0.071L0.463,-0.071L0.463,-0L0.081,-0Z" style="fill-rule:nonzero;"/>
                </g>
                <g transform="matrix(50,0,0,50,447.5,790.261)">
                    <path d="M0.159,0.218C0.132,0.218 0.108,0.213 0.085,0.204L0.085,0.14C0.104,0.144 0.123,0.146 0.142,0.146C0.167,0.146 0.186,0.14 0.2,0.128C0.214,0.116 0.227,0.095 0.238,0.064L0.257,0.012L0.047,-0.507L0.141,-0.507L0.3,-0.069L0.461,-0.507L0.553,-0.507L0.31,0.092C0.298,0.122 0.285,0.146 0.271,0.164C0.257,0.183 0.241,0.196 0.223,0.205C0.205,0.214 0.184,0.218 0.159,0.218Z" style="fill-rule:nonzero;"/>
                </g>
                <g transform="matrix(50,0,0,50,477.5,790.261)">
                    <path d="M0.408,0.152C0.346,0.152 0.3,0.138 0.271,0.11C0.242,0.082 0.227,0.039 0.227,-0.02L0.227,-0.174C0.227,-0.207 0.221,-0.231 0.209,-0.246C0.197,-0.26 0.176,-0.267 0.145,-0.267L0.108,-0.267L0.108,-0.343L0.145,-0.343C0.176,-0.343 0.197,-0.35 0.209,-0.365C0.221,-0.379 0.227,-0.403 0.227,-0.436L0.227,-0.59C0.227,-0.649 0.242,-0.692 0.271,-0.72C0.3,-0.748 0.346,-0.762 0.408,-0.762C0.427,-0.762 0.447,-0.76 0.469,-0.755C0.49,-0.751 0.506,-0.746 0.517,-0.74L0.517,-0.673C0.48,-0.684 0.446,-0.689 0.416,-0.689C0.381,-0.689 0.357,-0.682 0.342,-0.667C0.327,-0.652 0.319,-0.627 0.319,-0.594L0.319,-0.439C0.319,-0.403 0.313,-0.374 0.301,-0.351C0.288,-0.329 0.27,-0.313 0.246,-0.306C0.295,-0.288 0.319,-0.243 0.319,-0.171L0.319,-0.016C0.319,0.017 0.327,0.041 0.342,0.056C0.357,0.071 0.381,0.079 0.416,0.079C0.446,0.079 0.48,0.074 0.517,0.063L0.517,0.13C0.506,0.136 0.49,0.141 0.469,0.145C0.447,0.15 0.427,0.152 0.408,0.152Z" style="fill-rule:nonzero;"/>
                </g>
            </g>
            <g transform="matrix(1,0,0,1.36752,-57.9348,-98.8573)">
                <g transform="matrix(1,-0,-0,0.73125,-167.066,207.942)">
                    <path d="M593.751,87.5L575.001,125L556.251,87.5L575.001,106.25L593.751,87.5Z"/>
                    <path d="M575.001,50L575.001,106.25" style="fill:none;stroke:black;stroke-width:4.17px;"/>
                </g>
            </g>
        </g>
    </g>
    <g id="Throw" transform="matrix(1,0,0,1,-405.186,215)">
        <g transform="matrix(0.00281572,-0.999996,-1.25037,-0.0035207,872,777.688)">
            <g transform="matrix(0.00281572,-0.79976,-0.999996,-0.00225191,991.369,375.574)">
                <path d="M243.75,612.5L225,650L206.25,612.5L225,631.25L243.75,612.5Z"/>
                <path d="M375.001,584.493L225,585L225,631.25" style="fill:none;stroke:black;stroke-width:4.17px;"/>
            </g>
        </g>
        <g transform="matrix(-1.26582,-1.55019e-16,1.21654e-16,-0.993378,963.334,1214.27)">
            <path d="M263.187,510.657L288.856,586.157L338.32,562.826L330.388,614.995L413.454,614.995L346.252,661.657L384.755,699.407L330.388,708.318L356.057,783.818L288.856,737.157L263.187,783.818L237.518,737.157L170.317,783.818L195.986,708.318L141.618,699.407L180.121,661.657L112.92,614.995L195.986,614.995L188.053,562.826L237.518,586.157L263.187,510.657Z" style="fill:rgb(255,169,168);stroke:rgb(35,31,32);stroke-width:3.66px;"/>
        </g>
        <g transform="matrix(1,-5.00053e-18,-6.92381e-18,1,232.686,-218.261)">
            <g transform="matrix(37.5,0,0,37.5,296.25,781.011)">
                <path d="M0.101,-0.693L0.52,-0.693L0.52,-0.618L0.193,-0.618L0.193,-0.395L0.463,-0.395L0.463,-0.32L0.193,-0.32L0.193,-0.075L0.52,-0.075L0.52,-0L0.101,-0L0.101,-0.693Z" style="fill-rule:nonzero;"/>
            </g>
            <g transform="matrix(37.5,0,0,37.5,318.75,781.011)">
                <path d="M0.252,-0.261L0.083,-0.507L0.18,-0.507L0.302,-0.322L0.424,-0.507L0.518,-0.507L0.349,-0.264L0.53,-0L0.432,-0L0.297,-0.202L0.165,-0L0.07,-0L0.252,-0.261Z" style="fill-rule:nonzero;"/>
            </g>
            <g transform="matrix(37.5,0,0,37.5,341.25,781.011)">
                <path d="M0.348,0.011C0.171,0.011 0.083,-0.076 0.083,-0.25C0.083,-0.336 0.106,-0.402 0.151,-0.448C0.196,-0.494 0.262,-0.517 0.347,-0.517C0.377,-0.517 0.407,-0.513 0.437,-0.506C0.466,-0.499 0.49,-0.489 0.509,-0.477L0.509,-0.411C0.458,-0.433 0.407,-0.444 0.356,-0.444C0.294,-0.444 0.248,-0.429 0.219,-0.399C0.189,-0.368 0.174,-0.321 0.174,-0.258L0.174,-0.248C0.174,-0.183 0.189,-0.136 0.22,-0.107C0.25,-0.077 0.298,-0.062 0.364,-0.062C0.414,-0.062 0.464,-0.074 0.514,-0.098L0.514,-0.031C0.492,-0.018 0.467,-0.007 0.438,-0C0.409,0.007 0.379,0.011 0.348,0.011Z" style="fill-rule:nonzero;"/>
            </g>
            <g transform="matrix(37.5,0,0,37.5,363.75,781.011)">
                <path d="M0.327,0.015C0.243,0.015 0.179,-0.008 0.136,-0.054C0.092,-0.099 0.07,-0.166 0.07,-0.254C0.07,-0.338 0.091,-0.404 0.134,-0.451C0.177,-0.498 0.236,-0.521 0.312,-0.521C0.377,-0.521 0.428,-0.503 0.465,-0.468C0.501,-0.432 0.519,-0.382 0.519,-0.317C0.519,-0.286 0.517,-0.259 0.512,-0.234L0.156,-0.234C0.159,-0.173 0.175,-0.128 0.204,-0.1C0.234,-0.072 0.278,-0.058 0.338,-0.058C0.399,-0.058 0.456,-0.068 0.509,-0.089L0.509,-0.024C0.486,-0.012 0.459,-0.003 0.427,0.004C0.395,0.011 0.362,0.015 0.327,0.015ZM0.438,-0.296C0.439,-0.303 0.439,-0.313 0.439,-0.324C0.439,-0.365 0.428,-0.397 0.406,-0.419C0.384,-0.441 0.352,-0.452 0.31,-0.452C0.264,-0.452 0.228,-0.439 0.202,-0.412C0.176,-0.386 0.161,-0.347 0.156,-0.296L0.438,-0.296Z" style="fill-rule:nonzero;"/>
            </g>
            <g transform="matrix(37.5,0,0,37.5,386.25,781.011)">
                <path d="M0.086,-0.507L0.161,-0.507L0.169,-0.454C0.22,-0.499 0.274,-0.521 0.331,-0.521C0.396,-0.521 0.448,-0.498 0.486,-0.452C0.523,-0.405 0.542,-0.341 0.542,-0.26C0.542,-0.205 0.533,-0.156 0.515,-0.114C0.496,-0.072 0.471,-0.04 0.438,-0.018C0.405,0.004 0.368,0.015 0.325,0.015C0.27,0.015 0.22,-0.002 0.175,-0.035L0.175,0.206L0.086,0.206L0.086,-0.507ZM0.307,-0.058C0.354,-0.058 0.39,-0.075 0.414,-0.108C0.439,-0.141 0.451,-0.19 0.451,-0.255C0.451,-0.318 0.439,-0.366 0.416,-0.399C0.392,-0.432 0.357,-0.448 0.31,-0.448C0.264,-0.448 0.219,-0.431 0.175,-0.397L0.175,-0.101C0.216,-0.072 0.26,-0.058 0.307,-0.058Z" style="fill-rule:nonzero;"/>
            </g>
            <g transform="matrix(37.5,0,0,37.5,408.75,781.011)">
                <path d="M0.343,0.01C0.286,0.01 0.245,-0.003 0.22,-0.028C0.195,-0.053 0.182,-0.095 0.182,-0.152L0.182,-0.436L0.056,-0.436L0.056,-0.497L0.184,-0.506L0.198,-0.664L0.271,-0.664L0.271,-0.507L0.503,-0.507L0.503,-0.436L0.271,-0.436L0.271,-0.161C0.271,-0.125 0.278,-0.1 0.292,-0.085C0.305,-0.07 0.329,-0.063 0.363,-0.063C0.386,-0.063 0.41,-0.065 0.436,-0.07C0.462,-0.074 0.486,-0.08 0.508,-0.087L0.508,-0.022C0.489,-0.013 0.465,-0.005 0.435,0.001C0.404,0.007 0.374,0.01 0.343,0.01Z" style="fill-rule:nonzero;"/>
            </g>
            <g transform="matrix(37.5,0,0,37.5,431.25,781.011)">
                <path d="M0.077,-0.071L0.264,-0.071L0.264,-0.436L0.111,-0.436L0.111,-0.507L0.353,-0.507L0.353,-0.071L0.529,-0.071L0.529,-0L0.077,-0L0.077,-0.071ZM0.292,-0.596C0.273,-0.596 0.257,-0.602 0.245,-0.614C0.233,-0.625 0.227,-0.641 0.227,-0.66C0.227,-0.68 0.233,-0.696 0.245,-0.708C0.257,-0.719 0.273,-0.725 0.292,-0.725C0.312,-0.725 0.328,-0.719 0.34,-0.708C0.352,-0.696 0.358,-0.68 0.358,-0.66C0.358,-0.641 0.352,-0.625 0.34,-0.614C0.328,-0.602 0.312,-0.596 0.292,-0.596Z" style="fill-rule:nonzero;"/>
            </g>
            <g transform="matrix(37.5,0,0,37.5,453.75,781.011)">
                <path d="M0.3,0.015C0.223,0.015 0.164,-0.009 0.121,-0.056C0.078,-0.103 0.057,-0.169 0.057,-0.253C0.057,-0.337 0.078,-0.403 0.121,-0.45C0.164,-0.497 0.223,-0.521 0.3,-0.521C0.377,-0.521 0.436,-0.497 0.479,-0.45C0.522,-0.403 0.543,-0.337 0.543,-0.253C0.543,-0.169 0.522,-0.103 0.479,-0.056C0.436,-0.009 0.377,0.015 0.3,0.015ZM0.3,-0.058C0.35,-0.058 0.388,-0.074 0.413,-0.107C0.439,-0.14 0.452,-0.188 0.452,-0.253C0.452,-0.383 0.401,-0.448 0.3,-0.448C0.199,-0.448 0.148,-0.383 0.148,-0.253C0.148,-0.188 0.161,-0.14 0.187,-0.107C0.212,-0.074 0.25,-0.058 0.3,-0.058Z" style="fill-rule:nonzero;"/>
            </g>
            <g transform="matrix(37.5,0,0,37.5,476.25,781.011)">
                <path d="M0.085,-0.507L0.16,-0.507L0.169,-0.449C0.234,-0.497 0.302,-0.521 0.372,-0.521C0.42,-0.521 0.457,-0.508 0.483,-0.482C0.508,-0.455 0.521,-0.418 0.521,-0.369L0.521,-0L0.432,-0L0.432,-0.338C0.432,-0.376 0.425,-0.404 0.409,-0.422C0.395,-0.44 0.371,-0.449 0.338,-0.449C0.285,-0.449 0.23,-0.431 0.174,-0.394L0.174,-0L0.085,-0L0.085,-0.507Z" style="fill-rule:nonzero;"/>
            </g>
        </g>
        <g transform="matrix(1,0,0,1,377.686,-438.261)">
            <g transform="matrix(50,0,0,50,247.5,790.261)">
                <path d="M0.343,0.01C0.286,0.01 0.245,-0.003 0.22,-0.028C0.195,-0.053 0.182,-0.095 0.182,-0.152L0.182,-0.436L0.056,-0.436L0.056,-0.497L0.184,-0.506L0.198,-0.664L0.271,-0.664L0.271,-0.507L0.503,-0.507L0.503,-0.436L0.271,-0.436L0.271,-0.161C0.271,-0.125 0.278,-0.1 0.292,-0.085C0.305,-0.07 0.329,-0.063 0.363,-0.063C0.386,-0.063 0.41,-0.065 0.436,-0.07C0.462,-0.074 0.486,-0.08 0.508,-0.087L0.508,-0.022C0.489,-0.013 0.465,-0.005 0.435,0.001C0.404,0.007 0.374,0.01 0.343,0.01Z" style="fill-rule:nonzero;"/>
            </g>
            <g transform="matrix(50,0,0,50,277.5,790.261)">
                <path d="M0.085,-0.74L0.174,-0.74L0.174,-0.453C0.239,-0.498 0.305,-0.521 0.372,-0.521C0.42,-0.521 0.457,-0.508 0.483,-0.482C0.508,-0.456 0.521,-0.419 0.521,-0.37L0.521,-0L0.432,-0L0.432,-0.339C0.432,-0.377 0.425,-0.405 0.409,-0.422C0.395,-0.439 0.371,-0.447 0.338,-0.447C0.283,-0.447 0.228,-0.429 0.174,-0.394L0.174,-0L0.085,-0L0.085,-0.74Z" style="fill-rule:nonzero;"/>
            </g>
            <g transform="matrix(50,0,0,50,307.5,790.261)">
                <path d="M0.081,-0L0.081,-0.071L0.208,-0.071L0.208,-0.436L0.082,-0.436L0.082,-0.507L0.283,-0.507L0.294,-0.433C0.318,-0.461 0.343,-0.481 0.369,-0.493C0.395,-0.505 0.425,-0.511 0.46,-0.511C0.473,-0.511 0.486,-0.51 0.5,-0.508C0.514,-0.506 0.525,-0.503 0.533,-0.5L0.533,-0.42C0.51,-0.427 0.483,-0.43 0.452,-0.43C0.417,-0.43 0.388,-0.426 0.365,-0.417C0.341,-0.407 0.318,-0.393 0.297,-0.373L0.297,-0.071L0.463,-0.071L0.463,-0L0.081,-0Z" style="fill-rule:nonzero;"/>
            </g>
            <g transform="matrix(50,0,0,50,337.5,790.261)">
                <path d="M0.3,0.015C0.223,0.015 0.164,-0.009 0.121,-0.056C0.078,-0.103 0.057,-0.169 0.057,-0.253C0.057,-0.337 0.078,-0.403 0.121,-0.45C0.164,-0.497 0.223,-0.521 0.3,-0.521C0.377,-0.521 0.436,-0.497 0.479,-0.45C0.522,-0.403 0.543,-0.337 0.543,-0.253C0.543,-0.169 0.522,-0.103 0.479,-0.056C0.436,-0.009 0.377,0.015 0.3,0.015ZM0.3,-0.058C0.35,-0.058 0.388,-0.074 0.413,-0.107C0.439,-0.14 0.452,-0.188 0.452,-0.253C0.452,-0.383 0.401,-0.448 0.3,-0.448C0.199,-0.448 0.148,-0.383 0.148,-0.253C0.148,-0.188 0.161,-0.14 0.187,-0.107C0.212,-0.074 0.25,-0.058 0.3,-0.058Z" style="fill-rule:nonzero;"/>
            </g>
            <g transform="matrix(50,0,0,50,367.5,790.261)">
                <path d="M0.038,-0.507L0.131,-0.507L0.272,-0.085L0.404,-0.507L0.495,-0.507L0.626,-0.079L0.77,-0.507L0.861,-0.507L0.67,-0L0.579,-0L0.447,-0.416L0.316,-0L0.225,-0L0.038,-0.507Z" style="fill-rule:nonzero;"/>
            </g>
        </g>
    </g>
</svg>
