<?xml version="1.0" encoding="UTF-8" standalone="no"?>
<!DOCTYPE svg PUBLIC "-//W3C//DTD SVG 1.1//EN" "http://www.w3.org/Graphics/SVG/1.1/DTD/svg11.dtd">
<svg width="100%" height="100%" viewBox="0 0 1000 1000" version="1.1" xmlns="http://www.w3.org/2000/svg" xmlns:xlink="http://www.w3.org/1999/xlink" xml:space="preserve" xmlns:serif="http://www.serif.com/" style="fill-rule:evenodd;clip-rule:evenodd;stroke-linecap:round;stroke-linejoin:round;stroke-miterlimit:1.5;">
    <g id="Finally">
        <g transform="matrix(1.0001,0.00364603,0.00218762,1.74445,-106.248,278.437)">
            <g transform="matrix(0.999902,-0.00208987,-0.00125392,0.573249,106.587,-159.836)">
                <path d="M418.75,937.5L400,975L381.25,937.5L400,956.25L418.75,937.5Z" style="fill:rgb(35,31,32);"/>
                <path d="M400,725L400,956.25" style="fill:none;stroke:rgb(35,31,32);stroke-width:4.17px;"/>
            </g>
        </g>
        <g transform="matrix(1.725,0,0,1.23214,-450,458.929)">
            <rect x="347.826" y="134.783" width="289.855" height="81.159" style="fill:rgb(231,232,233);stroke:rgb(35,31,32);stroke-width:2.78px;"/>
        </g>
        <g transform="matrix(1,0,0,1,-47.5,-103.261)">
            <g transform="matrix(50,0,0,50,282.5,790.261)">
                <path d="M0.192,0.152C0.173,0.152 0.153,0.15 0.132,0.145C0.11,0.141 0.094,0.136 0.083,0.13L0.083,0.063C0.12,0.074 0.154,0.079 0.184,0.079C0.219,0.079 0.244,0.071 0.259,0.056C0.274,0.041 0.281,0.017 0.281,-0.016L0.281,-0.171C0.281,-0.244 0.305,-0.289 0.353,-0.306C0.305,-0.321 0.281,-0.366 0.281,-0.439L0.281,-0.594C0.281,-0.627 0.274,-0.652 0.259,-0.667C0.244,-0.682 0.219,-0.689 0.184,-0.689C0.154,-0.689 0.12,-0.684 0.083,-0.673L0.083,-0.74C0.094,-0.746 0.11,-0.751 0.132,-0.755C0.153,-0.76 0.173,-0.762 0.192,-0.762C0.254,-0.762 0.3,-0.748 0.329,-0.72C0.358,-0.692 0.373,-0.649 0.373,-0.59L0.373,-0.436C0.373,-0.403 0.379,-0.379 0.391,-0.365C0.403,-0.35 0.424,-0.343 0.455,-0.343L0.492,-0.343L0.492,-0.267L0.455,-0.267C0.424,-0.267 0.403,-0.26 0.391,-0.246C0.379,-0.231 0.373,-0.207 0.373,-0.174L0.373,-0.02C0.373,0.039 0.358,0.082 0.329,0.11C0.3,0.138 0.254,0.152 0.192,0.152Z" style="fill-rule:nonzero;"/>
            </g>
            <g transform="matrix(50,0,0,50,342.5,790.261)">
                <path d="M0.207,-0.436L0.057,-0.436L0.057,-0.497L0.207,-0.506L0.207,-0.558C0.207,-0.626 0.223,-0.676 0.254,-0.707C0.284,-0.738 0.334,-0.754 0.401,-0.754C0.426,-0.754 0.453,-0.751 0.482,-0.746C0.51,-0.741 0.533,-0.734 0.551,-0.726L0.551,-0.659C0.5,-0.674 0.453,-0.681 0.411,-0.681C0.368,-0.681 0.338,-0.673 0.321,-0.656C0.304,-0.639 0.296,-0.607 0.296,-0.561L0.296,-0.507L0.517,-0.507L0.517,-0.436L0.296,-0.436L0.296,-0L0.207,-0L0.207,-0.436Z" style="fill-rule:nonzero;"/>
            </g>
            <g transform="matrix(50,0,0,50,372.5,790.261)">
                <path d="M0.077,-0.071L0.264,-0.071L0.264,-0.436L0.111,-0.436L0.111,-0.507L0.353,-0.507L0.353,-0.071L0.529,-0.071L0.529,-0L0.077,-0L0.077,-0.071ZM0.292,-0.596C0.273,-0.596 0.257,-0.602 0.245,-0.614C0.233,-0.625 0.227,-0.641 0.227,-0.66C0.227,-0.68 0.233,-0.696 0.245,-0.708C0.257,-0.719 0.273,-0.725 0.292,-0.725C0.312,-0.725 0.328,-0.719 0.34,-0.708C0.352,-0.696 0.358,-0.68 0.358,-0.66C0.358,-0.641 0.352,-0.625 0.34,-0.614C0.328,-0.602 0.312,-0.596 0.292,-0.596Z" style="fill-rule:nonzero;"/>
            </g>
            <g transform="matrix(50,0,0,50,402.5,790.261)">
                <path d="M0.085,-0.507L0.16,-0.507L0.169,-0.449C0.234,-0.497 0.302,-0.521 0.372,-0.521C0.42,-0.521 0.457,-0.508 0.483,-0.482C0.508,-0.455 0.521,-0.418 0.521,-0.369L0.521,-0L0.432,-0L0.432,-0.338C0.432,-0.376 0.425,-0.404 0.409,-0.422C0.395,-0.44 0.371,-0.449 0.338,-0.449C0.285,-0.449 0.23,-0.431 0.174,-0.394L0.174,-0L0.085,-0L0.085,-0.507Z" style="fill-rule:nonzero;"/>
            </g>
            <g transform="matrix(50,0,0,50,432.5,790.261)">
                <path d="M0.241,0.013C0.193,0.013 0.155,-0.001 0.126,-0.028C0.097,-0.055 0.083,-0.09 0.083,-0.135C0.083,-0.184 0.101,-0.223 0.136,-0.252C0.171,-0.281 0.218,-0.295 0.277,-0.295C0.316,-0.295 0.361,-0.288 0.412,-0.275L0.412,-0.348C0.412,-0.385 0.403,-0.41 0.386,-0.426C0.369,-0.441 0.338,-0.448 0.295,-0.448C0.24,-0.448 0.18,-0.438 0.117,-0.417L0.117,-0.483C0.14,-0.494 0.17,-0.503 0.206,-0.51C0.242,-0.518 0.277,-0.521 0.31,-0.521C0.373,-0.521 0.42,-0.508 0.451,-0.483C0.482,-0.457 0.497,-0.417 0.497,-0.364L0.497,-0L0.423,-0L0.415,-0.053C0.388,-0.032 0.36,-0.015 0.33,-0.004C0.3,0.007 0.27,0.013 0.241,0.013ZM0.261,-0.056C0.307,-0.056 0.357,-0.073 0.412,-0.108L0.412,-0.22C0.371,-0.229 0.332,-0.234 0.295,-0.234C0.212,-0.234 0.171,-0.202 0.171,-0.139C0.171,-0.112 0.179,-0.092 0.195,-0.078C0.21,-0.063 0.232,-0.056 0.261,-0.056Z" style="fill-rule:nonzero;"/>
            </g>
            <g transform="matrix(50,0,0,50,462.5,790.261)">
                <path d="M0.069,-0.071L0.256,-0.071L0.256,-0.669L0.094,-0.669L0.094,-0.74L0.345,-0.74L0.345,-0.071L0.521,-0.071L0.521,-0L0.069,-0L0.069,-0.071Z" style="fill-rule:nonzero;"/>
            </g>
            <g transform="matrix(50,0,0,50,492.5,790.261)">
                <path d="M0.069,-0.071L0.256,-0.071L0.256,-0.669L0.094,-0.669L0.094,-0.74L0.345,-0.74L0.345,-0.071L0.521,-0.071L0.521,-0L0.069,-0L0.069,-0.071Z" style="fill-rule:nonzero;"/>
            </g>
            <g transform="matrix(50,0,0,50,522.5,790.261)">
                <path d="M0.159,0.218C0.132,0.218 0.108,0.213 0.085,0.204L0.085,0.14C0.104,0.144 0.123,0.146 0.142,0.146C0.167,0.146 0.186,0.14 0.2,0.128C0.214,0.116 0.227,0.095 0.238,0.064L0.257,0.012L0.047,-0.507L0.141,-0.507L0.3,-0.069L0.461,-0.507L0.553,-0.507L0.31,0.092C0.298,0.122 0.285,0.146 0.271,0.164C0.257,0.183 0.241,0.196 0.223,0.205C0.205,0.214 0.184,0.218 0.159,0.218Z" style="fill-rule:nonzero;"/>
            </g>
            <g transform="matrix(50,0,0,50,582.5,790.261)">
                <path d="M0.408,0.152C0.346,0.152 0.3,0.138 0.271,0.11C0.242,0.082 0.227,0.039 0.227,-0.02L0.227,-0.174C0.227,-0.207 0.221,-0.231 0.209,-0.246C0.197,-0.26 0.176,-0.267 0.145,-0.267L0.108,-0.267L0.108,-0.343L0.145,-0.343C0.176,-0.343 0.197,-0.35 0.209,-0.365C0.221,-0.379 0.227,-0.403 0.227,-0.436L0.227,-0.59C0.227,-0.649 0.242,-0.692 0.271,-0.72C0.3,-0.748 0.346,-0.762 0.408,-0.762C0.427,-0.762 0.447,-0.76 0.469,-0.755C0.49,-0.751 0.506,-0.746 0.517,-0.74L0.517,-0.673C0.48,-0.684 0.446,-0.689 0.416,-0.689C0.381,-0.689 0.357,-0.682 0.342,-0.667C0.327,-0.652 0.319,-0.627 0.319,-0.594L0.319,-0.439C0.319,-0.403 0.313,-0.374 0.301,-0.351C0.288,-0.329 0.27,-0.313 0.246,-0.306C0.295,-0.288 0.319,-0.243 0.319,-0.171L0.319,-0.016C0.319,0.017 0.327,0.041 0.342,0.056C0.357,0.071 0.381,0.079 0.416,0.079C0.446,0.079 0.48,0.074 0.517,0.063L0.517,0.13C0.506,0.136 0.49,0.141 0.469,0.145C0.447,0.15 0.427,0.152 0.408,0.152Z" style="fill-rule:nonzero;"/>
            </g>
        </g>
    </g>
    <g transform="matrix(-1.10759,-1.35641e-16,9.12403e-17,-0.745033,491.505,1355.46)">
        <path d="M263.187,510.657L288.856,586.157L338.32,562.826L330.388,614.995L413.454,614.995L346.252,661.657L384.755,699.407L330.388,708.318L356.057,783.818L288.856,737.157L263.187,783.818L237.518,737.157L170.317,783.818L195.986,708.318L141.618,699.407L180.121,661.657L112.92,614.995L195.986,614.995L188.053,562.826L237.518,586.157L263.187,510.657Z" style="fill:rgb(255,169,168);stroke:rgb(35,31,32);stroke-width:4.41px;"/>
    </g>
    <g id="Throw-New" serif:id="Throw New">
        <g transform="matrix(1,0,0,0.911681,-207.935,502.09)">
            <g transform="matrix(1,-0,-0,1.09687,207.935,-550.73)">
                <path d="M218.75,737.5L200,775L181.25,737.5L200,756.25L218.75,737.5Z"/>
                <path d="M200,725L200,756.25" style="fill:none;stroke:black;stroke-width:4.17px;"/>
            </g>
        </g>
        <path d="M200,625L200,725L200,625Z" style="fill:none;stroke:rgb(255,0,0);stroke-width:4.17px;stroke-dasharray:8.33,16.67,0,0;"/>
        <g transform="matrix(1,0,0,1,523.188,88.4058)">
            <path d="M-323.188,286.594L-473.188,286.594L-473.188,461.594L-323.188,461.594L-323.188,536.594" style="fill:none;stroke:rgb(35,31,32);stroke-width:4.17px;"/>
        </g>
        <g transform="matrix(1,0,0,1,-182.5,-453.261)">
            <g transform="matrix(37.5,0,0,37.5,247.5,781.011)">
                <path d="M0.343,0.01C0.286,0.01 0.245,-0.003 0.22,-0.028C0.195,-0.053 0.182,-0.095 0.182,-0.152L0.182,-0.436L0.056,-0.436L0.056,-0.497L0.184,-0.506L0.198,-0.664L0.271,-0.664L0.271,-0.507L0.503,-0.507L0.503,-0.436L0.271,-0.436L0.271,-0.161C0.271,-0.125 0.278,-0.1 0.292,-0.085C0.305,-0.07 0.329,-0.063 0.363,-0.063C0.386,-0.063 0.41,-0.065 0.436,-0.07C0.462,-0.074 0.486,-0.08 0.508,-0.087L0.508,-0.022C0.489,-0.013 0.465,-0.005 0.435,0.001C0.404,0.007 0.374,0.01 0.343,0.01Z" style="fill-rule:nonzero;"/>
            </g>
            <g transform="matrix(37.5,0,0,37.5,270,781.011)">
                <path d="M0.085,-0.74L0.174,-0.74L0.174,-0.453C0.239,-0.498 0.305,-0.521 0.372,-0.521C0.42,-0.521 0.457,-0.508 0.483,-0.482C0.508,-0.456 0.521,-0.419 0.521,-0.37L0.521,-0L0.432,-0L0.432,-0.339C0.432,-0.377 0.425,-0.405 0.409,-0.422C0.395,-0.439 0.371,-0.447 0.338,-0.447C0.283,-0.447 0.228,-0.429 0.174,-0.394L0.174,-0L0.085,-0L0.085,-0.74Z" style="fill-rule:nonzero;"/>
            </g>
            <g transform="matrix(37.5,0,0,37.5,292.5,781.011)">
                <path d="M0.081,-0L0.081,-0.071L0.208,-0.071L0.208,-0.436L0.082,-0.436L0.082,-0.507L0.283,-0.507L0.294,-0.433C0.318,-0.461 0.343,-0.481 0.369,-0.493C0.395,-0.505 0.425,-0.511 0.46,-0.511C0.473,-0.511 0.486,-0.51 0.5,-0.508C0.514,-0.506 0.525,-0.503 0.533,-0.5L0.533,-0.42C0.51,-0.427 0.483,-0.43 0.452,-0.43C0.417,-0.43 0.388,-0.426 0.365,-0.417C0.341,-0.407 0.318,-0.393 0.297,-0.373L0.297,-0.071L0.463,-0.071L0.463,-0L0.081,-0Z" style="fill-rule:nonzero;"/>
            </g>
            <g transform="matrix(37.5,0,0,37.5,315,781.011)">
                <path d="M0.3,0.015C0.223,0.015 0.164,-0.009 0.121,-0.056C0.078,-0.103 0.057,-0.169 0.057,-0.253C0.057,-0.337 0.078,-0.403 0.121,-0.45C0.164,-0.497 0.223,-0.521 0.3,-0.521C0.377,-0.521 0.436,-0.497 0.479,-0.45C0.522,-0.403 0.543,-0.337 0.543,-0.253C0.543,-0.169 0.522,-0.103 0.479,-0.056C0.436,-0.009 0.377,0.015 0.3,0.015ZM0.3,-0.058C0.35,-0.058 0.388,-0.074 0.413,-0.107C0.439,-0.14 0.452,-0.188 0.452,-0.253C0.452,-0.383 0.401,-0.448 0.3,-0.448C0.199,-0.448 0.148,-0.383 0.148,-0.253C0.148,-0.188 0.161,-0.14 0.187,-0.107C0.212,-0.074 0.25,-0.058 0.3,-0.058Z" style="fill-rule:nonzero;"/>
            </g>
            <g transform="matrix(37.5,0,0,37.5,337.5,781.011)">
                <path d="M0.038,-0.507L0.131,-0.507L0.272,-0.085L0.404,-0.507L0.495,-0.507L0.626,-0.079L0.77,-0.507L0.861,-0.507L0.67,-0L0.579,-0L0.447,-0.416L0.316,-0L0.225,-0L0.038,-0.507Z" style="fill-rule:nonzero;"/>
            </g>
            <g transform="matrix(37.5,0,0,37.5,247.5,818.511)">
                <path d="M0.085,-0.507L0.16,-0.507L0.169,-0.449C0.234,-0.497 0.302,-0.521 0.372,-0.521C0.42,-0.521 0.457,-0.508 0.483,-0.482C0.508,-0.455 0.521,-0.418 0.521,-0.369L0.521,-0L0.432,-0L0.432,-0.338C0.432,-0.376 0.425,-0.404 0.409,-0.422C0.395,-0.44 0.371,-0.449 0.338,-0.449C0.285,-0.449 0.23,-0.431 0.174,-0.394L0.174,-0L0.085,-0L0.085,-0.507Z" style="fill-rule:nonzero;"/>
            </g>
            <g transform="matrix(37.5,0,0,37.5,270,818.511)">
                <path d="M0.327,0.015C0.243,0.015 0.179,-0.008 0.136,-0.054C0.092,-0.099 0.07,-0.166 0.07,-0.254C0.07,-0.338 0.091,-0.404 0.134,-0.451C0.177,-0.498 0.236,-0.521 0.312,-0.521C0.377,-0.521 0.428,-0.503 0.465,-0.468C0.501,-0.432 0.519,-0.382 0.519,-0.317C0.519,-0.286 0.517,-0.259 0.512,-0.234L0.156,-0.234C0.159,-0.173 0.175,-0.128 0.204,-0.1C0.234,-0.072 0.278,-0.058 0.338,-0.058C0.399,-0.058 0.456,-0.068 0.509,-0.089L0.509,-0.024C0.486,-0.012 0.459,-0.003 0.427,0.004C0.395,0.011 0.362,0.015 0.327,0.015ZM0.438,-0.296C0.439,-0.303 0.439,-0.313 0.439,-0.324C0.439,-0.365 0.428,-0.397 0.406,-0.419C0.384,-0.441 0.352,-0.452 0.31,-0.452C0.264,-0.452 0.228,-0.439 0.202,-0.412C0.176,-0.386 0.161,-0.347 0.156,-0.296L0.438,-0.296Z" style="fill-rule:nonzero;"/>
            </g>
            <g transform="matrix(37.5,0,0,37.5,292.5,818.511)">
                <path d="M0.038,-0.507L0.131,-0.507L0.272,-0.085L0.404,-0.507L0.495,-0.507L0.626,-0.079L0.77,-0.507L0.861,-0.507L0.67,-0L0.579,-0L0.447,-0.416L0.316,-0L0.225,-0L0.038,-0.507Z" style="fill-rule:nonzero;"/>
            </g>
        </g>
    </g>
    <g id="System-Exit" serif:id="System Exit">
        <g transform="matrix(0.392429,-0.00251059,-0.00251059,0.99999,395.301,-16.4197)">
            <g transform="matrix(2.54827,0.00639772,0.00639772,1.00003,-1007.23,13.8911)">
                <path d="M793.75,387.5L775,425L756.25,387.5L775,406.25L793.75,387.5Z" style="fill:rgb(35,31,32);"/>
                <path d="M600,375L775,375L775,406.25" style="fill:none;stroke:rgb(35,31,32);stroke-width:4.17px;"/>
            </g>
        </g>
        <g transform="matrix(1.76923,0,0,1.60465,85.2564,-523.837)">
            <ellipse cx="389.855" cy="622.464" rx="84.783" ry="31.159" style="fill:rgb(231,232,233);stroke:rgb(35,31,32);stroke-width:2.47px;"/>
        </g>
        <g transform="matrix(1,0,0,1,377.5,-453.261)">
            <g transform="matrix(37.5,0,0,37.5,247.5,781.011)">
                <path d="M0.27,0.015C0.234,0.015 0.199,0.011 0.165,0.003C0.131,-0.005 0.101,-0.016 0.075,-0.031L0.075,-0.103C0.112,-0.088 0.145,-0.077 0.175,-0.071C0.205,-0.065 0.237,-0.062 0.27,-0.062C0.321,-0.062 0.362,-0.073 0.392,-0.095C0.422,-0.116 0.437,-0.146 0.437,-0.183C0.437,-0.202 0.434,-0.218 0.429,-0.231C0.423,-0.244 0.413,-0.255 0.398,-0.265C0.383,-0.275 0.362,-0.285 0.333,-0.296L0.25,-0.326C0.183,-0.35 0.137,-0.377 0.11,-0.406C0.083,-0.436 0.07,-0.476 0.07,-0.525C0.07,-0.58 0.092,-0.625 0.135,-0.658C0.178,-0.691 0.234,-0.708 0.305,-0.708C0.37,-0.708 0.431,-0.695 0.488,-0.668L0.488,-0.596C0.419,-0.619 0.358,-0.631 0.305,-0.631C0.259,-0.631 0.224,-0.622 0.199,-0.604C0.174,-0.586 0.162,-0.56 0.162,-0.526C0.162,-0.497 0.171,-0.475 0.189,-0.458C0.206,-0.441 0.241,-0.424 0.293,-0.405L0.376,-0.375C0.431,-0.356 0.471,-0.331 0.494,-0.302C0.517,-0.273 0.529,-0.233 0.529,-0.184C0.529,-0.143 0.518,-0.108 0.496,-0.078C0.474,-0.048 0.444,-0.025 0.405,-0.009C0.366,0.007 0.321,0.015 0.27,0.015Z" style="fill-rule:nonzero;"/>
            </g>
            <g transform="matrix(37.5,0,0,37.5,270,781.011)">
                <path d="M0.159,0.218C0.132,0.218 0.108,0.213 0.085,0.204L0.085,0.14C0.104,0.144 0.123,0.146 0.142,0.146C0.167,0.146 0.186,0.14 0.2,0.128C0.214,0.116 0.227,0.095 0.238,0.064L0.257,0.012L0.047,-0.507L0.141,-0.507L0.3,-0.069L0.461,-0.507L0.553,-0.507L0.31,0.092C0.298,0.122 0.285,0.146 0.271,0.164C0.257,0.183 0.241,0.196 0.223,0.205C0.205,0.214 0.184,0.218 0.159,0.218Z" style="fill-rule:nonzero;"/>
            </g>
            <g transform="matrix(37.5,0,0,37.5,292.5,781.011)">
                <path d="M0.294,0.015C0.255,0.015 0.217,0.011 0.181,0.003C0.144,-0.005 0.113,-0.016 0.086,-0.031L0.086,-0.101C0.116,-0.088 0.149,-0.077 0.186,-0.07C0.223,-0.063 0.259,-0.059 0.295,-0.059C0.337,-0.059 0.37,-0.066 0.393,-0.079C0.416,-0.092 0.427,-0.111 0.427,-0.135C0.427,-0.154 0.42,-0.169 0.406,-0.18C0.391,-0.191 0.366,-0.2 0.331,-0.209L0.243,-0.23C0.191,-0.242 0.153,-0.26 0.128,-0.283C0.102,-0.307 0.09,-0.338 0.09,-0.376C0.09,-0.422 0.108,-0.458 0.145,-0.483C0.182,-0.508 0.233,-0.521 0.298,-0.521C0.331,-0.521 0.366,-0.517 0.402,-0.509C0.437,-0.502 0.466,-0.493 0.488,-0.482L0.488,-0.414C0.46,-0.424 0.429,-0.432 0.394,-0.438C0.359,-0.444 0.327,-0.447 0.298,-0.447C0.259,-0.447 0.229,-0.441 0.207,-0.429C0.187,-0.417 0.176,-0.4 0.176,-0.378C0.176,-0.36 0.183,-0.346 0.197,-0.335C0.211,-0.324 0.237,-0.315 0.274,-0.306L0.363,-0.285C0.416,-0.272 0.455,-0.254 0.479,-0.231C0.503,-0.208 0.515,-0.177 0.515,-0.138C0.515,-0.091 0.495,-0.054 0.456,-0.027C0.416,0.001 0.362,0.015 0.294,0.015Z" style="fill-rule:nonzero;"/>
            </g>
            <g transform="matrix(37.5,0,0,37.5,315,781.011)">
                <path d="M0.343,0.01C0.286,0.01 0.245,-0.003 0.22,-0.028C0.195,-0.053 0.182,-0.095 0.182,-0.152L0.182,-0.436L0.056,-0.436L0.056,-0.497L0.184,-0.506L0.198,-0.664L0.271,-0.664L0.271,-0.507L0.503,-0.507L0.503,-0.436L0.271,-0.436L0.271,-0.161C0.271,-0.125 0.278,-0.1 0.292,-0.085C0.305,-0.07 0.329,-0.063 0.363,-0.063C0.386,-0.063 0.41,-0.065 0.436,-0.07C0.462,-0.074 0.486,-0.08 0.508,-0.087L0.508,-0.022C0.489,-0.013 0.465,-0.005 0.435,0.001C0.404,0.007 0.374,0.01 0.343,0.01Z" style="fill-rule:nonzero;"/>
            </g>
            <g transform="matrix(37.5,0,0,37.5,337.5,781.011)">
                <path d="M0.327,0.015C0.243,0.015 0.179,-0.008 0.136,-0.054C0.092,-0.099 0.07,-0.166 0.07,-0.254C0.07,-0.338 0.091,-0.404 0.134,-0.451C0.177,-0.498 0.236,-0.521 0.312,-0.521C0.377,-0.521 0.428,-0.503 0.465,-0.468C0.501,-0.432 0.519,-0.382 0.519,-0.317C0.519,-0.286 0.517,-0.259 0.512,-0.234L0.156,-0.234C0.159,-0.173 0.175,-0.128 0.204,-0.1C0.234,-0.072 0.278,-0.058 0.338,-0.058C0.399,-0.058 0.456,-0.068 0.509,-0.089L0.509,-0.024C0.486,-0.012 0.459,-0.003 0.427,0.004C0.395,0.011 0.362,0.015 0.327,0.015ZM0.438,-0.296C0.439,-0.303 0.439,-0.313 0.439,-0.324C0.439,-0.365 0.428,-0.397 0.406,-0.419C0.384,-0.441 0.352,-0.452 0.31,-0.452C0.264,-0.452 0.228,-0.439 0.202,-0.412C0.176,-0.386 0.161,-0.347 0.156,-0.296L0.438,-0.296Z" style="fill-rule:nonzero;"/>
            </g>
            <g transform="matrix(37.5,0,0,37.5,360,781.011)">
                <path d="M0.096,-0.507L0.169,-0.507L0.179,-0.456C0.212,-0.479 0.243,-0.495 0.272,-0.506C0.301,-0.517 0.33,-0.522 0.361,-0.522C0.39,-0.522 0.414,-0.516 0.433,-0.505C0.452,-0.494 0.466,-0.476 0.477,-0.452C0.544,-0.499 0.61,-0.522 0.675,-0.522C0.718,-0.522 0.75,-0.51 0.772,-0.486C0.793,-0.461 0.803,-0.423 0.803,-0.372L0.803,-0L0.714,-0L0.714,-0.344C0.714,-0.379 0.708,-0.404 0.697,-0.419C0.686,-0.434 0.667,-0.442 0.64,-0.442C0.591,-0.442 0.542,-0.427 0.493,-0.397C0.494,-0.392 0.494,-0.387 0.494,-0.382L0.494,-0L0.405,-0L0.405,-0.344C0.405,-0.377 0.399,-0.402 0.386,-0.418C0.373,-0.434 0.353,-0.442 0.326,-0.442C0.279,-0.442 0.232,-0.427 0.185,-0.398L0.185,-0L0.096,-0L0.096,-0.507Z" style="fill-rule:nonzero;"/>
            </g>
            <g transform="matrix(37.5,0,0,37.5,247.5,818.511)">
                <path d="M0.3,0.014C0.276,0.014 0.257,0.007 0.242,-0.008C0.227,-0.023 0.22,-0.042 0.22,-0.066C0.22,-0.089 0.228,-0.108 0.243,-0.123C0.258,-0.138 0.277,-0.145 0.3,-0.145C0.323,-0.145 0.343,-0.138 0.358,-0.123C0.373,-0.108 0.38,-0.089 0.38,-0.066C0.38,-0.042 0.373,-0.023 0.358,-0.008C0.343,0.007 0.324,0.014 0.3,0.014Z" style="fill-rule:nonzero;"/>
            </g>
            <g transform="matrix(37.5,0,0,37.5,270,818.511)">
                <path d="M0.327,0.015C0.243,0.015 0.179,-0.008 0.136,-0.054C0.092,-0.099 0.07,-0.166 0.07,-0.254C0.07,-0.338 0.091,-0.404 0.134,-0.451C0.177,-0.498 0.236,-0.521 0.312,-0.521C0.377,-0.521 0.428,-0.503 0.465,-0.468C0.501,-0.432 0.519,-0.382 0.519,-0.317C0.519,-0.286 0.517,-0.259 0.512,-0.234L0.156,-0.234C0.159,-0.173 0.175,-0.128 0.204,-0.1C0.234,-0.072 0.278,-0.058 0.338,-0.058C0.399,-0.058 0.456,-0.068 0.509,-0.089L0.509,-0.024C0.486,-0.012 0.459,-0.003 0.427,0.004C0.395,0.011 0.362,0.015 0.327,0.015ZM0.438,-0.296C0.439,-0.303 0.439,-0.313 0.439,-0.324C0.439,-0.365 0.428,-0.397 0.406,-0.419C0.384,-0.441 0.352,-0.452 0.31,-0.452C0.264,-0.452 0.228,-0.439 0.202,-0.412C0.176,-0.386 0.161,-0.347 0.156,-0.296L0.438,-0.296Z" style="fill-rule:nonzero;"/>
            </g>
            <g transform="matrix(37.5,0,0,37.5,292.5,818.511)">
                <path d="M0.252,-0.261L0.083,-0.507L0.18,-0.507L0.302,-0.322L0.424,-0.507L0.518,-0.507L0.349,-0.264L0.53,-0L0.432,-0L0.297,-0.202L0.165,-0L0.07,-0L0.252,-0.261Z" style="fill-rule:nonzero;"/>
            </g>
            <g transform="matrix(37.5,0,0,37.5,315,818.511)">
                <path d="M0.077,-0.071L0.264,-0.071L0.264,-0.436L0.111,-0.436L0.111,-0.507L0.353,-0.507L0.353,-0.071L0.529,-0.071L0.529,-0L0.077,-0L0.077,-0.071ZM0.292,-0.596C0.273,-0.596 0.257,-0.602 0.245,-0.614C0.233,-0.625 0.227,-0.641 0.227,-0.66C0.227,-0.68 0.233,-0.696 0.245,-0.708C0.257,-0.719 0.273,-0.725 0.292,-0.725C0.312,-0.725 0.328,-0.719 0.34,-0.708C0.352,-0.696 0.358,-0.68 0.358,-0.66C0.358,-0.641 0.352,-0.625 0.34,-0.614C0.328,-0.602 0.312,-0.596 0.292,-0.596Z" style="fill-rule:nonzero;"/>
            </g>
            <g transform="matrix(37.5,0,0,37.5,337.5,818.511)">
                <path d="M0.343,0.01C0.286,0.01 0.245,-0.003 0.22,-0.028C0.195,-0.053 0.182,-0.095 0.182,-0.152L0.182,-0.436L0.056,-0.436L0.056,-0.497L0.184,-0.506L0.198,-0.664L0.271,-0.664L0.271,-0.507L0.503,-0.507L0.503,-0.436L0.271,-0.436L0.271,-0.161C0.271,-0.125 0.278,-0.1 0.292,-0.085C0.305,-0.07 0.329,-0.063 0.363,-0.063C0.386,-0.063 0.41,-0.065 0.436,-0.07C0.462,-0.074 0.486,-0.08 0.508,-0.087L0.508,-0.022C0.489,-0.013 0.465,-0.005 0.435,0.001C0.404,0.007 0.374,0.01 0.343,0.01Z" style="fill-rule:nonzero;"/>
            </g>
            <g transform="matrix(37.5,0,0,37.5,360,818.511)">
                <path d="M0.352,0.144C0.285,0.093 0.233,0.028 0.195,-0.052C0.157,-0.132 0.138,-0.216 0.138,-0.305C0.138,-0.394 0.157,-0.478 0.195,-0.558C0.233,-0.638 0.285,-0.703 0.352,-0.754L0.452,-0.754C0.383,-0.699 0.329,-0.632 0.29,-0.553C0.251,-0.474 0.232,-0.391 0.232,-0.305C0.232,-0.219 0.251,-0.136 0.29,-0.057C0.329,0.022 0.383,0.089 0.452,0.144L0.352,0.144Z" style="fill-rule:nonzero;"/>
            </g>
            <g transform="matrix(37.5,0,0,37.5,382.5,818.511)">
                <path d="M0.148,0.144C0.217,0.089 0.271,0.022 0.31,-0.057C0.349,-0.136 0.368,-0.219 0.368,-0.305C0.368,-0.391 0.349,-0.474 0.31,-0.553C0.271,-0.632 0.217,-0.699 0.148,-0.754L0.248,-0.754C0.315,-0.703 0.367,-0.638 0.405,-0.558C0.443,-0.478 0.462,-0.394 0.462,-0.305C0.462,-0.216 0.443,-0.132 0.405,-0.052C0.367,0.028 0.315,0.093 0.248,0.144L0.148,0.144Z" style="fill-rule:nonzero;"/>
            </g>
        </g>
        <g transform="matrix(1,-5.76984e-18,-6.00063e-18,1,402.5,-295.261)">
            <g transform="matrix(37.5,0,0,37.5,248.125,781.011)">
                <path d="M0.101,-0.693L0.52,-0.693L0.52,-0.618L0.193,-0.618L0.193,-0.395L0.463,-0.395L0.463,-0.32L0.193,-0.32L0.193,-0.075L0.52,-0.075L0.52,-0L0.101,-0L0.101,-0.693Z" style="fill-rule:nonzero;"/>
            </g>
            <g transform="matrix(37.5,0,0,37.5,270.625,781.011)">
                <path d="M0.085,-0.507L0.16,-0.507L0.169,-0.449C0.234,-0.497 0.302,-0.521 0.372,-0.521C0.42,-0.521 0.457,-0.508 0.483,-0.482C0.508,-0.455 0.521,-0.418 0.521,-0.369L0.521,-0L0.432,-0L0.432,-0.338C0.432,-0.376 0.425,-0.404 0.409,-0.422C0.395,-0.44 0.371,-0.449 0.338,-0.449C0.285,-0.449 0.23,-0.431 0.174,-0.394L0.174,-0L0.085,-0L0.085,-0.507Z" style="fill-rule:nonzero;"/>
            </g>
            <g transform="matrix(37.5,0,0,37.5,293.125,781.011)">
                <path d="M0.272,0.015C0.205,0.015 0.153,-0.009 0.115,-0.056C0.077,-0.102 0.058,-0.167 0.058,-0.25C0.058,-0.333 0.078,-0.399 0.117,-0.448C0.156,-0.497 0.208,-0.521 0.274,-0.521C0.303,-0.521 0.329,-0.516 0.354,-0.507C0.378,-0.498 0.402,-0.483 0.425,-0.462L0.425,-0.74L0.514,-0.74L0.514,-0L0.435,-0L0.427,-0.048C0.405,-0.028 0.381,-0.013 0.354,-0.002C0.327,0.009 0.3,0.015 0.272,0.015ZM0.298,-0.058C0.337,-0.058 0.38,-0.075 0.425,-0.108L0.425,-0.398C0.402,-0.416 0.381,-0.429 0.36,-0.437C0.339,-0.444 0.317,-0.448 0.292,-0.448C0.245,-0.448 0.209,-0.432 0.185,-0.399C0.161,-0.366 0.149,-0.318 0.149,-0.254C0.149,-0.191 0.162,-0.142 0.188,-0.109C0.213,-0.075 0.25,-0.058 0.298,-0.058Z" style="fill-rule:nonzero;"/>
            </g>
            <g transform="matrix(37.5,0,0,37.5,338.125,781.011)">
                <path d="M0.097,-0.693L0.335,-0.693C0.402,-0.693 0.455,-0.674 0.494,-0.636C0.533,-0.598 0.553,-0.547 0.553,-0.482C0.553,-0.439 0.544,-0.401 0.526,-0.369C0.507,-0.337 0.482,-0.313 0.449,-0.296C0.416,-0.279 0.378,-0.271 0.335,-0.271L0.186,-0.271L0.186,-0L0.097,-0L0.097,-0.693ZM0.328,-0.346C0.371,-0.346 0.404,-0.358 0.427,-0.381C0.449,-0.404 0.46,-0.437 0.46,-0.482C0.46,-0.527 0.449,-0.562 0.427,-0.585C0.404,-0.608 0.371,-0.619 0.328,-0.619L0.186,-0.619L0.186,-0.346L0.328,-0.346Z" style="fill-rule:nonzero;"/>
            </g>
            <g transform="matrix(37.5,0,0,37.5,360.625,781.011)">
                <path d="M0.081,-0L0.081,-0.071L0.208,-0.071L0.208,-0.436L0.082,-0.436L0.082,-0.507L0.283,-0.507L0.294,-0.433C0.318,-0.461 0.343,-0.481 0.369,-0.493C0.395,-0.505 0.425,-0.511 0.46,-0.511C0.473,-0.511 0.486,-0.51 0.5,-0.508C0.514,-0.506 0.525,-0.503 0.533,-0.5L0.533,-0.42C0.51,-0.427 0.483,-0.43 0.452,-0.43C0.417,-0.43 0.388,-0.426 0.365,-0.417C0.341,-0.407 0.318,-0.393 0.297,-0.373L0.297,-0.071L0.463,-0.071L0.463,-0L0.081,-0Z" style="fill-rule:nonzero;"/>
            </g>
            <g transform="matrix(37.5,0,0,37.5,383.125,781.011)">
                <path d="M0.3,0.015C0.223,0.015 0.164,-0.009 0.121,-0.056C0.078,-0.103 0.057,-0.169 0.057,-0.253C0.057,-0.337 0.078,-0.403 0.121,-0.45C0.164,-0.497 0.223,-0.521 0.3,-0.521C0.377,-0.521 0.436,-0.497 0.479,-0.45C0.522,-0.403 0.543,-0.337 0.543,-0.253C0.543,-0.169 0.522,-0.103 0.479,-0.056C0.436,-0.009 0.377,0.015 0.3,0.015ZM0.3,-0.058C0.35,-0.058 0.388,-0.074 0.413,-0.107C0.439,-0.14 0.452,-0.188 0.452,-0.253C0.452,-0.383 0.401,-0.448 0.3,-0.448C0.199,-0.448 0.148,-0.383 0.148,-0.253C0.148,-0.188 0.161,-0.14 0.187,-0.107C0.212,-0.074 0.25,-0.058 0.3,-0.058Z" style="fill-rule:nonzero;"/>
            </g>
            <g transform="matrix(37.5,0,0,37.5,405.625,781.011)">
                <path d="M0.271,0.218C0.208,0.218 0.151,0.205 0.1,0.178L0.1,0.113C0.16,0.134 0.215,0.145 0.264,0.145C0.32,0.145 0.361,0.131 0.387,0.104C0.412,0.077 0.425,0.035 0.425,-0.024L0.425,-0.07C0.403,-0.051 0.378,-0.035 0.351,-0.025C0.324,-0.014 0.296,-0.008 0.269,-0.008C0.204,-0.008 0.153,-0.031 0.116,-0.076C0.078,-0.121 0.059,-0.183 0.059,-0.26C0.059,-0.34 0.078,-0.404 0.117,-0.451C0.155,-0.498 0.206,-0.521 0.271,-0.521C0.331,-0.521 0.384,-0.5 0.43,-0.457L0.438,-0.507L0.513,-0.507L0.513,-0.029C0.513,0.05 0.492,0.111 0.45,0.154C0.408,0.197 0.348,0.218 0.271,0.218ZM0.293,-0.081C0.336,-0.081 0.38,-0.098 0.425,-0.131L0.425,-0.399C0.402,-0.416 0.38,-0.429 0.358,-0.437C0.336,-0.445 0.313,-0.449 0.288,-0.449C0.242,-0.449 0.207,-0.433 0.185,-0.402C0.162,-0.371 0.15,-0.325 0.15,-0.264C0.15,-0.205 0.162,-0.159 0.187,-0.128C0.212,-0.097 0.247,-0.081 0.293,-0.081Z" style="fill-rule:nonzero;"/>
            </g>
            <g transform="matrix(37.5,0,0,37.5,428.125,781.011)">
                <path d="M0.081,-0L0.081,-0.071L0.208,-0.071L0.208,-0.436L0.082,-0.436L0.082,-0.507L0.283,-0.507L0.294,-0.433C0.318,-0.461 0.343,-0.481 0.369,-0.493C0.395,-0.505 0.425,-0.511 0.46,-0.511C0.473,-0.511 0.486,-0.51 0.5,-0.508C0.514,-0.506 0.525,-0.503 0.533,-0.5L0.533,-0.42C0.51,-0.427 0.483,-0.43 0.452,-0.43C0.417,-0.43 0.388,-0.426 0.365,-0.417C0.341,-0.407 0.318,-0.393 0.297,-0.373L0.297,-0.071L0.463,-0.071L0.463,-0L0.081,-0Z" style="fill-rule:nonzero;"/>
            </g>
            <g transform="matrix(37.5,0,0,37.5,450.625,781.011)">
                <path d="M0.241,0.013C0.193,0.013 0.155,-0.001 0.126,-0.028C0.097,-0.055 0.083,-0.09 0.083,-0.135C0.083,-0.184 0.101,-0.223 0.136,-0.252C0.171,-0.281 0.218,-0.295 0.277,-0.295C0.316,-0.295 0.361,-0.288 0.412,-0.275L0.412,-0.348C0.412,-0.385 0.403,-0.41 0.386,-0.426C0.369,-0.441 0.338,-0.448 0.295,-0.448C0.24,-0.448 0.18,-0.438 0.117,-0.417L0.117,-0.483C0.14,-0.494 0.17,-0.503 0.206,-0.51C0.242,-0.518 0.277,-0.521 0.31,-0.521C0.373,-0.521 0.42,-0.508 0.451,-0.483C0.482,-0.457 0.497,-0.417 0.497,-0.364L0.497,-0L0.423,-0L0.415,-0.053C0.388,-0.032 0.36,-0.015 0.33,-0.004C0.3,0.007 0.27,0.013 0.241,0.013ZM0.261,-0.056C0.307,-0.056 0.357,-0.073 0.412,-0.108L0.412,-0.22C0.371,-0.229 0.332,-0.234 0.295,-0.234C0.212,-0.234 0.171,-0.202 0.171,-0.139C0.171,-0.112 0.179,-0.092 0.195,-0.078C0.21,-0.063 0.232,-0.056 0.261,-0.056Z" style="fill-rule:nonzero;"/>
            </g>
            <g transform="matrix(37.5,0,0,37.5,473.125,781.011)">
                <path d="M0.096,-0.507L0.169,-0.507L0.179,-0.456C0.212,-0.479 0.243,-0.495 0.272,-0.506C0.301,-0.517 0.33,-0.522 0.361,-0.522C0.39,-0.522 0.414,-0.516 0.433,-0.505C0.452,-0.494 0.466,-0.476 0.477,-0.452C0.544,-0.499 0.61,-0.522 0.675,-0.522C0.718,-0.522 0.75,-0.51 0.772,-0.486C0.793,-0.461 0.803,-0.423 0.803,-0.372L0.803,-0L0.714,-0L0.714,-0.344C0.714,-0.379 0.708,-0.404 0.697,-0.419C0.686,-0.434 0.667,-0.442 0.64,-0.442C0.591,-0.442 0.542,-0.427 0.493,-0.397C0.494,-0.392 0.494,-0.387 0.494,-0.382L0.494,-0L0.405,-0L0.405,-0.344C0.405,-0.377 0.399,-0.402 0.386,-0.418C0.373,-0.434 0.353,-0.442 0.326,-0.442C0.279,-0.442 0.232,-0.427 0.185,-0.398L0.185,-0L0.096,-0L0.096,-0.507Z" style="fill-rule:nonzero;"/>
            </g>
        </g>
    </g>
    <g id="Catch">
        <g transform="matrix(1.38,0,0,1.23214,-280,158.929)">
            <rect x="347.826" y="134.783" width="289.855" height="81.159" style="fill:rgb(231,232,233);stroke:rgb(35,31,32);stroke-width:3.19px;"/>
        </g>
        <g transform="matrix(1.0001,0.00182301,0.00218762,0.872225,-106.248,201.719)">
            <g transform="matrix(0.999902,-0.00208987,-0.00250784,1.1465,106.744,-231.492)">
                <path d="M418.75,512.5L400,550L381.25,512.5L400,531.25L418.75,512.5Z" style="fill:rgb(35,31,32);"/>
                <path d="M400,425L400,531.25" style="fill:none;stroke:rgb(35,31,32);stroke-width:4.17px;"/>
            </g>
        </g>
        <g transform="matrix(1,-5.00053e-18,-6.92381e-18,1,2.50001,-378.261)">
            <g transform="matrix(33.3333,0,0,33.3333,247.5,781.011)">
                <path d="M0.352,0.144C0.285,0.093 0.233,0.028 0.195,-0.052C0.157,-0.132 0.138,-0.216 0.138,-0.305C0.138,-0.394 0.157,-0.478 0.195,-0.558C0.233,-0.638 0.285,-0.703 0.352,-0.754L0.452,-0.754C0.383,-0.699 0.329,-0.632 0.29,-0.553C0.251,-0.474 0.232,-0.391 0.232,-0.305C0.232,-0.219 0.251,-0.136 0.29,-0.057C0.329,0.022 0.383,0.089 0.452,0.144L0.352,0.144Z" style="fill-rule:nonzero;"/>
            </g>
            <g transform="matrix(33.3333,0,0,33.3333,267.5,781.011)">
                <path d="M0.101,-0.693L0.52,-0.693L0.52,-0.618L0.193,-0.618L0.193,-0.395L0.463,-0.395L0.463,-0.32L0.193,-0.32L0.193,-0.075L0.52,-0.075L0.52,-0L0.101,-0L0.101,-0.693Z" style="fill-rule:nonzero;"/>
            </g>
            <g transform="matrix(33.3333,0,0,33.3333,287.5,781.011)">
                <path d="M0.252,-0.261L0.083,-0.507L0.18,-0.507L0.302,-0.322L0.424,-0.507L0.518,-0.507L0.349,-0.264L0.53,-0L0.432,-0L0.297,-0.202L0.165,-0L0.07,-0L0.252,-0.261Z" style="fill-rule:nonzero;"/>
            </g>
            <g transform="matrix(33.3333,0,0,33.3333,307.5,781.011)">
                <path d="M0.348,0.011C0.171,0.011 0.083,-0.076 0.083,-0.25C0.083,-0.336 0.106,-0.402 0.151,-0.448C0.196,-0.494 0.262,-0.517 0.347,-0.517C0.377,-0.517 0.407,-0.513 0.437,-0.506C0.466,-0.499 0.49,-0.489 0.509,-0.477L0.509,-0.411C0.458,-0.433 0.407,-0.444 0.356,-0.444C0.294,-0.444 0.248,-0.429 0.219,-0.399C0.189,-0.368 0.174,-0.321 0.174,-0.258L0.174,-0.248C0.174,-0.183 0.189,-0.136 0.22,-0.107C0.25,-0.077 0.298,-0.062 0.364,-0.062C0.414,-0.062 0.464,-0.074 0.514,-0.098L0.514,-0.031C0.492,-0.018 0.467,-0.007 0.438,-0C0.409,0.007 0.379,0.011 0.348,0.011Z" style="fill-rule:nonzero;"/>
            </g>
            <g transform="matrix(33.3333,0,0,33.3333,327.5,781.011)">
                <path d="M0.327,0.015C0.243,0.015 0.179,-0.008 0.136,-0.054C0.092,-0.099 0.07,-0.166 0.07,-0.254C0.07,-0.338 0.091,-0.404 0.134,-0.451C0.177,-0.498 0.236,-0.521 0.312,-0.521C0.377,-0.521 0.428,-0.503 0.465,-0.468C0.501,-0.432 0.519,-0.382 0.519,-0.317C0.519,-0.286 0.517,-0.259 0.512,-0.234L0.156,-0.234C0.159,-0.173 0.175,-0.128 0.204,-0.1C0.234,-0.072 0.278,-0.058 0.338,-0.058C0.399,-0.058 0.456,-0.068 0.509,-0.089L0.509,-0.024C0.486,-0.012 0.459,-0.003 0.427,0.004C0.395,0.011 0.362,0.015 0.327,0.015ZM0.438,-0.296C0.439,-0.303 0.439,-0.313 0.439,-0.324C0.439,-0.365 0.428,-0.397 0.406,-0.419C0.384,-0.441 0.352,-0.452 0.31,-0.452C0.264,-0.452 0.228,-0.439 0.202,-0.412C0.176,-0.386 0.161,-0.347 0.156,-0.296L0.438,-0.296Z" style="fill-rule:nonzero;"/>
            </g>
            <g transform="matrix(33.3333,0,0,33.3333,347.5,781.011)">
                <path d="M0.086,-0.507L0.161,-0.507L0.169,-0.454C0.22,-0.499 0.274,-0.521 0.331,-0.521C0.396,-0.521 0.448,-0.498 0.486,-0.452C0.523,-0.405 0.542,-0.341 0.542,-0.26C0.542,-0.205 0.533,-0.156 0.515,-0.114C0.496,-0.072 0.471,-0.04 0.438,-0.018C0.405,0.004 0.368,0.015 0.325,0.015C0.27,0.015 0.22,-0.002 0.175,-0.035L0.175,0.206L0.086,0.206L0.086,-0.507ZM0.307,-0.058C0.354,-0.058 0.39,-0.075 0.414,-0.108C0.439,-0.141 0.451,-0.19 0.451,-0.255C0.451,-0.318 0.439,-0.366 0.416,-0.399C0.392,-0.432 0.357,-0.448 0.31,-0.448C0.264,-0.448 0.219,-0.431 0.175,-0.397L0.175,-0.101C0.216,-0.072 0.26,-0.058 0.307,-0.058Z" style="fill-rule:nonzero;"/>
            </g>
            <g transform="matrix(33.3333,0,0,33.3333,367.5,781.011)">
                <path d="M0.343,0.01C0.286,0.01 0.245,-0.003 0.22,-0.028C0.195,-0.053 0.182,-0.095 0.182,-0.152L0.182,-0.436L0.056,-0.436L0.056,-0.497L0.184,-0.506L0.198,-0.664L0.271,-0.664L0.271,-0.507L0.503,-0.507L0.503,-0.436L0.271,-0.436L0.271,-0.161C0.271,-0.125 0.278,-0.1 0.292,-0.085C0.305,-0.07 0.329,-0.063 0.363,-0.063C0.386,-0.063 0.41,-0.065 0.436,-0.07C0.462,-0.074 0.486,-0.08 0.508,-0.087L0.508,-0.022C0.489,-0.013 0.465,-0.005 0.435,0.001C0.404,0.007 0.374,0.01 0.343,0.01Z" style="fill-rule:nonzero;"/>
            </g>
            <g transform="matrix(33.3333,0,0,33.3333,387.5,781.011)">
                <path d="M0.077,-0.071L0.264,-0.071L0.264,-0.436L0.111,-0.436L0.111,-0.507L0.353,-0.507L0.353,-0.071L0.529,-0.071L0.529,-0L0.077,-0L0.077,-0.071ZM0.292,-0.596C0.273,-0.596 0.257,-0.602 0.245,-0.614C0.233,-0.625 0.227,-0.641 0.227,-0.66C0.227,-0.68 0.233,-0.696 0.245,-0.708C0.257,-0.719 0.273,-0.725 0.292,-0.725C0.312,-0.725 0.328,-0.719 0.34,-0.708C0.352,-0.696 0.358,-0.68 0.358,-0.66C0.358,-0.641 0.352,-0.625 0.34,-0.614C0.328,-0.602 0.312,-0.596 0.292,-0.596Z" style="fill-rule:nonzero;"/>
            </g>
            <g transform="matrix(33.3333,0,0,33.3333,407.5,781.011)">
                <path d="M0.3,0.015C0.223,0.015 0.164,-0.009 0.121,-0.056C0.078,-0.103 0.057,-0.169 0.057,-0.253C0.057,-0.337 0.078,-0.403 0.121,-0.45C0.164,-0.497 0.223,-0.521 0.3,-0.521C0.377,-0.521 0.436,-0.497 0.479,-0.45C0.522,-0.403 0.543,-0.337 0.543,-0.253C0.543,-0.169 0.522,-0.103 0.479,-0.056C0.436,-0.009 0.377,0.015 0.3,0.015ZM0.3,-0.058C0.35,-0.058 0.388,-0.074 0.413,-0.107C0.439,-0.14 0.452,-0.188 0.452,-0.253C0.452,-0.383 0.401,-0.448 0.3,-0.448C0.199,-0.448 0.148,-0.383 0.148,-0.253C0.148,-0.188 0.161,-0.14 0.187,-0.107C0.212,-0.074 0.25,-0.058 0.3,-0.058Z" style="fill-rule:nonzero;"/>
            </g>
            <g transform="matrix(33.3333,0,0,33.3333,427.5,781.011)">
                <path d="M0.085,-0.507L0.16,-0.507L0.169,-0.449C0.234,-0.497 0.302,-0.521 0.372,-0.521C0.42,-0.521 0.457,-0.508 0.483,-0.482C0.508,-0.455 0.521,-0.418 0.521,-0.369L0.521,-0L0.432,-0L0.432,-0.338C0.432,-0.376 0.425,-0.404 0.409,-0.422C0.395,-0.44 0.371,-0.449 0.338,-0.449C0.285,-0.449 0.23,-0.431 0.174,-0.394L0.174,-0L0.085,-0L0.085,-0.507Z" style="fill-rule:nonzero;"/>
            </g>
            <g transform="matrix(33.3333,0,0,33.3333,467.5,781.011)">
                <path d="M0.327,0.015C0.243,0.015 0.179,-0.008 0.136,-0.054C0.092,-0.099 0.07,-0.166 0.07,-0.254C0.07,-0.338 0.091,-0.404 0.134,-0.451C0.177,-0.498 0.236,-0.521 0.312,-0.521C0.377,-0.521 0.428,-0.503 0.465,-0.468C0.501,-0.432 0.519,-0.382 0.519,-0.317C0.519,-0.286 0.517,-0.259 0.512,-0.234L0.156,-0.234C0.159,-0.173 0.175,-0.128 0.204,-0.1C0.234,-0.072 0.278,-0.058 0.338,-0.058C0.399,-0.058 0.456,-0.068 0.509,-0.089L0.509,-0.024C0.486,-0.012 0.459,-0.003 0.427,0.004C0.395,0.011 0.362,0.015 0.327,0.015ZM0.438,-0.296C0.439,-0.303 0.439,-0.313 0.439,-0.324C0.439,-0.365 0.428,-0.397 0.406,-0.419C0.384,-0.441 0.352,-0.452 0.31,-0.452C0.264,-0.452 0.228,-0.439 0.202,-0.412C0.176,-0.386 0.161,-0.347 0.156,-0.296L0.438,-0.296Z" style="fill-rule:nonzero;"/>
            </g>
            <g transform="matrix(33.3333,0,0,33.3333,487.5,781.011)">
                <path d="M0.148,0.144C0.217,0.089 0.271,0.022 0.31,-0.057C0.349,-0.136 0.368,-0.219 0.368,-0.305C0.368,-0.391 0.349,-0.474 0.31,-0.553C0.271,-0.632 0.217,-0.699 0.148,-0.754L0.248,-0.754C0.315,-0.703 0.367,-0.638 0.405,-0.558C0.443,-0.478 0.462,-0.394 0.462,-0.305C0.462,-0.216 0.443,-0.132 0.405,-0.052C0.367,0.028 0.315,0.093 0.248,0.144L0.148,0.144Z" style="fill-rule:nonzero;"/>
            </g>
            <g transform="matrix(33.3333,0,0,33.3333,507.5,781.011)">
                <path d="M0.408,0.152C0.346,0.152 0.3,0.138 0.271,0.11C0.242,0.082 0.227,0.039 0.227,-0.02L0.227,-0.174C0.227,-0.207 0.221,-0.231 0.209,-0.246C0.197,-0.26 0.176,-0.267 0.145,-0.267L0.108,-0.267L0.108,-0.343L0.145,-0.343C0.176,-0.343 0.197,-0.35 0.209,-0.365C0.221,-0.379 0.227,-0.403 0.227,-0.436L0.227,-0.59C0.227,-0.649 0.242,-0.692 0.271,-0.72C0.3,-0.748 0.346,-0.762 0.408,-0.762C0.427,-0.762 0.447,-0.76 0.469,-0.755C0.49,-0.751 0.506,-0.746 0.517,-0.74L0.517,-0.673C0.48,-0.684 0.446,-0.689 0.416,-0.689C0.381,-0.689 0.357,-0.682 0.342,-0.667C0.327,-0.652 0.319,-0.627 0.319,-0.594L0.319,-0.439C0.319,-0.403 0.313,-0.374 0.301,-0.351C0.288,-0.329 0.27,-0.313 0.246,-0.306C0.295,-0.288 0.319,-0.243 0.319,-0.171L0.319,-0.016C0.319,0.017 0.327,0.041 0.342,0.056C0.357,0.071 0.381,0.079 0.416,0.079C0.446,0.079 0.48,0.074 0.517,0.063L0.517,0.13C0.506,0.136 0.49,0.141 0.469,0.145C0.447,0.15 0.427,0.152 0.408,0.152Z" style="fill-rule:nonzero;"/>
            </g>
        </g>
        <g transform="matrix(1,-6.00063e-18,-5.76984e-18,1,2.50001,-413.261)">
            <g transform="matrix(33.3333,0,0,33.3333,247.5,781.011)">
                <path d="M0.192,0.152C0.173,0.152 0.153,0.15 0.132,0.145C0.11,0.141 0.094,0.136 0.083,0.13L0.083,0.063C0.12,0.074 0.154,0.079 0.184,0.079C0.219,0.079 0.244,0.071 0.259,0.056C0.274,0.041 0.281,0.017 0.281,-0.016L0.281,-0.171C0.281,-0.244 0.305,-0.289 0.353,-0.306C0.305,-0.321 0.281,-0.366 0.281,-0.439L0.281,-0.594C0.281,-0.627 0.274,-0.652 0.259,-0.667C0.244,-0.682 0.219,-0.689 0.184,-0.689C0.154,-0.689 0.12,-0.684 0.083,-0.673L0.083,-0.74C0.094,-0.746 0.11,-0.751 0.132,-0.755C0.153,-0.76 0.173,-0.762 0.192,-0.762C0.254,-0.762 0.3,-0.748 0.329,-0.72C0.358,-0.692 0.373,-0.649 0.373,-0.59L0.373,-0.436C0.373,-0.403 0.379,-0.379 0.391,-0.365C0.403,-0.35 0.424,-0.343 0.455,-0.343L0.492,-0.343L0.492,-0.267L0.455,-0.267C0.424,-0.267 0.403,-0.26 0.391,-0.246C0.379,-0.231 0.373,-0.207 0.373,-0.174L0.373,-0.02C0.373,0.039 0.358,0.082 0.329,0.11C0.3,0.138 0.254,0.152 0.192,0.152Z" style="fill-rule:nonzero;"/>
            </g>
            <g transform="matrix(33.3333,0,0,33.3333,287.5,781.011)">
                <path d="M0.348,0.011C0.171,0.011 0.083,-0.076 0.083,-0.25C0.083,-0.336 0.106,-0.402 0.151,-0.448C0.196,-0.494 0.262,-0.517 0.347,-0.517C0.377,-0.517 0.407,-0.513 0.437,-0.506C0.466,-0.499 0.49,-0.489 0.509,-0.477L0.509,-0.411C0.458,-0.433 0.407,-0.444 0.356,-0.444C0.294,-0.444 0.248,-0.429 0.219,-0.399C0.189,-0.368 0.174,-0.321 0.174,-0.258L0.174,-0.248C0.174,-0.183 0.189,-0.136 0.22,-0.107C0.25,-0.077 0.298,-0.062 0.364,-0.062C0.414,-0.062 0.464,-0.074 0.514,-0.098L0.514,-0.031C0.492,-0.018 0.467,-0.007 0.438,-0C0.409,0.007 0.379,0.011 0.348,0.011Z" style="fill-rule:nonzero;"/>
            </g>
            <g transform="matrix(33.3333,0,0,33.3333,307.5,781.011)">
                <path d="M0.241,0.013C0.193,0.013 0.155,-0.001 0.126,-0.028C0.097,-0.055 0.083,-0.09 0.083,-0.135C0.083,-0.184 0.101,-0.223 0.136,-0.252C0.171,-0.281 0.218,-0.295 0.277,-0.295C0.316,-0.295 0.361,-0.288 0.412,-0.275L0.412,-0.348C0.412,-0.385 0.403,-0.41 0.386,-0.426C0.369,-0.441 0.338,-0.448 0.295,-0.448C0.24,-0.448 0.18,-0.438 0.117,-0.417L0.117,-0.483C0.14,-0.494 0.17,-0.503 0.206,-0.51C0.242,-0.518 0.277,-0.521 0.31,-0.521C0.373,-0.521 0.42,-0.508 0.451,-0.483C0.482,-0.457 0.497,-0.417 0.497,-0.364L0.497,-0L0.423,-0L0.415,-0.053C0.388,-0.032 0.36,-0.015 0.33,-0.004C0.3,0.007 0.27,0.013 0.241,0.013ZM0.261,-0.056C0.307,-0.056 0.357,-0.073 0.412,-0.108L0.412,-0.22C0.371,-0.229 0.332,-0.234 0.295,-0.234C0.212,-0.234 0.171,-0.202 0.171,-0.139C0.171,-0.112 0.179,-0.092 0.195,-0.078C0.21,-0.063 0.232,-0.056 0.261,-0.056Z" style="fill-rule:nonzero;"/>
            </g>
            <g transform="matrix(33.3333,0,0,33.3333,327.5,781.011)">
                <path d="M0.343,0.01C0.286,0.01 0.245,-0.003 0.22,-0.028C0.195,-0.053 0.182,-0.095 0.182,-0.152L0.182,-0.436L0.056,-0.436L0.056,-0.497L0.184,-0.506L0.198,-0.664L0.271,-0.664L0.271,-0.507L0.503,-0.507L0.503,-0.436L0.271,-0.436L0.271,-0.161C0.271,-0.125 0.278,-0.1 0.292,-0.085C0.305,-0.07 0.329,-0.063 0.363,-0.063C0.386,-0.063 0.41,-0.065 0.436,-0.07C0.462,-0.074 0.486,-0.08 0.508,-0.087L0.508,-0.022C0.489,-0.013 0.465,-0.005 0.435,0.001C0.404,0.007 0.374,0.01 0.343,0.01Z" style="fill-rule:nonzero;"/>
            </g>
            <g transform="matrix(33.3333,0,0,33.3333,347.5,781.011)">
                <path d="M0.348,0.011C0.171,0.011 0.083,-0.076 0.083,-0.25C0.083,-0.336 0.106,-0.402 0.151,-0.448C0.196,-0.494 0.262,-0.517 0.347,-0.517C0.377,-0.517 0.407,-0.513 0.437,-0.506C0.466,-0.499 0.49,-0.489 0.509,-0.477L0.509,-0.411C0.458,-0.433 0.407,-0.444 0.356,-0.444C0.294,-0.444 0.248,-0.429 0.219,-0.399C0.189,-0.368 0.174,-0.321 0.174,-0.258L0.174,-0.248C0.174,-0.183 0.189,-0.136 0.22,-0.107C0.25,-0.077 0.298,-0.062 0.364,-0.062C0.414,-0.062 0.464,-0.074 0.514,-0.098L0.514,-0.031C0.492,-0.018 0.467,-0.007 0.438,-0C0.409,0.007 0.379,0.011 0.348,0.011Z" style="fill-rule:nonzero;"/>
            </g>
            <g transform="matrix(33.3333,0,0,33.3333,367.5,781.011)">
                <path d="M0.085,-0.74L0.174,-0.74L0.174,-0.453C0.239,-0.498 0.305,-0.521 0.372,-0.521C0.42,-0.521 0.457,-0.508 0.483,-0.482C0.508,-0.456 0.521,-0.419 0.521,-0.37L0.521,-0L0.432,-0L0.432,-0.339C0.432,-0.377 0.425,-0.405 0.409,-0.422C0.395,-0.439 0.371,-0.447 0.338,-0.447C0.283,-0.447 0.228,-0.429 0.174,-0.394L0.174,-0L0.085,-0L0.085,-0.74Z" style="fill-rule:nonzero;"/>
            </g>
        </g>
    </g>
    <g id="Fail">
        <g transform="matrix(1.0001,0.00182301,0.00218762,0.872225,-106.248,26.7187)">
            <g transform="matrix(0.999902,-0.00208987,-0.00250784,1.1465,106.305,-30.855)">
                <path d="M418.75,287.5L400,325L381.25,287.5L400,306.25L418.75,287.5Z" style="fill:rgb(35,31,32);"/>
                <path d="M400,250L400,306.25" style="fill:none;stroke:rgb(35,31,32);stroke-width:4.17px;"/>
            </g>
        </g>
        <g transform="matrix(1,0,0,1,162.5,-498.261)">
            <g transform="matrix(50,0,0,50,247.5,790.261)">
                <path d="M0.207,-0.436L0.057,-0.436L0.057,-0.497L0.207,-0.506L0.207,-0.558C0.207,-0.626 0.223,-0.676 0.254,-0.707C0.284,-0.738 0.334,-0.754 0.401,-0.754C0.426,-0.754 0.453,-0.751 0.482,-0.746C0.51,-0.741 0.533,-0.734 0.551,-0.726L0.551,-0.659C0.5,-0.674 0.453,-0.681 0.411,-0.681C0.368,-0.681 0.338,-0.673 0.321,-0.656C0.304,-0.639 0.296,-0.607 0.296,-0.561L0.296,-0.507L0.517,-0.507L0.517,-0.436L0.296,-0.436L0.296,-0L0.207,-0L0.207,-0.436Z" style="fill-rule:nonzero;"/>
            </g>
            <g transform="matrix(50,0,0,50,277.5,790.261)">
                <path d="M0.241,0.013C0.193,0.013 0.155,-0.001 0.126,-0.028C0.097,-0.055 0.083,-0.09 0.083,-0.135C0.083,-0.184 0.101,-0.223 0.136,-0.252C0.171,-0.281 0.218,-0.295 0.277,-0.295C0.316,-0.295 0.361,-0.288 0.412,-0.275L0.412,-0.348C0.412,-0.385 0.403,-0.41 0.386,-0.426C0.369,-0.441 0.338,-0.448 0.295,-0.448C0.24,-0.448 0.18,-0.438 0.117,-0.417L0.117,-0.483C0.14,-0.494 0.17,-0.503 0.206,-0.51C0.242,-0.518 0.277,-0.521 0.31,-0.521C0.373,-0.521 0.42,-0.508 0.451,-0.483C0.482,-0.457 0.497,-0.417 0.497,-0.364L0.497,-0L0.423,-0L0.415,-0.053C0.388,-0.032 0.36,-0.015 0.33,-0.004C0.3,0.007 0.27,0.013 0.241,0.013ZM0.261,-0.056C0.307,-0.056 0.357,-0.073 0.412,-0.108L0.412,-0.22C0.371,-0.229 0.332,-0.234 0.295,-0.234C0.212,-0.234 0.171,-0.202 0.171,-0.139C0.171,-0.112 0.179,-0.092 0.195,-0.078C0.21,-0.063 0.232,-0.056 0.261,-0.056Z" style="fill-rule:nonzero;"/>
            </g>
            <g transform="matrix(50,0,0,50,307.5,790.261)">
                <path d="M0.077,-0.071L0.264,-0.071L0.264,-0.436L0.111,-0.436L0.111,-0.507L0.353,-0.507L0.353,-0.071L0.529,-0.071L0.529,-0L0.077,-0L0.077,-0.071ZM0.292,-0.596C0.273,-0.596 0.257,-0.602 0.245,-0.614C0.233,-0.625 0.227,-0.641 0.227,-0.66C0.227,-0.68 0.233,-0.696 0.245,-0.708C0.257,-0.719 0.273,-0.725 0.292,-0.725C0.312,-0.725 0.328,-0.719 0.34,-0.708C0.352,-0.696 0.358,-0.68 0.358,-0.66C0.358,-0.641 0.352,-0.625 0.34,-0.614C0.328,-0.602 0.312,-0.596 0.292,-0.596Z" style="fill-rule:nonzero;"/>
            </g>
            <g transform="matrix(50,0,0,50,337.5,790.261)">
                <path d="M0.069,-0.071L0.256,-0.071L0.256,-0.669L0.094,-0.669L0.094,-0.74L0.345,-0.74L0.345,-0.071L0.521,-0.071L0.521,-0L0.069,-0L0.069,-0.071Z" style="fill-rule:nonzero;"/>
            </g>
        </g>
    </g>
    <g id="Pass">
        <g transform="matrix(1,0,0,5.1462,615.254,-19.3479)">
            <g transform="matrix(1,-0,-0,0.194318,-615.254,3.75964)">
                <path d="M418.75,587.5L400,625L381.25,587.5L400,606.25L418.75,587.5Z"/>
                <path d="M550,165L950,165L950,550L400,550L400,606.25" style="fill:none;stroke:black;stroke-width:4.17px;"/>
            </g>
        </g>
        <g transform="matrix(1,0,0,1,302.5,-643.261)">
            <g transform="matrix(50,0,0,50,247.5,790.261)">
                <path d="M0.086,-0.507L0.161,-0.507L0.169,-0.454C0.22,-0.499 0.274,-0.521 0.331,-0.521C0.396,-0.521 0.448,-0.498 0.486,-0.452C0.523,-0.405 0.542,-0.341 0.542,-0.26C0.542,-0.205 0.533,-0.156 0.515,-0.114C0.496,-0.072 0.471,-0.04 0.438,-0.018C0.405,0.004 0.368,0.015 0.325,0.015C0.27,0.015 0.22,-0.002 0.175,-0.035L0.175,0.206L0.086,0.206L0.086,-0.507ZM0.307,-0.058C0.354,-0.058 0.39,-0.075 0.414,-0.108C0.439,-0.141 0.451,-0.19 0.451,-0.255C0.451,-0.318 0.439,-0.366 0.416,-0.399C0.392,-0.432 0.357,-0.448 0.31,-0.448C0.264,-0.448 0.219,-0.431 0.175,-0.397L0.175,-0.101C0.216,-0.072 0.26,-0.058 0.307,-0.058Z" style="fill-rule:nonzero;"/>
            </g>
            <g transform="matrix(50,0,0,50,277.5,790.261)">
                <path d="M0.241,0.013C0.193,0.013 0.155,-0.001 0.126,-0.028C0.097,-0.055 0.083,-0.09 0.083,-0.135C0.083,-0.184 0.101,-0.223 0.136,-0.252C0.171,-0.281 0.218,-0.295 0.277,-0.295C0.316,-0.295 0.361,-0.288 0.412,-0.275L0.412,-0.348C0.412,-0.385 0.403,-0.41 0.386,-0.426C0.369,-0.441 0.338,-0.448 0.295,-0.448C0.24,-0.448 0.18,-0.438 0.117,-0.417L0.117,-0.483C0.14,-0.494 0.17,-0.503 0.206,-0.51C0.242,-0.518 0.277,-0.521 0.31,-0.521C0.373,-0.521 0.42,-0.508 0.451,-0.483C0.482,-0.457 0.497,-0.417 0.497,-0.364L0.497,-0L0.423,-0L0.415,-0.053C0.388,-0.032 0.36,-0.015 0.33,-0.004C0.3,0.007 0.27,0.013 0.241,0.013ZM0.261,-0.056C0.307,-0.056 0.357,-0.073 0.412,-0.108L0.412,-0.22C0.371,-0.229 0.332,-0.234 0.295,-0.234C0.212,-0.234 0.171,-0.202 0.171,-0.139C0.171,-0.112 0.179,-0.092 0.195,-0.078C0.21,-0.063 0.232,-0.056 0.261,-0.056Z" style="fill-rule:nonzero;"/>
            </g>
            <g transform="matrix(50,0,0,50,307.5,790.261)">
                <path d="M0.294,0.015C0.255,0.015 0.217,0.011 0.181,0.003C0.144,-0.005 0.113,-0.016 0.086,-0.031L0.086,-0.101C0.116,-0.088 0.149,-0.077 0.186,-0.07C0.223,-0.063 0.259,-0.059 0.295,-0.059C0.337,-0.059 0.37,-0.066 0.393,-0.079C0.416,-0.092 0.427,-0.111 0.427,-0.135C0.427,-0.154 0.42,-0.169 0.406,-0.18C0.391,-0.191 0.366,-0.2 0.331,-0.209L0.243,-0.23C0.191,-0.242 0.153,-0.26 0.128,-0.283C0.102,-0.307 0.09,-0.338 0.09,-0.376C0.09,-0.422 0.108,-0.458 0.145,-0.483C0.182,-0.508 0.233,-0.521 0.298,-0.521C0.331,-0.521 0.366,-0.517 0.402,-0.509C0.437,-0.502 0.466,-0.493 0.488,-0.482L0.488,-0.414C0.46,-0.424 0.429,-0.432 0.394,-0.438C0.359,-0.444 0.327,-0.447 0.298,-0.447C0.259,-0.447 0.229,-0.441 0.207,-0.429C0.187,-0.417 0.176,-0.4 0.176,-0.378C0.176,-0.36 0.183,-0.346 0.197,-0.335C0.211,-0.324 0.237,-0.315 0.274,-0.306L0.363,-0.285C0.416,-0.272 0.455,-0.254 0.479,-0.231C0.503,-0.208 0.515,-0.177 0.515,-0.138C0.515,-0.091 0.495,-0.054 0.456,-0.027C0.416,0.001 0.362,0.015 0.294,0.015Z" style="fill-rule:nonzero;"/>
            </g>
            <g transform="matrix(50,0,0,50,337.5,790.261)">
                <path d="M0.294,0.015C0.255,0.015 0.217,0.011 0.181,0.003C0.144,-0.005 0.113,-0.016 0.086,-0.031L0.086,-0.101C0.116,-0.088 0.149,-0.077 0.186,-0.07C0.223,-0.063 0.259,-0.059 0.295,-0.059C0.337,-0.059 0.37,-0.066 0.393,-0.079C0.416,-0.092 0.427,-0.111 0.427,-0.135C0.427,-0.154 0.42,-0.169 0.406,-0.18C0.391,-0.191 0.366,-0.2 0.331,-0.209L0.243,-0.23C0.191,-0.242 0.153,-0.26 0.128,-0.283C0.102,-0.307 0.09,-0.338 0.09,-0.376C0.09,-0.422 0.108,-0.458 0.145,-0.483C0.182,-0.508 0.233,-0.521 0.298,-0.521C0.331,-0.521 0.366,-0.517 0.402,-0.509C0.437,-0.502 0.466,-0.493 0.488,-0.482L0.488,-0.414C0.46,-0.424 0.429,-0.432 0.394,-0.438C0.359,-0.444 0.327,-0.447 0.298,-0.447C0.259,-0.447 0.229,-0.441 0.207,-0.429C0.187,-0.417 0.176,-0.4 0.176,-0.378C0.176,-0.36 0.183,-0.346 0.197,-0.335C0.211,-0.324 0.237,-0.315 0.274,-0.306L0.363,-0.285C0.416,-0.272 0.455,-0.254 0.479,-0.231C0.503,-0.208 0.515,-0.177 0.515,-0.138C0.515,-0.091 0.495,-0.054 0.456,-0.027C0.416,0.001 0.362,0.015 0.294,0.015Z" style="fill-rule:nonzero;"/>
            </g>
        </g>
    </g>
    <g id="Try">
        <g transform="matrix(0.782313,0,0,0.707692,91.5816,-161.769)">
            <path d="M394.239,334.565L585.978,461.739L394.239,588.913L202.5,461.739L394.239,334.565Z" style="fill:rgb(235,235,235);stroke:black;stroke-width:5.59px;"/>
        </g>
        <g transform="matrix(1,0,0,1,-47.5,-613.261)">
            <g transform="matrix(50,0,0,50,387.5,790.261)">
                <path d="M0.343,0.01C0.286,0.01 0.245,-0.003 0.22,-0.028C0.195,-0.053 0.182,-0.095 0.182,-0.152L0.182,-0.436L0.056,-0.436L0.056,-0.497L0.184,-0.506L0.198,-0.664L0.271,-0.664L0.271,-0.507L0.503,-0.507L0.503,-0.436L0.271,-0.436L0.271,-0.161C0.271,-0.125 0.278,-0.1 0.292,-0.085C0.305,-0.07 0.329,-0.063 0.363,-0.063C0.386,-0.063 0.41,-0.065 0.436,-0.07C0.462,-0.074 0.486,-0.08 0.508,-0.087L0.508,-0.022C0.489,-0.013 0.465,-0.005 0.435,0.001C0.404,0.007 0.374,0.01 0.343,0.01Z" style="fill-rule:nonzero;"/>
            </g>
            <g transform="matrix(50,0,0,50,417.5,790.261)">
                <path d="M0.081,-0L0.081,-0.071L0.208,-0.071L0.208,-0.436L0.082,-0.436L0.082,-0.507L0.283,-0.507L0.294,-0.433C0.318,-0.461 0.343,-0.481 0.369,-0.493C0.395,-0.505 0.425,-0.511 0.46,-0.511C0.473,-0.511 0.486,-0.51 0.5,-0.508C0.514,-0.506 0.525,-0.503 0.533,-0.5L0.533,-0.42C0.51,-0.427 0.483,-0.43 0.452,-0.43C0.417,-0.43 0.388,-0.426 0.365,-0.417C0.341,-0.407 0.318,-0.393 0.297,-0.373L0.297,-0.071L0.463,-0.071L0.463,-0L0.081,-0Z" style="fill-rule:nonzero;"/>
            </g>
            <g transform="matrix(50,0,0,50,447.5,790.261)">
                <path d="M0.159,0.218C0.132,0.218 0.108,0.213 0.085,0.204L0.085,0.14C0.104,0.144 0.123,0.146 0.142,0.146C0.167,0.146 0.186,0.14 0.2,0.128C0.214,0.116 0.227,0.095 0.238,0.064L0.257,0.012L0.047,-0.507L0.141,-0.507L0.3,-0.069L0.461,-0.507L0.553,-0.507L0.31,0.092C0.298,0.122 0.285,0.146 0.271,0.164C0.257,0.183 0.241,0.196 0.223,0.205C0.205,0.214 0.184,0.218 0.159,0.218Z" style="fill-rule:nonzero;"/>
            </g>
            <g transform="matrix(50,0,0,50,477.5,790.261)">
                <path d="M0.408,0.152C0.346,0.152 0.3,0.138 0.271,0.11C0.242,0.082 0.227,0.039 0.227,-0.02L0.227,-0.174C0.227,-0.207 0.221,-0.231 0.209,-0.246C0.197,-0.26 0.176,-0.267 0.145,-0.267L0.108,-0.267L0.108,-0.343L0.145,-0.343C0.176,-0.343 0.197,-0.35 0.209,-0.365C0.221,-0.379 0.227,-0.403 0.227,-0.436L0.227,-0.59C0.227,-0.649 0.242,-0.692 0.271,-0.72C0.3,-0.748 0.346,-0.762 0.408,-0.762C0.427,-0.762 0.447,-0.76 0.469,-0.755C0.49,-0.751 0.506,-0.746 0.517,-0.74L0.517,-0.673C0.48,-0.684 0.446,-0.689 0.416,-0.689C0.381,-0.689 0.357,-0.682 0.342,-0.667C0.327,-0.652 0.319,-0.627 0.319,-0.594L0.319,-0.439C0.319,-0.403 0.313,-0.374 0.301,-0.351C0.288,-0.329 0.27,-0.313 0.246,-0.306C0.295,-0.288 0.319,-0.243 0.319,-0.171L0.319,-0.016C0.319,0.017 0.327,0.041 0.342,0.056C0.357,0.071 0.381,0.079 0.416,0.079C0.446,0.079 0.48,0.074 0.517,0.063L0.517,0.13C0.506,0.136 0.49,0.141 0.469,0.145C0.447,0.15 0.427,0.152 0.408,0.152Z" style="fill-rule:nonzero;"/>
            </g>
        </g>
        <g transform="matrix(1,0,0,0.911681,-7.93475,-197.91)">
            <g transform="matrix(1,-0,-0,1.09687,7.93475,217.082)">
                <path d="M418.75,37.5L400,75L381.25,37.5L400,56.25L418.75,37.5Z"/>
                <path d="M400,25L400,56.25" style="fill:none;stroke:black;stroke-width:4.17px;"/>
            </g>
        </g>
    </g>
    <g transform="matrix(1,-7.50079e-18,-4.61587e-18,1,-147.5,93.7391)">
        <g transform="matrix(33.3333,0,0,33.3333,257.5,777.928)">
            <path d="M0.101,-0.693L0.52,-0.693L0.52,-0.618L0.193,-0.618L0.193,-0.395L0.463,-0.395L0.463,-0.32L0.193,-0.32L0.193,-0.075L0.52,-0.075L0.52,-0L0.101,-0L0.101,-0.693Z" style="fill-rule:nonzero;"/>
        </g>
        <g transform="matrix(33.3333,0,0,33.3333,277.5,777.928)">
            <path d="M0.252,-0.261L0.083,-0.507L0.18,-0.507L0.302,-0.322L0.424,-0.507L0.518,-0.507L0.349,-0.264L0.53,-0L0.432,-0L0.297,-0.202L0.165,-0L0.07,-0L0.252,-0.261Z" style="fill-rule:nonzero;"/>
        </g>
        <g transform="matrix(33.3333,0,0,33.3333,297.5,777.928)">
            <path d="M0.348,0.011C0.171,0.011 0.083,-0.076 0.083,-0.25C0.083,-0.336 0.106,-0.402 0.151,-0.448C0.196,-0.494 0.262,-0.517 0.347,-0.517C0.377,-0.517 0.407,-0.513 0.437,-0.506C0.466,-0.499 0.49,-0.489 0.509,-0.477L0.509,-0.411C0.458,-0.433 0.407,-0.444 0.356,-0.444C0.294,-0.444 0.248,-0.429 0.219,-0.399C0.189,-0.368 0.174,-0.321 0.174,-0.258L0.174,-0.248C0.174,-0.183 0.189,-0.136 0.22,-0.107C0.25,-0.077 0.298,-0.062 0.364,-0.062C0.414,-0.062 0.464,-0.074 0.514,-0.098L0.514,-0.031C0.492,-0.018 0.467,-0.007 0.438,-0C0.409,0.007 0.379,0.011 0.348,0.011Z" style="fill-rule:nonzero;"/>
        </g>
        <g transform="matrix(33.3333,0,0,33.3333,317.5,777.928)">
            <path d="M0.327,0.015C0.243,0.015 0.179,-0.008 0.136,-0.054C0.092,-0.099 0.07,-0.166 0.07,-0.254C0.07,-0.338 0.091,-0.404 0.134,-0.451C0.177,-0.498 0.236,-0.521 0.312,-0.521C0.377,-0.521 0.428,-0.503 0.465,-0.468C0.501,-0.432 0.519,-0.382 0.519,-0.317C0.519,-0.286 0.517,-0.259 0.512,-0.234L0.156,-0.234C0.159,-0.173 0.175,-0.128 0.204,-0.1C0.234,-0.072 0.278,-0.058 0.338,-0.058C0.399,-0.058 0.456,-0.068 0.509,-0.089L0.509,-0.024C0.486,-0.012 0.459,-0.003 0.427,0.004C0.395,0.011 0.362,0.015 0.327,0.015ZM0.438,-0.296C0.439,-0.303 0.439,-0.313 0.439,-0.324C0.439,-0.365 0.428,-0.397 0.406,-0.419C0.384,-0.441 0.352,-0.452 0.31,-0.452C0.264,-0.452 0.228,-0.439 0.202,-0.412C0.176,-0.386 0.161,-0.347 0.156,-0.296L0.438,-0.296Z" style="fill-rule:nonzero;"/>
        </g>
        <g transform="matrix(33.3333,0,0,33.3333,337.5,777.928)">
            <path d="M0.086,-0.507L0.161,-0.507L0.169,-0.454C0.22,-0.499 0.274,-0.521 0.331,-0.521C0.396,-0.521 0.448,-0.498 0.486,-0.452C0.523,-0.405 0.542,-0.341 0.542,-0.26C0.542,-0.205 0.533,-0.156 0.515,-0.114C0.496,-0.072 0.471,-0.04 0.438,-0.018C0.405,0.004 0.368,0.015 0.325,0.015C0.27,0.015 0.22,-0.002 0.175,-0.035L0.175,0.206L0.086,0.206L0.086,-0.507ZM0.307,-0.058C0.354,-0.058 0.39,-0.075 0.414,-0.108C0.439,-0.141 0.451,-0.19 0.451,-0.255C0.451,-0.318 0.439,-0.366 0.416,-0.399C0.392,-0.432 0.357,-0.448 0.31,-0.448C0.264,-0.448 0.219,-0.431 0.175,-0.397L0.175,-0.101C0.216,-0.072 0.26,-0.058 0.307,-0.058Z" style="fill-rule:nonzero;"/>
        </g>
        <g transform="matrix(33.3333,0,0,33.3333,357.5,777.928)">
            <path d="M0.343,0.01C0.286,0.01 0.245,-0.003 0.22,-0.028C0.195,-0.053 0.182,-0.095 0.182,-0.152L0.182,-0.436L0.056,-0.436L0.056,-0.497L0.184,-0.506L0.198,-0.664L0.271,-0.664L0.271,-0.507L0.503,-0.507L0.503,-0.436L0.271,-0.436L0.271,-0.161C0.271,-0.125 0.278,-0.1 0.292,-0.085C0.305,-0.07 0.329,-0.063 0.363,-0.063C0.386,-0.063 0.41,-0.065 0.436,-0.07C0.462,-0.074 0.486,-0.08 0.508,-0.087L0.508,-0.022C0.489,-0.013 0.465,-0.005 0.435,0.001C0.404,0.007 0.374,0.01 0.343,0.01Z" style="fill-rule:nonzero;"/>
        </g>
        <g transform="matrix(33.3333,0,0,33.3333,377.5,777.928)">
            <path d="M0.077,-0.071L0.264,-0.071L0.264,-0.436L0.111,-0.436L0.111,-0.507L0.353,-0.507L0.353,-0.071L0.529,-0.071L0.529,-0L0.077,-0L0.077,-0.071ZM0.292,-0.596C0.273,-0.596 0.257,-0.602 0.245,-0.614C0.233,-0.625 0.227,-0.641 0.227,-0.66C0.227,-0.68 0.233,-0.696 0.245,-0.708C0.257,-0.719 0.273,-0.725 0.292,-0.725C0.312,-0.725 0.328,-0.719 0.34,-0.708C0.352,-0.696 0.358,-0.68 0.358,-0.66C0.358,-0.641 0.352,-0.625 0.34,-0.614C0.328,-0.602 0.312,-0.596 0.292,-0.596Z" style="fill-rule:nonzero;"/>
        </g>
        <g transform="matrix(33.3333,0,0,33.3333,397.5,777.928)">
            <path d="M0.3,0.015C0.223,0.015 0.164,-0.009 0.121,-0.056C0.078,-0.103 0.057,-0.169 0.057,-0.253C0.057,-0.337 0.078,-0.403 0.121,-0.45C0.164,-0.497 0.223,-0.521 0.3,-0.521C0.377,-0.521 0.436,-0.497 0.479,-0.45C0.522,-0.403 0.543,-0.337 0.543,-0.253C0.543,-0.169 0.522,-0.103 0.479,-0.056C0.436,-0.009 0.377,0.015 0.3,0.015ZM0.3,-0.058C0.35,-0.058 0.388,-0.074 0.413,-0.107C0.439,-0.14 0.452,-0.188 0.452,-0.253C0.452,-0.383 0.401,-0.448 0.3,-0.448C0.199,-0.448 0.148,-0.383 0.148,-0.253C0.148,-0.188 0.161,-0.14 0.187,-0.107C0.212,-0.074 0.25,-0.058 0.3,-0.058Z" style="fill-rule:nonzero;"/>
        </g>
        <g transform="matrix(33.3333,0,0,33.3333,417.5,777.928)">
            <path d="M0.085,-0.507L0.16,-0.507L0.169,-0.449C0.234,-0.497 0.302,-0.521 0.372,-0.521C0.42,-0.521 0.457,-0.508 0.483,-0.482C0.508,-0.455 0.521,-0.418 0.521,-0.369L0.521,-0L0.432,-0L0.432,-0.338C0.432,-0.376 0.425,-0.404 0.409,-0.422C0.395,-0.44 0.371,-0.449 0.338,-0.449C0.285,-0.449 0.23,-0.431 0.174,-0.394L0.174,-0L0.085,-0L0.085,-0.507Z" style="fill-rule:nonzero;"/>
        </g>
    </g>
</svg>
